<svg width="201" height="141" viewBox="0 0 201 141" fill="none" xmlns="http://www.w3.org/2000/svg">
<path d="M36.8719 139.753C36.8719 139.753 90.3749 111.454 67.3633 88.4923C52.9985 74.1562 41.0088 52.901 39.7972 33.1408C38.6657 14.6698 55.3282 -0.0659416 74.8886 0.000221934C89.8837 0.0516825 101.583 7.33903 111.127 17.5182C119.092 26.0085 132.972 53.6315 148.718 49.5801C152.111 48.708 154.521 46.03 157.214 43.9168C169.543 34.2215 175.085 50.594 175.225 59.3215C175.385 69.3196 173.177 79.4112 170.769 89.1019C169.34 94.8554 158.241 139.753 154.236 139.753H36.8719Z" fill="#E9F3FD"/>
<path d="M135.399 17.4834H145.94" stroke="black" stroke-width="0.341511" stroke-linecap="round" stroke-linejoin="round"/>
<path d="M165.474 140H116.341C114.529 140.001 112.72 139.444 111.434 138.167C110.149 136.89 109.422 135.156 109.411 133.344L109.051 21.5981C109.049 19.7856 109.765 18.0461 111.042 16.7599C112.319 15.4737 114.053 14.7455 115.866 14.7345L165.07 14.5754C166.881 14.5749 168.62 15.2913 169.905 16.5681C171.19 17.845 171.918 19.5786 171.929 21.3903L172.284 133.141C172.285 134.952 171.569 136.69 170.293 137.975C169.017 139.26 167.285 139.988 165.474 140Z" stroke="black" stroke-width="0.170421" stroke-miterlimit="10"/>
<path d="M158.459 17.6358L155.449 17.6458C155.191 20.001 153.231 21.8529 150.873 21.8596L129.587 21.9297C127.226 21.9297 125.259 20.0985 124.979 17.7447H121.967C116.248 17.7634 111.586 22.5813 111.604 28.4525L111.926 125.67C111.946 131.54 116.641 136.328 122.358 136.309L158.846 136.191C164.563 136.172 169.225 131.354 169.207 125.483L168.893 28.2601C168.873 22.3889 164.179 17.6017 158.459 17.6204" fill="#C7E5FA"/>
<path d="M116.108 25.1331L122.403 25.113M116.04 26.6422L120.812 26.6268M116.045 28.3029L119.868 28.2909" stroke="black" stroke-width="0.341511" stroke-linecap="round" stroke-linejoin="round"/>
<mask id="mask0_1_2647" style="mask-type:luminance" maskUnits="userSpaceOnUse" x="-1" y="97" width="42" height="43">
<path d="M-0.00012207 97.6863H40.7673V139.79H-0.00012207V97.6863Z" fill="white"/>
</mask>
<g mask="url(#mask0_1_2647)">
<path fill-rule="evenodd" clip-rule="evenodd" d="M36.7347 127.376C31.2665 130.673 41.0801 139.889 41.0801 139.889L32.3552 145.804C30.6022 144.976 29.3972 144.027 28.5765 143.068L25.0524 147.037C21.9715 146.901 18.7261 145.88 17.2378 142.965C16.7659 142.042 16.7265 140.839 16.6878 139.655C16.6376 138.109 16.5882 136.594 15.5804 135.776C14.761 135.112 13.5734 134.825 12.5616 134.655C12.0336 134.561 9.00275 134.037 8.59976 134.561C10.6448 131.892 7.02854 133.586 7.02854 133.586C5.82423 133.177 5.31096 130.835 4.91665 129.041C4.76026 128.327 4.62259 127.7 4.46821 127.316C4.12737 126.468 0.996958 120.732 0.00183105 121.095C4.30447 119.527 8.93459 120.609 12.6023 123.193C14.1662 124.295 15.1814 125.809 16.0535 127.485C16.1437 127.659 16.3088 128.071 16.5147 128.581C17.068 129.961 17.9114 132.061 18.3405 132.117C18.8818 132.188 23.5374 134.792 27.2131 136.886C27.4557 135.585 26.0048 133.687 26.0048 133.687C21.352 129.482 25.2777 125.47 25.2777 125.47C26.9638 123.742 25.9754 120.684 24.7243 119.069C24.2531 118.461 23.4939 118.003 22.726 117.541C21.4575 116.777 20.1664 115.999 20.1162 114.502C20.0888 113.672 20.5339 112.959 20.9837 112.237C21.2236 111.853 21.4642 111.466 21.6353 111.06C22.436 109.169 21.5144 107.119 20.0995 105.802C19.8061 105.529 19.4867 105.271 19.1665 105.012C18.261 104.282 17.3527 103.548 17.0279 102.47C16.5868 101.011 17.4456 99.3757 18.7341 98.5443C20.0227 97.7136 21.6233 97.5412 23.1598 97.604C25.8972 97.7149 28.6734 98.5584 30.7218 100.38C33.647 102.987 34.6475 107.199 34.4764 111.115V111.117C34.3488 114.041 34.2572 116.131 36.4152 118.282C36.6692 118.536 36.9372 118.786 37.2058 119.035C38.5411 120.276 39.8991 121.537 39.6358 123.574C39.4347 125.178 38.0659 126.57 36.7347 127.376Z" fill="#C7E5FA"/>
<mask id="mask1_1_2647" style="mask-type:alpha" maskUnits="userSpaceOnUse" x="-1" y="97" width="43" height="51">
<path fill-rule="evenodd" clip-rule="evenodd" d="M36.7347 127.376C31.2665 130.673 41.0801 139.889 41.0801 139.889L32.3552 145.804C30.6022 144.976 29.3972 144.027 28.5765 143.068L25.0524 147.037C21.9715 146.901 18.7261 145.88 17.2378 142.965C16.7659 142.042 16.7265 140.839 16.6878 139.655C16.6376 138.109 16.5882 136.594 15.5804 135.776C14.761 135.112 13.5734 134.825 12.5616 134.655C12.0336 134.561 9.00275 134.037 8.59976 134.561C10.6448 131.892 7.02854 133.586 7.02854 133.586C5.82423 133.177 5.31096 130.835 4.91665 129.041C4.76026 128.327 4.62259 127.7 4.46821 127.316C4.12737 126.468 0.996958 120.732 0.00183105 121.095C4.30447 119.527 8.93459 120.609 12.6023 123.193C14.1662 124.295 15.1814 125.809 16.0535 127.485C16.1437 127.659 16.3088 128.071 16.5147 128.581C17.068 129.961 17.9114 132.061 18.3405 132.117C18.8818 132.188 23.5374 134.792 27.2131 136.886C27.4557 135.585 26.0048 133.687 26.0048 133.687C21.352 129.482 25.2777 125.47 25.2777 125.47C26.9638 123.742 25.9754 120.684 24.7243 119.069C24.2531 118.461 23.4939 118.003 22.726 117.541C21.4575 116.777 20.1664 115.999 20.1162 114.502C20.0888 113.672 20.5339 112.959 20.9837 112.237C21.2236 111.853 21.4642 111.466 21.6353 111.06C22.436 109.169 21.5144 107.119 20.0995 105.802C19.8061 105.529 19.4867 105.271 19.1665 105.012C18.261 104.282 17.3527 103.548 17.0279 102.47C16.5868 101.011 17.4456 99.3757 18.7341 98.5443C20.0227 97.7136 21.6233 97.5412 23.1598 97.604C25.8972 97.7149 28.6734 98.5584 30.7218 100.38C33.647 102.987 34.6475 107.199 34.4764 111.115V111.117C34.3488 114.041 34.2572 116.131 36.4152 118.282C36.6692 118.536 36.9372 118.786 37.2058 119.035C38.5411 120.276 39.8991 121.537 39.6358 123.574C39.4347 125.178 38.0659 126.57 36.7347 127.376Z" fill="#C7E5FA" stroke="white" stroke-width="0.128317" stroke-miterlimit="10"/>
</mask>
<g mask="url(#mask1_1_2647)">
<path d="M18.0825 95.9131C18.6813 98.2355 20.2358 99.7118 22.1204 101.064C23.3147 101.917 24.7723 102.664 25.6465 103.873C26.9056 105.619 26.0508 107.232 26.2346 109.22C26.3375 110.327 26.7352 111.449 27.5445 112.213C30.8093 115.302 32.6438 117.782 32.1519 122.527C31.4575 129.217 31.0512 136.863 37.3935 141.246M-0.000244141 121.095C4.25093 121.976 8.07104 124.539 10.3955 128.219C11.4447 129.878 11.7722 131.936 13.4129 133.139C15.0871 134.366 17.2972 134.598 19.1879 135.344C22.6631 136.709 25.029 140.207 26.2233 143.637" stroke="white" stroke-width="0.128317" stroke-miterlimit="10"/>
</g>
</g>
<path d="M122.054 103.845L122.044 104.218C122.044 104.218 122.076 104.847 121.45 104.863L120.938 104.877" stroke="white" stroke-width="0.0855448" stroke-miterlimit="10"/>
<path d="M101.727 55.0397L102.616 52.4713C103.235 50.6809 103.258 48.5984 105.101 47.5305C106.483 46.7298 107.881 47.6855 109.164 48.2389L111.852 49.3991C111.852 49.3991 112.845 52.8008 107.799 51.106L106.316 52.5275L105.447 56.8508L101.727 55.0397ZM73.5951 44.1287C71.9296 44.8592 70.6939 44.2497 70.2348 43.1289C69.8051 42.0877 70.4052 40.6027 71.8561 40.6929C72.4389 40.7444 73.002 40.9296 73.5015 41.2342C73.7261 41.5229 73.9179 41.8364 74.073 42.1679C74.3824 42.8502 74.5321 43.7177 73.5951 44.1287Z" fill="#F4CFD7"/>
<path d="M74.1095 45.7687C77.2279 47.1508 79.4447 45.4512 79.9125 42.8074C80.119 41.6365 80.2353 40.3479 79.7588 39.2232C79.327 38.1993 78.5525 37.3459 77.4651 36.9622C75.1868 36.1649 72.5877 37.4909 71.6621 39.9236C71.6621 39.9236 71.6621 39.9383 71.6541 39.9456C71.2385 41.045 71.2616 42.2621 71.7184 43.345C72.1751 44.4279 73.0308 45.2937 74.1081 45.7633" fill="#F4CFD7"/>
<path d="M73.0394 42.7324C72.8956 42.3782 72.6383 42.0817 72.3079 41.8893C71.9775 41.6969 71.5927 41.6194 71.2136 41.6691C70.9984 41.6945 71.0104 42.0193 71.227 41.9919C71.5327 41.9462 71.8449 42.0034 72.1145 42.1545C72.3842 42.3056 72.596 42.5421 72.7166 42.8267C72.7935 43.0211 73.1176 42.9269 73.0394 42.7324ZM72.8944 41.4252C72.9997 41.5169 73.1338 41.5687 73.2733 41.5716C73.6543 41.5275 74.0279 41.1057 74.2972 40.8892C74.835 40.4392 75.4268 40.058 76.0589 39.7544C76.897 39.3688 80.9944 39.6929 81.2611 38.3155C81.648 36.3039 78.5491 37.3498 77.4617 36.9709C75.1847 36.1735 71.7068 37.1941 71.3653 40.7114C71.3466 40.7836 71.9354 40.9761 71.9949 40.9981C72.2194 41.0777 72.4393 41.1686 72.6538 41.2715C72.7353 41.3196 72.8142 41.3717 72.8897 41.4285" fill="black"/>
<path d="M72.0497 38.8256C73.1438 38.452 73.091 38.3136 74.3314 38.2608C74.7771 35.7573 71.0513 31.5576 66.0268 32.9002C63.7499 33.5084 62.9305 35.7266 62.849 35.8676C60.8126 34.8718 57.995 34.5196 56.1057 35.3289C53.3475 36.5118 53.7351 39.4798 56.0462 41.1727C58.5738 43.0259 62.5536 43.4784 65.7335 42.8435C70.7733 41.8383 70.3823 37.4248 70.8361 37.4334C71.4202 37.4455 71.8519 38.3631 72.0497 38.8256Z" fill="black"/>
<path d="M72.8682 47.6273L75.6591 48.4019L76.7665 44.7535L73.9763 43.9783L72.8682 47.6273Z" fill="#F4CFD7"/>
<path d="M75.9261 38.0055C75.6501 37.384 75.3173 36.7892 74.9324 36.2285C73.4888 34.0932 70.4232 30.9601 65.4095 32.3422" stroke="black" stroke-width="0.170421" stroke-miterlimit="10"/>
<path d="M77.7323 41.8556C77.6668 41.899 77.5872 41.9158 77.5097 41.9024C77.4323 41.8889 77.3629 41.8464 77.3159 41.7834C77.2906 41.755 77.2713 41.7219 77.259 41.686C77.2467 41.6501 77.2418 41.6121 77.2444 41.5742C77.2477 41.5363 77.2587 41.4995 77.2766 41.466C77.2945 41.4324 77.319 41.4029 77.3486 41.3791C77.4144 41.3358 77.4941 41.3191 77.5716 41.3323C77.6492 41.3456 77.7188 41.3879 77.7663 41.4506C77.7919 41.4788 77.8114 41.512 77.8236 41.5481C77.8358 41.5843 77.8405 41.6225 77.8373 41.6605C77.8341 41.6984 77.8231 41.7354 77.805 41.7689C77.787 41.8025 77.7622 41.832 77.7323 41.8556ZM78.8871 43.789C79.1068 43.1924 79.2335 42.5655 79.2627 41.9304C79.2727 41.7446 78.9774 41.6932 78.9673 41.879C78.9388 42.4902 78.8174 43.0934 78.6071 43.668C78.5443 43.8385 78.8236 43.9594 78.8871 43.789Z" fill="#030047"/>
<path d="M44.8211 41.6713C44.5157 40.7016 43.9683 39.8228 43.705 38.833C43.3147 37.3567 43.9717 36.8033 45.3831 36.3174C46.2159 36.0301 48.146 35.7594 48.5075 36.8922C48.8898 38.0871 48.571 39.8435 48.5764 41.0872" fill="#F4CFD7"/>
<path d="M194.3 125.226C194.3 125.373 194.267 125.518 194.204 125.652C194.141 125.785 194.049 125.902 193.935 125.996C193.821 126.089 193.688 126.156 193.545 126.192C193.402 126.228 193.253 126.231 193.108 126.203C192.963 126.174 192.827 126.114 192.709 126.026C192.59 125.938 192.493 125.825 192.423 125.695C192.354 125.564 192.314 125.42 192.307 125.273C192.3 125.126 192.326 124.979 192.383 124.843C192.459 124.661 192.587 124.505 192.751 124.396C192.887 124.305 193.044 124.25 193.207 124.234C193.37 124.218 193.535 124.242 193.686 124.305C193.868 124.38 194.024 124.508 194.133 124.672C194.242 124.836 194.301 125.029 194.3 125.226ZM200.484 125.226C200.484 125.373 200.451 125.518 200.388 125.652C200.325 125.785 200.233 125.902 200.119 125.996C200.005 126.089 199.872 126.156 199.729 126.192C199.586 126.228 199.437 126.231 199.292 126.203C199.098 126.164 198.92 126.07 198.781 125.93C198.641 125.79 198.546 125.612 198.508 125.419C198.47 125.225 198.49 125.024 198.566 124.842C198.642 124.66 198.771 124.505 198.935 124.396C199.127 124.268 199.357 124.211 199.587 124.234C199.816 124.257 200.03 124.358 200.194 124.521C200.38 124.708 200.484 124.962 200.484 125.226ZM194.3 131.339C194.3 131.536 194.242 131.729 194.132 131.893C194.023 132.057 193.867 132.184 193.685 132.26C193.503 132.336 193.303 132.356 193.11 132.317C192.916 132.279 192.739 132.185 192.599 132.046C192.46 131.906 192.365 131.728 192.326 131.535C192.288 131.341 192.308 131.141 192.383 130.958C192.458 130.776 192.586 130.62 192.751 130.511C192.915 130.402 193.108 130.344 193.305 130.344C193.569 130.345 193.822 130.45 194.009 130.636C194.195 130.823 194.3 131.076 194.3 131.339ZM200.569 131.339C200.569 131.536 200.51 131.728 200.401 131.892C200.292 132.055 200.136 132.183 199.954 132.258C199.773 132.333 199.573 132.353 199.38 132.315C199.187 132.276 199.01 132.182 198.87 132.042C198.731 131.903 198.636 131.726 198.598 131.533C198.569 131.396 198.57 131.255 198.6 131.119C198.63 130.982 198.688 130.854 198.771 130.741C198.853 130.629 198.959 130.535 199.08 130.466C199.202 130.397 199.336 130.354 199.475 130.34C199.614 130.327 199.755 130.342 199.887 130.386C200.02 130.431 200.141 130.502 200.245 130.596C200.348 130.691 200.43 130.805 200.486 130.933C200.541 131.061 200.57 131.2 200.569 131.339ZM194.3 137.454C194.304 137.587 194.281 137.719 194.232 137.843C194.183 137.967 194.11 138.08 194.018 138.175C193.925 138.271 193.814 138.347 193.691 138.398C193.568 138.45 193.436 138.477 193.303 138.477C193.17 138.476 193.038 138.45 192.916 138.398C192.793 138.346 192.682 138.27 192.589 138.175C192.496 138.08 192.424 137.967 192.375 137.843C192.327 137.719 192.303 137.586 192.307 137.453C192.314 137.193 192.422 136.946 192.608 136.765C192.794 136.584 193.044 136.482 193.304 136.482C193.564 136.482 193.814 136.584 194 136.765C194.186 136.947 194.294 137.194 194.3 137.454ZM200.569 137.454C200.569 137.651 200.51 137.843 200.401 138.007C200.291 138.17 200.136 138.297 199.954 138.372C199.818 138.429 199.671 138.454 199.524 138.447C199.377 138.44 199.233 138.4 199.104 138.33C198.974 138.261 198.861 138.163 198.774 138.045C198.686 137.926 198.626 137.79 198.598 137.646C198.569 137.501 198.572 137.352 198.608 137.21C198.643 137.067 198.71 136.934 198.804 136.82C198.897 136.706 199.015 136.615 199.148 136.552C199.281 136.489 199.427 136.457 199.574 136.457C199.771 136.458 199.964 136.516 200.127 136.626C200.291 136.735 200.419 136.891 200.494 137.073C200.544 137.194 200.569 137.323 200.569 137.454Z" fill="white"/>
<path d="M81.829 134.483C82.512 137.285 85.9853 136.749 85.7748 139.753L74.7228 138.848L75.8556 133.308L81.829 134.483Z" fill="black"/>
<path d="M82.3784 138.108C82.8979 137.63 83.4581 137.198 84.0526 136.818C84.1862 136.732 84.2765 136.941 84.1435 137.026C83.5675 137.396 83.025 137.815 82.5221 138.28C82.4058 138.39 82.2608 138.215 82.3784 138.11M81.9387 137.518L83.4077 136.48C83.538 136.387 83.6369 136.593 83.5086 136.683L82.0376 137.722C81.9093 137.814 81.8104 137.61 81.9387 137.518Z" fill="white"/>
<path d="M58.3364 134.991C59.2065 137.744 62.6424 136.988 62.641 140L51.5469 139.801L52.3035 134.203L58.3364 134.991Z" fill="black"/>
<path d="M59.1447 138.574C59.6299 138.064 60.1593 137.597 60.7266 137.179C60.8529 137.086 60.9572 137.289 60.8308 137.383C60.279 137.787 59.7648 138.241 59.2944 138.738C59.1854 138.852 59.0284 138.69 59.1373 138.567M58.6642 138.014L60.0589 136.883C60.1812 136.784 60.2942 136.982 60.1732 137.08L58.7784 138.21C58.6555 138.311 58.5432 138.111 58.6642 138.014Z" fill="white"/>
<path d="M49.8206 40.8464L52.0581 58.1492C53.2524 55.0496 55.4198 50.7048 57.8792 48.4466C59.1062 47.3204 60.6099 46.2946 62.264 45.9738C66.437 45.1698 70.2037 47.1941 74.1394 48.085C77.102 48.7573 80.169 47.4381 83.1229 48.1959C89.1478 49.7438 91.9741 57.1033 93.0769 62.3817L94.4844 69.1437L100.535 54.2957L106.445 56.6301C106.71 56.7651 106.312 59.1905 106.274 59.4478C105.876 63.2022 105.178 66.9188 104.187 70.5619C103.317 73.7692 102.431 77.336 100.383 80.0681C99.3778 81.4147 97.8721 82.2241 96.1812 82.4901C94.0426 82.8316 91.6921 82.4386 89.9291 81.1929C87.9495 79.7934 86.9871 77.4897 85.847 75.4874C85.1747 74.3078 83.3742 69.0502 82.4165 66.8788L79.9845 75.9004L56.3674 72.1458C56.3674 72.1458 57.3586 68.5122 59.8968 63.0747C58.605 64.0986 59.5092 63.0747 57.7649 64.5818C56.3741 65.7848 54.577 66.826 52.6108 66.8668C50.4501 66.9095 47.5229 66.0768 45.9651 64.7168C43.9394 62.9484 43.4047 60.7416 43.1521 58.2789C42.8828 55.7326 43.2243 52.9885 43.8144 50.4983C43.9855 49.7745 42.1249 41.3757 42.5907 41.3757L49.8206 40.8464Z" fill="#0CC3CD"/>
<mask id="mask2_1_2647" style="mask-type:alpha" maskUnits="userSpaceOnUse" x="42" y="40" width="65" height="43">
<path d="M49.8206 40.8464L52.0581 58.1492C53.2524 55.0496 55.4198 50.7048 57.8792 48.4466C59.1062 47.3204 60.6099 46.2946 62.264 45.9738C66.437 45.1698 70.2037 47.1941 74.1394 48.085C77.102 48.7573 80.169 47.4381 83.1229 48.1959C89.1478 49.7438 91.9741 57.1033 93.0769 62.3817L94.4844 69.1437L100.535 54.2957L106.445 56.6301C106.71 56.7651 106.312 59.1905 106.274 59.4478C105.876 63.2022 105.178 66.9188 104.187 70.5619C103.317 73.7692 102.431 77.336 100.383 80.0681C99.3778 81.4147 97.8721 82.2241 96.1812 82.4901C94.0426 82.8316 91.6921 82.4386 89.9291 81.1929C87.9495 79.7934 86.9871 77.4897 85.847 75.4874C85.1747 74.3078 83.3742 69.0502 82.4165 66.8788L79.9845 75.9004L56.3674 72.1458C56.3674 72.1458 57.3586 68.5122 59.8968 63.0747C58.605 64.0986 59.5092 63.0747 57.7649 64.5818C56.3741 65.7848 54.577 66.826 52.6108 66.8668C50.4501 66.9095 47.5229 66.0768 45.9651 64.7168C43.9394 62.9484 43.4047 60.7416 43.1521 58.2789C42.8828 55.7326 43.2243 52.9885 43.8144 50.4983C43.9855 49.7745 42.1249 41.3757 42.5907 41.3757L49.8206 40.8464Z" fill="#0CC3CD"/>
</mask>
<g mask="url(#mask2_1_2647)">
<path d="M102.74 55.0309C102.695 55.2392 102.713 55.4562 102.792 55.6542C102.871 55.8522 103.007 56.0221 103.183 56.1423C103.301 56.2218 103.432 56.2766 103.571 56.304C103.853 56.3702 104.149 56.3242 104.398 56.1758C104.646 56.0274 104.827 55.7882 104.903 55.5087C104.934 55.3705 104.937 55.2274 104.911 55.0879C104.886 54.9485 104.833 54.8155 104.756 54.6967C104.679 54.5781 104.578 54.4762 104.46 54.397C104.343 54.3178 104.21 54.2629 104.071 54.2356C103.789 54.1692 103.493 54.2151 103.244 54.3636C102.996 54.512 102.815 54.7513 102.74 55.0309ZM93.9101 53.0801C93.8637 53.2884 93.881 53.5059 93.96 53.7043C94.0389 53.9026 94.1756 54.0726 94.3525 54.1921C94.4701 54.271 94.6024 54.3258 94.7415 54.3532C95.0232 54.4202 95.3199 54.3743 95.5682 54.2255C95.8166 54.0766 95.997 53.8366 96.0707 53.5566C96.1017 53.4183 96.1046 53.2753 96.0793 53.1359C96.054 52.9966 96.0011 52.8637 95.9236 52.7451C95.8461 52.6266 95.7456 52.5247 95.6281 52.4457C95.5106 52.3666 95.3784 52.3119 95.2394 52.2848C94.9578 52.2178 94.6613 52.2634 94.4129 52.412C94.1646 52.5606 93.9841 52.8003 93.9101 53.0801ZM85.0729 51.1292C85.0421 51.2674 85.0393 51.4104 85.0645 51.5497C85.0898 51.6891 85.1426 51.8219 85.2199 51.9406C85.2973 52.0591 85.3977 52.1609 85.5151 52.24C85.6326 52.3191 85.7647 52.3739 85.9036 52.401C86.1871 52.47 86.4863 52.4245 86.7365 52.2744C86.9867 52.1242 87.1677 51.8816 87.2402 51.5991C87.2867 51.3907 87.2693 51.1732 87.1904 50.9749C87.1115 50.7765 86.9747 50.6065 86.7978 50.487C86.6802 50.4078 86.548 50.353 86.4089 50.3259C86.1271 50.259 85.8304 50.3048 85.5821 50.4537C85.3337 50.6025 85.1534 50.8426 85.0796 51.1226M76.2471 49.1771C76.2012 49.3854 76.2189 49.6027 76.2977 49.801C76.3766 49.9992 76.5131 50.1692 76.6895 50.2892C76.8071 50.368 76.9394 50.4228 77.0785 50.4502C77.3603 50.5176 77.6573 50.4722 77.906 50.3236C78.1548 50.175 78.3355 49.935 78.4098 49.6549C78.4564 49.4466 78.4391 49.229 78.36 49.0307C78.281 48.8324 78.1438 48.6626 77.9666 48.5435C77.8493 48.4643 77.7173 48.4093 77.5784 48.3818C77.2966 48.3159 77.0004 48.3621 76.752 48.5104C76.5037 48.6588 76.3226 48.8978 76.2471 49.1771ZM67.4166 47.2262C67.3702 47.4346 67.3876 47.6521 67.4665 47.8504C67.5454 48.0488 67.6821 48.2188 67.859 48.3383C67.9766 48.4179 68.109 48.4727 68.248 48.4994C68.5295 48.5664 68.826 48.5207 69.0744 48.3722C69.3227 48.2236 69.5032 47.9838 69.5772 47.7041C69.6089 47.5659 69.6122 47.4227 69.5871 47.2831C69.5619 47.1436 69.5088 47.0106 69.4309 46.8921C69.3534 46.7734 69.2529 46.6715 69.1354 46.5923C69.0178 46.5131 68.8856 46.4582 68.7465 46.4309C68.465 46.3648 68.1687 46.4108 67.9205 46.5593C67.6723 46.7077 67.4915 46.9469 67.4166 47.2262ZM58.5847 45.2841C58.554 45.4224 58.5512 45.5654 58.5765 45.7047C58.6018 45.8441 58.6547 45.977 58.7321 46.0956C58.8095 46.2142 58.9098 46.3161 59.0271 46.3954C59.1445 46.4747 59.2765 46.5297 59.4155 46.5573C59.6973 46.6245 59.9942 46.579 60.2429 46.4304C60.4916 46.2818 60.6724 46.042 60.7468 45.762C60.7777 45.6237 60.7807 45.4806 60.7555 45.3412C60.7304 45.2017 60.6777 45.0687 60.6004 44.95C60.5228 44.8312 60.4222 44.7292 60.3046 44.65C60.1869 44.5708 60.0546 44.516 59.9154 44.4888C59.6337 44.4221 59.3371 44.4679 59.0886 44.6164C58.8402 44.7649 58.6594 45.0045 58.5847 45.2841ZM49.7542 43.3246C49.7225 43.4629 49.7191 43.6062 49.7443 43.7459C49.7694 43.8856 49.8226 44.0187 49.9006 44.1373C49.9781 44.2559 50.0786 44.3578 50.1961 44.4369C50.3137 44.516 50.4459 44.5707 50.585 44.5978C50.8666 44.6651 51.1634 44.6196 51.4119 44.471C51.6605 44.3224 51.841 44.0824 51.9149 43.8025C51.946 43.6641 51.9491 43.521 51.9239 43.3814C51.8988 43.2419 51.8458 43.1089 51.7683 42.9902C51.6908 42.8714 51.5902 42.7695 51.4726 42.6903C51.355 42.6112 51.2227 42.5564 51.0835 42.5293C50.8021 42.4634 50.506 42.5095 50.2579 42.6579C50.0098 42.8063 49.8292 43.0454 49.7542 43.3246ZM40.9237 41.3738C40.8773 41.5821 40.8947 41.7996 40.9736 41.998C41.0525 42.1963 41.1893 42.3663 41.3662 42.4859C41.4838 42.5647 41.6161 42.6195 41.7551 42.6469C42.0366 42.7132 42.3329 42.6673 42.581 42.5188C42.8292 42.3703 43.0097 42.131 43.0844 41.8516C43.1154 41.7134 43.1183 41.5703 43.0932 41.4308C43.0681 41.2914 43.0153 41.1584 42.9381 41.0396C42.8605 40.9209 42.7599 40.8189 42.6422 40.7397C42.5246 40.6605 42.3922 40.6057 42.253 40.5785C41.9715 40.5115 41.6749 40.5571 41.4266 40.7057C41.1783 40.8543 40.9978 41.094 40.9237 41.3738ZM100.994 62.2694C100.963 62.4076 100.961 62.5505 100.986 62.6897C101.011 62.829 101.064 62.9618 101.141 63.0803C101.219 63.1987 101.319 63.3005 101.437 63.3796C101.554 63.4586 101.686 63.5134 101.825 63.5406C102.107 63.6071 102.403 63.5613 102.652 63.4128C102.9 63.2643 103.081 63.0249 103.156 62.7453C103.187 62.6071 103.19 62.4642 103.165 62.325C103.139 62.1857 103.086 62.0529 103.009 61.9345C102.932 61.816 102.831 61.7142 102.714 61.6352C102.596 61.5561 102.464 61.5013 102.326 61.4741C102.044 61.4066 101.747 61.4519 101.498 61.6006C101.249 61.7492 101.068 61.9893 100.994 62.2694ZM92.1638 60.3186C92.1329 60.4568 92.1301 60.5998 92.1554 60.739C92.1807 60.8783 92.2337 61.0111 92.3112 61.1296C92.3887 61.2481 92.4891 61.3499 92.6066 61.4289C92.7241 61.5079 92.8562 61.5626 92.9951 61.5898C93.2767 61.6575 93.5736 61.6121 93.8221 61.4634C94.0706 61.3148 94.251 61.0746 94.3244 60.7945C94.3706 60.5863 94.3531 60.3691 94.2742 60.171C94.1953 59.9729 94.0587 59.8031 93.882 59.6837C93.7646 59.6047 93.6326 59.5502 93.4937 59.5233C93.2121 59.4559 92.9153 59.5014 92.6667 59.6501C92.4182 59.7987 92.2377 60.0386 92.1638 60.3186ZM83.3312 58.3658C83.3005 58.5041 83.2977 58.6471 83.3231 58.7865C83.3484 58.9259 83.4013 59.0588 83.4788 59.1775C83.5563 59.2961 83.6567 59.398 83.7741 59.4773C83.8916 59.5565 84.0237 59.6115 84.1626 59.6389C84.4445 59.7065 84.7415 59.6611 84.9903 59.5125C85.2391 59.3639 85.4199 59.1238 85.4939 58.8436C85.5248 58.7055 85.5276 58.5625 85.5023 58.4232C85.477 58.2839 85.424 58.1511 85.3465 58.0326C85.269 57.9141 85.1685 57.8124 85.0511 57.7333C84.9336 57.6543 84.8015 57.5996 84.6625 57.5725C84.3808 57.5067 84.0846 57.5528 83.8362 57.7012C83.5879 57.8495 83.4068 58.0885 83.3312 58.3678M74.5008 56.415C74.4543 56.6233 74.4717 56.8408 74.5506 57.0392C74.6296 57.2375 74.7663 57.4075 74.9432 57.527C75.0608 57.6066 75.1931 57.6614 75.3321 57.6881C75.6137 57.7551 75.9102 57.7094 76.1586 57.5609C76.4069 57.4123 76.5873 57.1726 76.6614 56.8928C76.7073 56.6846 76.6897 56.4673 76.6108 56.2692C76.5319 56.0711 76.3955 55.9011 76.219 55.7814C76.1017 55.702 75.9697 55.647 75.8307 55.6197C75.5491 55.5534 75.2528 55.5993 75.0045 55.7478C74.7563 55.8962 74.5756 56.1355 74.5008 56.415ZM65.6709 54.4648C65.6398 54.6031 65.6367 54.7463 65.6619 54.8858C65.6871 55.0253 65.74 55.1584 65.8175 55.2771C65.895 55.3958 65.9956 55.4978 66.1132 55.5769C66.2308 55.6561 66.3631 55.7108 66.5023 55.738C66.7838 55.8046 67.0802 55.7588 67.3285 55.6103C67.5767 55.4617 67.7572 55.2222 67.8316 54.9427C67.8633 54.8043 67.8667 54.661 67.8416 54.5213C67.8164 54.3817 67.7632 54.2486 67.6852 54.13C67.6077 54.0113 67.5072 53.9094 67.3897 53.8302C67.2722 53.751 67.14 53.6961 67.0009 53.6688C66.7192 53.6015 66.4223 53.6471 66.1737 53.7958C65.9252 53.9446 65.7447 54.1847 65.6709 54.4648ZM56.8391 52.514C56.8075 52.6522 56.8041 52.7954 56.8293 52.935C56.8544 53.0745 56.9076 53.2075 56.9854 53.326C57.0629 53.4447 57.1634 53.5466 57.281 53.6258C57.3985 53.705 57.5307 53.7599 57.6698 53.7871C57.9515 53.8531 58.2479 53.8071 58.4963 53.6587C58.7447 53.5103 58.9257 53.2712 59.0011 52.9918C59.0319 52.8535 59.0346 52.7105 59.0093 52.5711C58.984 52.4317 58.931 52.2988 58.8535 52.1802C58.7761 52.0615 58.6757 51.9596 58.5582 51.8804C58.4408 51.8011 58.3087 51.7461 58.1697 51.7187C57.888 51.6517 57.5913 51.6973 57.3427 51.8458C57.0942 51.9944 56.9135 52.2341 56.8391 52.514ZM48.0086 50.5632C47.9775 50.7015 47.9744 50.8446 47.9996 50.9842C48.0248 51.1237 48.0777 51.2568 48.1552 51.3755C48.2327 51.4942 48.3333 51.5961 48.4509 51.6753C48.5685 51.7544 48.7008 51.8092 48.84 51.8363C49.1215 51.9026 49.4177 51.8566 49.6659 51.7082C49.914 51.5597 50.0946 51.3204 50.1693 51.041C50.2007 50.9027 50.2034 50.759 50.178 50.62C50.1409 50.4095 50.0407 50.2152 49.8907 50.063C49.7406 49.9108 49.5478 49.8079 49.3379 49.7679C49.0563 49.7 48.7593 49.7453 48.5108 49.894C48.2622 50.0427 48.0819 50.2829 48.0086 50.5632ZM99.2486 69.5073C99.2024 69.7155 99.2199 69.9327 99.2988 70.1308C99.3777 70.3289 99.5144 70.4987 99.691 70.6181C99.8087 70.6969 99.9403 70.7517 100.079 70.7785C100.361 70.8457 100.658 70.8001 100.906 70.6515C101.155 70.5029 101.335 70.2631 101.409 69.9832C101.456 69.7748 101.439 69.5573 101.36 69.359C101.28 69.1607 101.143 68.9908 100.966 68.8718C100.849 68.7923 100.717 68.7373 100.578 68.71C100.296 68.6438 99.9997 68.6901 99.7514 68.8389C99.5032 68.9878 99.3228 69.2276 99.2486 69.5073ZM90.4161 67.5545C90.3855 67.6929 90.3828 67.8361 90.4083 67.9756C90.4338 68.115 90.487 68.248 90.5646 68.3666C90.6423 68.4852 90.7429 68.5871 90.8605 68.6663C90.9781 68.7455 91.1104 68.8003 91.2495 68.8276C91.531 68.8943 91.8274 68.8485 92.0756 68.7C92.3239 68.5514 92.5044 68.3119 92.5788 68.0324C92.6099 67.894 92.613 67.7509 92.5878 67.6113C92.5626 67.4718 92.5097 67.3388 92.4322 67.2201C92.3547 67.1013 92.2541 66.9994 92.1365 66.9202C92.0189 66.8411 91.8866 66.7863 91.7474 66.7592C91.4657 66.6934 91.1694 66.7395 90.9211 66.8879C90.6727 67.0363 90.4917 67.2752 90.4161 67.5545ZM81.5856 65.6043C81.5545 65.7427 81.5514 65.8858 81.5766 66.0254C81.6018 66.1649 81.6547 66.2979 81.7322 66.4166C81.8097 66.5354 81.9103 66.6373 82.0279 66.7165C82.1455 66.7956 82.2778 66.8504 82.417 66.8775C82.6987 66.9433 82.995 66.8972 83.2433 66.7488C83.4917 66.6005 83.6727 66.3615 83.7483 66.0822C83.7791 65.9439 83.782 65.8007 83.7567 65.6613C83.7314 65.5218 83.6785 65.3888 83.601 65.2701C83.5235 65.1514 83.4231 65.0494 83.3056 64.9701C83.1881 64.8908 83.0559 64.8358 82.9169 64.8084C82.6351 64.7424 82.3387 64.7886 82.0902 64.9371C81.8418 65.0856 81.6609 65.3249 81.5856 65.6043ZM72.7551 63.6535C72.7242 63.7918 72.7212 63.9349 72.7463 64.0743C72.7714 64.2138 72.8242 64.3468 72.9015 64.4655C72.9792 64.5842 73.0798 64.6861 73.1974 64.7653C73.3151 64.8445 73.4473 64.8993 73.5865 64.9267C73.868 64.9926 74.164 64.9465 74.4121 64.7981C74.6602 64.6497 74.8408 64.4106 74.9158 64.1314C74.9468 63.993 74.9498 63.8498 74.9247 63.7102C74.8996 63.5707 74.8468 63.4376 74.7694 63.3187C74.6918 63.2001 74.5912 63.0982 74.4735 63.0191C74.3558 62.9401 74.2235 62.8853 74.0844 62.8582C73.8029 62.7911 73.5062 62.8366 73.2578 62.9852C73.0094 63.1338 72.829 63.3737 72.7551 63.6535ZM63.9233 61.7027C63.8767 61.9109 63.8942 62.1284 63.9732 62.3265C64.0523 62.5247 64.1893 62.6944 64.3664 62.8134C64.4833 62.893 64.6156 62.9478 64.7547 62.9758C65.0364 63.0417 65.3326 62.9955 65.581 62.8472C65.8293 62.6988 66.0104 62.4598 66.0859 62.1805C66.1167 62.0423 66.1195 61.8992 66.0941 61.7598C66.0688 61.6204 66.0158 61.4875 65.9384 61.3689C65.8609 61.2503 65.7605 61.1483 65.6431 61.0691C65.5256 60.9898 65.3935 60.9349 65.2546 60.9074C64.9728 60.8403 64.6759 60.886 64.4273 61.0345C64.1786 61.1831 63.9978 61.4228 63.9233 61.7027ZM55.0928 59.7519C55.0612 59.8902 55.058 60.0334 55.0833 60.1729C55.1086 60.3125 55.1618 60.4455 55.2398 60.5639C55.3171 60.6826 55.4175 60.7845 55.5349 60.8637C55.6524 60.9429 55.7845 60.9978 55.9235 61.025C56.2051 61.0915 56.5015 61.0456 56.7498 60.8972C56.9981 60.7487 57.1788 60.5093 57.2534 60.2297C57.2998 60.0214 57.2825 59.8039 57.2036 59.6055C57.1247 59.4072 56.9879 59.2372 56.811 59.1176C56.6936 59.0382 56.5613 58.9834 56.4221 58.9566C56.1405 58.8896 55.844 58.9352 55.5956 59.0838C55.3473 59.2324 55.1668 59.4721 55.0928 59.7519ZM46.2603 57.8011C46.229 57.9395 46.2258 58.0828 46.251 58.2225C46.2762 58.3621 46.3292 58.4953 46.4069 58.6141C46.4845 58.7329 46.5853 58.8348 46.7032 58.9138C46.8211 58.9929 46.9536 59.0474 47.093 59.0742C47.3746 59.1405 47.6709 59.0946 47.9192 58.9461C48.1674 58.7976 48.3481 58.5583 48.423 58.2789C48.4694 58.0705 48.452 57.853 48.3731 57.6547C48.2942 57.4564 48.1574 57.2864 47.9805 57.1668C47.8628 57.0879 47.7306 57.0332 47.5916 57.0058C47.3098 56.9394 47.0133 56.9853 46.7648 57.1338C46.5163 57.2822 46.3354 57.5215 46.2603 57.8011ZM106.333 78.696C106.302 78.8343 106.3 78.9772 106.325 79.1164C106.35 79.2556 106.403 79.3884 106.481 79.5069C106.558 79.6253 106.659 79.7271 106.776 79.8063C106.893 79.8855 107.025 79.9404 107.164 79.9679C107.446 80.0351 107.743 79.9896 107.992 79.841C108.24 79.6924 108.421 79.4526 108.495 79.1726C108.526 79.0342 108.529 78.8911 108.504 78.7516C108.479 78.6122 108.426 78.4792 108.348 78.3605C108.271 78.2418 108.17 78.1398 108.053 78.0605C107.935 77.9812 107.803 77.9262 107.664 77.8988C107.382 77.8328 107.086 77.8792 106.837 78.028C106.589 78.1768 106.408 78.4163 106.333 78.696ZM97.503 76.7439C97.4713 76.8821 97.468 77.0253 97.4931 77.1648C97.5183 77.3044 97.5714 77.4374 97.6493 77.5559C97.7268 77.6746 97.8273 77.7765 97.9448 77.8557C98.0624 77.9349 98.1946 77.9898 98.3337 78.017C98.6152 78.0832 98.9115 78.0372 99.1597 77.8887C99.4079 77.7403 99.5887 77.5011 99.6636 77.2217C99.6944 77.0834 99.6972 76.9404 99.6718 76.801C99.6465 76.6616 99.5935 76.5287 99.5161 76.4101C99.4386 76.2915 99.3382 76.1895 99.2208 76.1103C99.1033 76.031 98.9712 75.976 98.8322 75.9486C98.5508 75.8816 98.2543 75.9274 98.0062 76.0762C97.7576 76.2246 97.5771 76.4639 97.503 76.7439ZM88.6698 74.7931C88.6231 75.0014 88.6404 75.219 88.7195 75.4173C88.7986 75.6156 88.9357 75.7854 89.1129 75.9045C89.2298 75.984 89.3622 76.0388 89.5012 76.0662C89.783 76.1333 90.0798 76.0877 90.3284 75.9391C90.5771 75.7906 90.7579 75.5508 90.8325 75.2709C90.8632 75.1326 90.866 74.9896 90.8407 74.8502C90.8153 74.7108 90.7624 74.5779 90.6849 74.4592C90.6074 74.3406 90.507 74.2387 90.3896 74.1594C90.2722 74.0802 90.1401 74.0252 90.0011 73.9978C89.7193 73.9311 89.4226 73.9768 89.1741 74.1253C88.9255 74.2738 88.7446 74.5134 88.6698 74.7931ZM79.84 72.8422C79.809 72.9805 79.806 73.1236 79.8312 73.263C79.8563 73.4025 79.909 73.5355 79.9863 73.6542C80.0638 73.7729 80.1643 73.8749 80.2818 73.9541C80.3994 74.0333 80.5316 74.0881 80.6707 74.1154C80.9523 74.1829 81.2492 74.1375 81.4978 73.9889C81.7464 73.8402 81.9269 73.6002 82.0006 73.3201C82.047 73.1117 82.0297 72.8942 81.9507 72.6959C81.8718 72.4976 81.7351 72.3276 81.5582 72.208C81.4408 72.1286 81.3085 72.0738 81.1692 72.0469C80.8878 71.98 80.5913 72.0258 80.3432 72.1746C80.0946 72.323 79.9141 72.5622 79.84 72.8422ZM71.0074 70.8847C70.9609 71.093 70.9783 71.3104 71.0574 71.5086C71.1365 71.7067 71.2735 71.8764 71.4505 71.9955C71.5675 72.075 71.6998 72.1298 71.8388 72.1579C72.1206 72.2244 72.4172 72.1786 72.6657 72.0301C72.9142 71.8816 73.0952 71.6422 73.1701 71.3626C73.2165 71.1542 73.1991 70.9367 73.1202 70.7384C73.0413 70.54 72.9046 70.37 72.7277 70.2505C72.6103 70.1711 72.478 70.1163 72.3387 70.0894C72.0569 70.0222 71.76 70.0677 71.5113 70.2163C71.2626 70.3649 71.0818 70.6047 71.0074 70.8847ZM62.1776 68.9406C62.1461 69.0789 62.1429 69.2221 62.1681 69.3616C62.1934 69.5012 62.2466 69.6342 62.3246 69.7526C62.4021 69.8712 62.5025 69.9731 62.6199 70.0523C62.7373 70.1315 62.8694 70.1864 63.0083 70.2137C63.2901 70.2799 63.5865 70.2339 63.8349 70.0855C64.0834 69.9371 64.2644 69.6979 64.3396 69.4184C64.3705 69.2802 64.3733 69.1372 64.3479 68.9978C64.3226 68.8585 64.2695 68.7256 64.1919 68.6071C64.1144 68.4887 64.0142 68.3867 63.8972 68.307C63.7795 68.2279 63.6473 68.173 63.5082 68.1453C63.2266 68.0786 62.93 68.1244 62.6815 68.2729C62.4331 68.4214 62.2523 68.6609 62.1776 68.9406ZM53.3465 66.9898C53.3157 67.1281 53.3129 67.2711 53.3383 67.4105C53.3636 67.5499 53.4166 67.6828 53.494 67.8014C53.5715 67.9201 53.6719 68.022 53.7893 68.1013C53.9068 68.1805 54.0388 68.2355 54.1778 68.2629C54.4593 68.3289 54.7554 68.2827 55.0035 68.1343C55.2515 67.9859 55.4321 67.7468 55.5071 67.4676C55.5388 67.3294 55.5421 67.1862 55.5169 67.0467C55.4918 66.9071 55.4387 66.7741 55.3608 66.6556C55.2833 66.5369 55.1828 66.435 55.0652 66.3558C54.9477 66.2766 54.8155 66.2218 54.6764 66.1945C54.3948 66.1273 54.0981 66.1728 53.8496 66.3214C53.6011 66.47 53.4205 66.7099 53.3465 66.9898ZM44.5146 65.039C44.4835 65.1771 44.4804 65.3202 44.5056 65.4596C44.5307 65.599 44.5836 65.7319 44.6611 65.8505C44.7385 65.9691 44.839 66.0709 44.9565 66.15C45.0741 66.2291 45.2063 66.2837 45.3453 66.3108C45.6271 66.3773 45.9237 66.3315 46.1722 66.183C46.4207 66.0345 46.6017 65.7951 46.6766 65.5155C46.7074 65.3772 46.7102 65.2341 46.6848 65.0947C46.6595 64.9553 46.6065 64.8224 46.5291 64.7038C46.4516 64.5852 46.3512 64.4832 46.2338 64.404C46.1163 64.3247 45.9842 64.2698 45.8452 64.2423C45.5634 64.1755 45.2666 64.2214 45.018 64.3702C44.7695 64.519 44.5889 64.7589 44.5146 65.039ZM86.9943 81.5277C86.9634 81.666 86.9604 81.8091 86.9855 81.9485C87.0106 82.0879 87.0634 82.221 87.1407 82.3397C87.2182 82.4585 87.3188 82.5605 87.4365 82.6397C87.5541 82.7189 87.6865 82.7737 87.8257 82.8009C88.1074 82.8675 88.4039 82.8218 88.6524 82.6733C88.9009 82.5248 89.0816 82.2852 89.1563 82.0056C89.1871 81.8673 89.1899 81.7243 89.1646 81.585C89.1393 81.4456 89.0864 81.3127 89.009 81.1941C88.9316 81.0755 88.8313 80.9735 88.7139 80.8943C88.5966 80.815 88.4645 80.7599 88.3256 80.7324C88.0438 80.6655 87.7471 80.7112 87.4985 80.8597C87.2498 81.0083 87.069 81.2479 86.9943 81.5277ZM78.1638 79.5769C78.1329 79.7152 78.1299 79.8582 78.155 79.9977C78.1801 80.1371 78.2329 80.2701 78.3102 80.3889C78.3877 80.5076 78.4882 80.6095 78.6057 80.6887C78.7232 80.7679 78.8554 80.8228 78.9945 80.85C79.2761 80.9165 79.5725 80.8707 79.8208 80.7222C80.0691 80.5737 80.2498 80.3343 80.3245 80.0547C80.3709 79.8464 80.3535 79.6289 80.2746 79.4305C80.1957 79.2322 80.0589 79.0622 79.882 78.9427C79.7646 78.8632 79.6323 78.8084 79.4931 78.7816C79.2116 78.7146 78.915 78.7603 78.6667 78.9088C78.4183 79.0574 78.2379 79.2971 78.1638 79.5769ZM69.332 77.6261C69.3011 77.7643 69.2983 77.9073 69.3237 78.0467C69.349 78.1861 69.4021 78.3189 69.4797 78.4374C69.5573 78.5559 69.6577 78.6577 69.7751 78.737C69.8925 78.8163 70.0245 78.8714 70.1634 78.8992C70.445 78.9655 70.7414 78.9196 70.9898 78.7712C71.2382 78.6227 71.419 78.3834 71.494 78.1039C71.5256 77.9657 71.5289 77.8225 71.5038 77.683C71.4786 77.5434 71.4255 77.4104 71.3476 77.2919C71.2705 77.1729 71.1701 77.0707 71.0525 76.9915C70.9349 76.9122 70.8025 76.8576 70.6633 76.8308C70.3815 76.7642 70.0849 76.8101 69.8364 76.9585C69.5879 77.107 69.4069 77.3464 69.332 77.6261ZM60.4955 75.6752C60.4647 75.8135 60.4619 75.9566 60.4873 76.096C60.5126 76.2354 60.5656 76.3683 60.643 76.4869C60.7205 76.6055 60.8209 76.7075 60.9383 76.7867C61.0558 76.866 61.1879 76.9209 61.3268 76.9484C61.6084 77.0152 61.9049 76.9695 62.1531 76.8209C62.4014 76.6724 62.5819 76.4328 62.6561 76.1531C62.6878 76.0149 62.6911 75.8717 62.6659 75.7321C62.6408 75.5926 62.5877 75.4596 62.5098 75.3411C62.4326 75.2221 62.3323 75.1199 62.2147 75.0407C62.0971 74.9614 61.9647 74.9068 61.8254 74.88C61.5438 74.8129 61.2472 74.8586 60.9987 75.0071C60.7503 75.1557 60.5697 75.3954 60.4955 75.6752ZM51.6703 73.7244C51.6396 73.8627 51.6368 74.0058 51.6621 74.1452C51.6875 74.2846 51.7404 74.4175 51.8179 74.5361C51.8953 74.6547 51.9957 74.7566 52.1132 74.8359C52.2306 74.9151 52.3627 74.9701 52.5017 74.9976C52.7834 75.0638 53.0798 75.0177 53.328 74.8689C53.5761 74.7202 53.7566 74.4806 53.831 74.2009C53.8624 74.0628 53.8656 73.9197 53.8403 73.7803C53.8151 73.6408 53.7619 73.5079 53.684 73.3896C53.6069 73.2707 53.5066 73.1686 53.3892 73.0895C53.2717 73.0104 53.1394 72.9558 53.0003 72.9291C52.7186 72.8619 52.4219 72.9075 52.1734 73.0561C51.9249 73.2047 51.7444 73.4445 51.6703 73.7244ZM42.8385 71.7736C42.8079 71.9118 42.8053 72.0547 42.8307 72.194C42.8562 72.3332 42.9092 72.4659 42.9866 72.5844C43.0641 72.7029 43.1644 72.8047 43.2817 72.8839C43.3991 72.963 43.531 73.0179 43.6699 73.0454C43.9516 73.1119 44.2482 73.0661 44.4967 72.9176C44.7453 72.7692 44.9262 72.5297 45.0012 72.2501C45.0321 72.1119 45.035 71.9689 45.0097 71.8295C44.9845 71.6901 44.9315 71.5572 44.854 71.4387C44.7765 71.3201 44.676 71.2183 44.5585 71.1392C44.441 71.0601 44.3088 71.0054 44.1698 70.9783C43.888 70.9114 43.5912 70.9571 43.3426 71.1056C43.094 71.2541 42.9131 71.4938 42.8385 71.7736Z" fill="#21DFE3"/>
</g>
<path d="M72.0816 48.2763L75.9919 49.3616L76.6202 47.2932L72.7098 46.2058L72.0816 48.2763Z" fill="#0CC3CD"/>
<path d="M63.6503 112.196C64.2204 108.903 65.3739 105.771 66.2206 102.547C67.4681 97.858 68.5813 93.1342 69.5589 88.3814C69.8884 89.9841 72.2282 93.4092 73.1431 94.6329C75.7475 98.1249 77.9423 100.217 78.5638 104.702C79.1747 109.118 77.6897 113.033 77.1657 117.303C76.6143 121.783 76.5903 126.238 76.1585 130.728C76.0655 131.591 75.9644 132.454 75.8551 133.315L81.8286 134.489C81.8286 134.489 94.8588 104.571 91.0106 93.8937C91.0106 93.8937 87.8307 83.3122 79.99 75.9053L56.373 72.1506C56.373 72.1506 49.8876 91.5967 51.5571 135.198L58.8598 135.459" fill="#2E55E4"/>
<path d="M54.1302 78.3439C54.1302 78.3439 61.2505 77.4911 63.5782 73.2854" stroke="white" stroke-width="0.170421" stroke-miterlimit="10"/>
<path d="M58.8542 77.0881C56.8285 87.3983 57.291 97.796 57.0985 108.222C57.0839 109.065 57.0737 109.908 57.0678 110.751C57.0604 111.594 57.0571 112.458 57.0504 113.311C57.0437 114.164 57.0383 115.031 57.0263 115.89C57.0143 116.749 56.9996 117.617 56.9735 118.481C56.949 119.345 56.9131 120.209 56.8659 121.072C56.8199 121.932 56.7591 122.792 56.6835 123.651C56.6068 124.506 56.513 125.359 56.4021 126.21C56.292 127.057 56.1583 127.901 56.0011 128.74C55.8433 129.574 55.6617 130.404 55.4564 131.228C55.3555 131.624 55.2533 132.069 55.1457 132.464C55.0454 132.829 54.9753 133.147 54.8489 133.51" stroke="white" stroke-width="0.170421" stroke-miterlimit="10"/>
<path d="M70.7195 83.5703L66.7377 100.574M83.4864 63.3243L79.9844 76.2128M61.4158 59.1733L56.1508 72.3626" stroke="black" stroke-width="0.170421" stroke-miterlimit="10"/>
<path d="M89.8804 81.1668C89.8804 81.1668 93.4472 77.8647 99.313 81.1668C99.313 81.1668 95.0806 84.2732 89.8804 81.1668Z" fill="#2E55E4"/>
<path d="M107.202 51.1787C107.202 51.1787 110.273 50.4963 109.313 49.3274C109.313 49.3274 108.64 48.3029 105.52 50.3954" fill="#F4CFD7"/>
<path d="M107.202 51.1787C107.202 51.1787 110.273 50.4963 109.313 49.3274C109.313 49.3274 108.64 48.3029 105.52 50.3954" stroke="black" stroke-width="0.170421" stroke-miterlimit="10"/>
<path d="M44.7244 63.3233C44.7244 63.3233 47.4258 67.5324 54.2814 66.6536C54.2814 66.6536 49.9006 62.6664 44.7244 63.3233Z" fill="#2E55E4"/>
<path d="M89.8806 83.5703C89.8806 83.5703 96.2925 87.1712 101.728 83.5703M41.0399 64.2559C41.0399 64.2559 45.7575 69.1506 51.9969 68.7917" stroke="black" stroke-width="0.170421" stroke-miterlimit="10"/>
<path d="M51.4832 133.25L59.1087 133.766M76.1568 130.721L82.8313 132.066M55.2986 38.2861C55.2986 38.2861 55.6568 39.8086 59.3279 40.116" stroke="white" stroke-width="0.170421" stroke-miterlimit="10"/>
<g opacity="0.44">
<path opacity="0.44" d="M51.6924 42.1711H30.5688L28.1114 56.8895C27.7906 60.0894 30.3623 59.7706 30.3623 59.7706H48.846C46.3746 58.8096 51.6924 42.1658 51.6924 42.1658M49.7162 77.7985H49.4722C49.5531 77.8079 49.6353 77.8079 49.7162 77.7985Z" fill="#6EA3E6"/>
<path opacity="0.44" d="M48.8455 59.776H31.6316L28.8313 74.3307C28.8313 74.3307 27.6363 78.0853 31.0702 77.7712L49.4717 77.7899C48.9698 77.7371 47.9359 77.3221 48.675 74.6495L50.8357 62.6485C50.8357 62.6485 51.6544 60.0881 48.8455 59.7673" fill="#6EA3E6"/>
<path opacity="0.44" d="M50.8357 80.6863C50.8357 80.6863 51.6544 78.126 48.8455 77.8052L31.6316 77.8139L28.8313 92.3685C28.8313 92.3685 27.6363 96.1231 31.0702 95.809H31.5821L28.8313 110.104C28.8313 110.104 27.6363 113.859 31.0702 113.547L49.4717 113.566C48.9698 113.513 47.9359 113.098 48.675 110.425L50.8357 98.4221C50.8357 98.4221 51.6544 95.8618 48.8455 95.541H48.8281C48.4511 95.1841 48.1985 94.3975 48.675 92.6893L50.8357 80.6863ZM49.7163 113.566H49.4717C49.5525 113.575 49.6354 113.575 49.7163 113.566Z" fill="#6EA3E6"/>
</g>
<path d="M48.5342 38.7866H27.4107L24.9526 53.5097C24.6338 56.7116 27.2055 56.3908 27.2055 56.3908H45.6872C43.2178 55.4318 48.5342 38.7866 48.5342 38.7866ZM46.558 74.4154H46.3141C46.3949 74.4241 46.4771 74.4241 46.558 74.4154Z" fill="#E8F3FD"/>
<path d="M45.6872 56.3909L28.474 56.3996L25.6804 70.9542C25.6804 70.9542 24.4854 74.7088 27.9206 74.3947L46.3208 74.4134C45.8188 74.3626 44.785 73.9476 45.5255 71.275L47.6795 59.2787C47.6795 59.2787 48.4981 56.7183 45.6872 56.3975" fill="#E8F3FD"/>
<path d="M47.6793 77.3015C47.6793 77.3015 48.498 74.7418 45.6871 74.4224H28.4738L25.6803 88.9857C25.6803 88.9857 24.4853 92.7403 27.9205 92.4262H28.4324L25.6796 106.725C25.6796 106.725 24.4853 110.48 27.9205 110.165L46.3206 110.185C45.8187 110.133 44.7848 109.717 45.5253 107.044L47.686 95.0427C47.686 95.0427 48.5054 92.4823 45.6944 92.1616H45.679C45.3014 91.8033 45.0475 91.0181 45.5253 89.3085L47.6793 77.3015Z" fill="#E8F3FD"/>
<path d="M46.5578 110.181H46.3139C46.3948 110.191 46.477 110.191 46.5578 110.181Z" fill="#E8F3FD"/>
<mask id="mask3_1_2647" style="mask-type:luminance" maskUnits="userSpaceOnUse" x="172" y="81" width="20" height="46">
<path d="M172.426 81.6467H191.139V126.424H172.426V81.6467Z" fill="white"/>
</mask>
<g mask="url(#mask3_1_2647)">
<path fill-rule="evenodd" clip-rule="evenodd" d="M172.118 99.4526C175.245 102.467 170.955 103.858 170.955 103.858L172.224 112.33C177.445 111.169 176.981 107.339 176.981 107.339C176.865 106.411 178.257 105.25 178.257 105.25C181.971 103.156 179.976 99.9138 179.976 99.9138C179.117 98.5156 180.22 96.635 181.306 95.7541C181.713 95.4233 182.287 95.2349 182.865 95.0444C183.826 94.7283 184.802 94.4075 185.06 93.421C185.204 92.8764 185.017 92.3384 184.828 91.793C184.726 91.5016 184.624 91.2082 184.572 90.9108C184.333 89.5354 185.245 88.3184 186.381 87.6575C186.617 87.5211 186.867 87.3982 187.117 87.2745C187.826 86.9263 188.537 86.5768 188.919 85.9098C189.436 85.0076 189.11 83.7953 188.383 83.0494C187.656 82.3036 186.617 81.9473 185.593 81.7595C183.762 81.4214 181.792 81.5617 180.162 82.4606C177.831 83.7491 176.534 86.3897 176.057 89.0115C175.702 90.9703 175.448 92.3718 173.693 93.4725C173.49 93.6002 173.278 93.7225 173.066 93.8454C171.988 94.4683 170.894 95.1005 170.764 96.4953C170.659 97.5893 171.356 98.7175 172.118 99.4526ZM178.786 112.523C178.117 112.717 169.553 119.544 169.553 119.544L172.212 126.558C174.497 126.115 180.018 122.887 180.812 120.535C181.063 119.792 180.959 118.887 180.856 117.994C180.722 116.83 180.59 115.689 181.255 114.965C181.795 114.374 182.655 114.033 183.394 113.787C183.778 113.658 185.993 112.934 186.353 113.275C184.522 111.5 187.423 112.369 187.423 112.369C188.284 111.929 188.409 110.113 188.505 108.724C188.543 108.174 188.576 107.69 188.649 107.386C188.811 106.711 190.521 102.064 191.306 102.226C187.903 101.526 184.553 102.852 182.09 105.197C181.04 106.196 180.448 107.444 179.981 108.797C179.937 108.93 179.866 109.229 179.777 109.604C179.518 110.698 179.107 112.431 178.786 112.523Z" fill="#C7E5FA"/>
<mask id="mask4_1_2647" style="mask-type:alpha" maskUnits="userSpaceOnUse" x="169" y="81" width="23" height="46">
<path fill-rule="evenodd" clip-rule="evenodd" d="M172.118 99.4526C175.245 102.467 170.955 103.858 170.955 103.858L172.224 112.33C177.445 111.169 176.981 107.339 176.981 107.339C176.865 106.411 178.257 105.25 178.257 105.25C181.971 103.156 179.976 99.9138 179.976 99.9138C179.117 98.5156 180.22 96.635 181.306 95.7541C181.713 95.4233 182.287 95.2349 182.865 95.0444C183.826 94.7283 184.802 94.4075 185.06 93.421C185.204 92.8764 185.017 92.3384 184.828 91.793C184.726 91.5016 184.624 91.2082 184.572 90.9108C184.333 89.5354 185.245 88.3184 186.381 87.6575C186.617 87.5211 186.867 87.3982 187.117 87.2745C187.826 86.9263 188.537 86.5768 188.919 85.9098C189.436 85.0076 189.11 83.7953 188.383 83.0494C187.656 82.3036 186.617 81.9473 185.593 81.7595C183.762 81.4214 181.792 81.5617 180.162 82.4606C177.831 83.7491 176.534 86.3897 176.057 89.0115C175.702 90.9703 175.448 92.3718 173.693 93.4725C173.49 93.6002 173.278 93.7225 173.066 93.8454C171.988 94.4683 170.894 95.1005 170.764 96.4953C170.659 97.5893 171.356 98.7175 172.118 99.4526ZM178.786 112.523C178.117 112.717 169.553 119.544 169.553 119.544L172.212 126.558C174.497 126.115 180.018 122.887 180.812 120.535C181.063 119.792 180.959 118.887 180.856 117.994C180.722 116.83 180.59 115.689 181.255 114.965C181.795 114.374 182.655 114.033 183.394 113.787C183.778 113.658 185.993 112.934 186.353 113.275C184.522 111.5 187.423 112.369 187.423 112.369C188.284 111.929 188.409 110.113 188.505 108.724C188.543 108.174 188.576 107.69 188.649 107.386C188.811 106.711 190.521 102.064 191.306 102.226C187.903 101.526 184.553 102.852 182.09 105.197C181.04 106.196 180.448 107.444 179.981 108.797C179.937 108.93 179.866 109.229 179.777 109.604C179.518 110.698 179.107 112.431 178.786 112.523Z" fill="#C7E5FA" stroke="white" stroke-width="0.128317" stroke-miterlimit="10"/>
</mask>
<g mask="url(#mask4_1_2647)">
<path d="M190.374 81.5903C189.628 83.0413 188.376 83.7851 186.923 84.3979C186.009 84.7836 184.923 85.0582 184.163 85.7292C183.066 86.695 183.389 87.8933 182.969 89.1838C182.735 89.9036 182.304 90.5846 181.651 90.9702C179.023 92.5267 177.432 93.8954 177.043 97.1147C176.497 101.653 175.613 106.787 170.75 108.732M191.308 102.226C189.769 102.786 188.356 103.648 187.154 104.762C185.953 105.876 184.986 107.218 184.311 108.711C183.708 110.077 183.69 111.652 182.594 112.736C181.498 113.82 179.844 114.262 178.509 115.03C176.057 116.443 172.551 121.039 172.038 123.734" stroke="white" stroke-width="0.128317" stroke-miterlimit="10"/>
</g>
</g>
<path d="M32.6184 119.82C32.5367 120.055 32.3874 120.261 32.1892 120.412C31.991 120.562 31.7527 120.651 31.5043 120.666C31.3186 120.677 31.1328 120.647 30.9602 120.577C30.7877 120.508 30.6326 120.401 30.5061 120.265C30.3795 120.129 30.2847 119.966 30.2284 119.789C30.1721 119.611 30.1557 119.424 30.1803 119.24C30.2052 119.055 30.2707 118.878 30.3722 118.722C30.4736 118.566 30.6084 118.434 30.7669 118.337C30.9254 118.239 31.1036 118.177 31.2886 118.157C31.4737 118.136 31.661 118.157 31.8371 118.218C31.994 118.271 32.1388 118.355 32.2632 118.465C32.3875 118.574 32.489 118.707 32.5617 118.856C32.6344 119.005 32.6768 119.167 32.6867 119.333C32.6965 119.498 32.6729 119.664 32.6184 119.82ZM23.7144 99.7988C23.6745 99.9172 23.6002 100.021 23.501 100.097C23.4019 100.173 23.2823 100.218 23.1576 100.225C23.033 100.233 22.9088 100.203 22.8011 100.14C22.6934 100.077 22.6069 99.9829 22.5528 99.8703C22.4978 99.7585 22.4774 99.6328 22.494 99.5092C22.5106 99.3856 22.5635 99.2698 22.6461 99.1764C22.7287 99.083 22.8372 99.0163 22.9578 98.9847C23.0784 98.9531 23.2056 98.958 23.3234 98.9989C23.4018 99.0254 23.4742 99.0672 23.5363 99.1219C23.5985 99.1766 23.6492 99.243 23.6856 99.3174C23.7219 99.3917 23.7432 99.4726 23.7481 99.5552C23.7531 99.6379 23.7416 99.7207 23.7144 99.7988ZM18.2615 109.363C18.2065 109.524 18.1164 109.67 17.9978 109.792C17.8792 109.914 17.7351 110.008 17.5758 110.067C17.4165 110.126 17.246 110.149 17.0767 110.135C16.9074 110.12 16.7435 110.068 16.5968 109.982C16.4002 109.868 16.2421 109.698 16.1425 109.494C16.0429 109.29 16.0063 109.06 16.0374 108.835C16.0679 108.61 16.1645 108.399 16.3152 108.229C16.4658 108.059 16.6636 107.937 16.8835 107.879C17.0844 107.827 17.2957 107.83 17.495 107.889C17.6943 107.947 17.8741 108.058 18.0154 108.21C18.1567 108.362 18.2542 108.55 18.2975 108.753C18.3408 108.956 18.3284 109.167 18.2615 109.363ZM25.5275 112.446L23.0922 112.275L24.1621 114.468L25.5275 112.446ZM44.1061 118.399L43.935 120.833L46.1284 119.762L44.1061 118.399Z" fill="#2E55E4"/>
<path d="M24.8837 43.5926C25.0374 42.6609 25.1898 41.7293 25.3409 40.797C25.4197 40.3125 25.4825 39.8259 25.5594 39.3414C25.6282 38.911 25.657 38.387 25.8722 38.0014C26.2237 37.3665 27.005 37.2542 27.6659 37.2676C28.1284 37.2763 28.5922 37.2676 29.0547 37.2676H33.2912" stroke="black" stroke-width="0.170421" stroke-miterlimit="10"/>
<path d="M88.5033 95.2664C88.5033 95.2664 90.8518 97.0327 89.8787 103.31" stroke="white" stroke-width="0.170421" stroke-miterlimit="10"/>
<path d="M85.7762 47.7844C85.7762 47.7844 90.0929 49.4365 90.9223 53.5874" stroke="black" stroke-width="0.170421" stroke-miterlimit="10"/>
<path d="M64.5914 47.223C64.5914 47.223 60.6664 46.4344 59.4186 49.0763" stroke="white" stroke-width="0.170421" stroke-miterlimit="10"/>
<path d="M47.5872 38.2868C47.5872 38.2868 45.3156 37.0919 45.2133 38.3309C45.2133 38.3309 45.502 39.4764 48.6271 39.8126" fill="#F4CFD7"/>
<path d="M47.5872 38.2868C47.5872 38.2868 45.3156 37.0919 45.2133 38.3309C45.2133 38.3309 45.502 39.4764 48.6271 39.8126" stroke="black" stroke-width="0.170421" stroke-miterlimit="10"/>
<path d="M48.0442 38.2629L47.9332 39.6282C47.9332 39.6282 48.5033 39.7632 48.6604 39.6951C48.6604 39.6951 48.6978 38.5088 48.6944 38.3397C48.6911 38.1706 48.0442 38.2609 48.0442 38.2609" fill="#F4CFD7"/>
<path d="M142.29 66.1931H145.066" stroke="white" stroke-width="0.170421" stroke-miterlimit="10"/>
<path d="M29.1423 40.8499H44.2036M28.8229 42.3282H43.8861M28.5048 43.8045H44.6848M28.186 45.2821H39.6791M27.8665 46.7605H37.2551M27.5497 48.2381H39.3569M29.3796 60.5606H44.4408M29.0595 62.0389H44.1234M28.742 63.5166H44.922M28.4239 64.9949H39.9163M28.1044 66.4712H37.493M27.787 67.9489H39.5942M29.8568 77.5493H44.9187M29.538 79.0269H44.5999M29.2185 80.5052H45.3999M28.9011 81.9829H40.3935M28.5823 83.4599H37.9708M28.2648 84.9375H40.07M29.6162 94.8313H44.6774M29.2967 96.3076H44.36M28.9799 97.7853H45.1593M28.6605 99.2636H40.1536M28.3417 100.741H37.7302M28.0229 102.22H39.8301" stroke="#6BC0E8" stroke-width="0.170421" stroke-miterlimit="10"/>
<path d="M104.62 60.6821C104.62 60.6821 103.243 70.6214 101.036 73.286" stroke="white" stroke-width="0.170421" stroke-miterlimit="10"/>
<path d="M128.787 68.1233H156.363L154.169 76.9497L155.632 77.3253L158.265 66.6282H155.266V63.4109H153.803V59.2974H133.688L132.518 56.0808H123.155V85.4033H139.321V83.9083H124.837L128.787 68.1233ZM131.493 57.5725L132.664 60.7891H152.267V63.3321H126.227V72.0844L124.617 78.5938V57.5725H131.493Z" fill="#2E55E4" stroke="#241614" stroke-width="0.170421" stroke-miterlimit="10"/>
<path d="M148.611 87.1984L152.78 82.9352H150.585L150.951 75.6038L148.611 76.8014L146.343 75.6038L146.708 82.9352H144.515L148.611 87.1984Z" fill="#0CC3CD" stroke="#241614" stroke-width="0.128317" stroke-miterlimit="10"/>
<path d="M154.828 88.8438H142.467V87.6475H141.002V90.3408H156.291V87.6475H154.828V88.8438Z" fill="#FA6765" stroke="#241614" stroke-width="0.170421" stroke-miterlimit="10"/>
<path d="M142.038 66.6704H130.963M142.739 66.6704H144.153" stroke="white" stroke-width="0.170421" stroke-miterlimit="10" stroke-linecap="round"/>
</svg>
