<svg width="236" height="140" viewBox="0 0 236 140" fill="none" xmlns="http://www.w3.org/2000/svg">
<path d="M42.9265 139.734C38.2334 139.724 40.165 125.443 40.5505 122.906C41.9622 113.681 47.054 106.949 54.0127 100.845C63.2668 92.7303 72.4708 85.9737 79.5574 75.7702C86.4246 65.8829 92.3427 54.5154 103.488 48.7494C133.7 33.104 160.892 73.7005 183.782 87.2703C194.234 93.4664 200.017 103.116 201.544 115.145C202.082 119.383 200.695 139.724 193.754 139.724L42.9265 139.734Z" fill="#ECF4FD"/>
<mask id="mask0_1_2731" style="mask-type:luminance" maskUnits="userSpaceOnUse" x="198" y="112" width="39" height="28">
<path d="M198.966 112.817H236V139.65H198.966V112.817Z" fill="white"/>
</mask>
<g mask="url(#mask0_1_2731)">
<path fill-rule="evenodd" clip-rule="evenodd" d="M204.911 131.479C208.108 134.557 198.961 139.981 198.961 139.981L205.037 144.621C210.377 143.436 209.901 139.525 209.901 139.525C209.783 138.578 211.207 137.391 211.207 137.391C215 135.259 212.964 131.94 212.964 131.94C212.084 130.513 213.218 128.584 214.321 127.694C214.735 127.36 215.317 127.17 215.905 126.978C216.888 126.656 217.888 126.328 218.153 125.32C218.294 124.764 218.102 124.214 217.908 123.658C217.803 123.359 217.699 123.059 217.644 122.756C217.395 121.354 218.333 120.112 219.496 119.434C219.736 119.295 219.991 119.17 220.247 119.045C220.972 118.69 221.698 118.334 222.09 117.651C222.619 116.727 222.288 115.49 221.543 114.728C220.798 113.967 219.736 113.605 218.689 113.411C216.817 113.065 214.804 113.208 213.136 114.128C210.752 115.444 209.426 118.14 208.939 120.817C208.576 122.819 208.316 124.248 206.523 125.372C206.315 125.502 206.1 125.626 205.884 125.751C204.783 126.388 203.667 127.034 203.525 128.458C203.42 129.575 204.133 130.728 204.911 131.479ZM223.197 131.367C219.019 131.841 210.655 141.474 210.655 141.474L216.48 145.692C218.824 145.237 224.462 141.943 225.274 139.542C225.53 138.783 225.424 137.858 225.318 136.947C225.182 135.758 225.047 134.593 225.727 133.852C226.278 133.25 227.158 132.902 227.914 132.651C228.306 132.521 230.573 131.775 230.939 132.131C229.069 130.319 232.032 131.206 232.032 131.206C232.912 130.759 233.041 128.904 233.14 127.485C233.178 126.924 233.212 126.431 233.286 126.121C233.456 125.429 235.198 120.683 236.002 120.852C232.522 120.139 229.101 121.494 226.583 123.887C225.509 124.907 224.902 126.182 224.425 127.563C224.375 127.707 224.296 128.047 224.197 128.469C223.932 129.605 223.529 131.33 223.197 131.367Z" fill="#CDE5F9"/>
<mask id="mask1_1_2731" style="mask-type:alpha" maskUnits="userSpaceOnUse" x="198" y="113" width="39" height="33">
<path fill-rule="evenodd" clip-rule="evenodd" d="M204.911 131.479C208.108 134.557 198.961 139.981 198.961 139.981L205.037 144.621C210.377 143.436 209.901 139.525 209.901 139.525C209.783 138.578 211.207 137.391 211.207 137.391C215 135.259 212.964 131.94 212.964 131.94C212.084 130.513 213.218 128.584 214.321 127.694C214.735 127.36 215.317 127.17 215.905 126.978C216.888 126.656 217.888 126.328 218.153 125.32C218.294 124.764 218.102 124.214 217.908 123.658C217.803 123.359 217.699 123.059 217.644 122.756C217.395 121.354 218.333 120.112 219.496 119.434C219.736 119.295 219.991 119.17 220.247 119.045C220.972 118.69 221.698 118.334 222.09 117.651C222.619 116.727 222.288 115.49 221.543 114.728C220.798 113.967 219.736 113.605 218.689 113.411C216.817 113.065 214.804 113.208 213.136 114.128C210.752 115.444 209.426 118.14 208.939 120.817C208.576 122.819 208.316 124.248 206.523 125.372C206.315 125.502 206.1 125.626 205.884 125.751C204.783 126.388 203.667 127.034 203.525 128.458C203.42 129.575 204.133 130.728 204.911 131.479ZM223.197 131.367C219.019 131.841 210.655 141.474 210.655 141.474L216.48 145.692C218.824 145.237 224.462 141.943 225.274 139.542C225.53 138.783 225.424 137.858 225.318 136.947C225.182 135.758 225.047 134.593 225.727 133.852C226.278 133.25 227.158 132.902 227.914 132.651C228.306 132.521 230.573 131.775 230.939 132.131C229.069 130.319 232.032 131.206 232.032 131.206C232.912 130.759 233.041 128.904 233.14 127.485C233.178 126.924 233.212 126.431 233.286 126.121C233.456 125.429 235.198 120.683 236.002 120.852C232.522 120.139 229.101 121.494 226.583 123.887C225.509 124.907 224.902 126.182 224.425 127.563C224.375 127.707 224.296 128.047 224.197 128.469C223.932 129.605 223.529 131.33 223.197 131.367Z" fill="#CDE5F9" stroke="white" stroke-width="0.126909" stroke-miterlimit="10"/>
</mask>
<g mask="url(#mask1_1_2731)">
<path d="M223.581 113.239C222.817 114.72 221.544 115.48 220.051 116.105C219.117 116.5 218.015 116.783 217.229 117.461C216.107 118.449 216.437 119.665 216.008 120.99C215.766 121.724 215.329 122.42 214.65 122.814C211.963 124.404 210.336 125.801 209.939 129.086C209.381 133.72 207.091 140.416 202.12 142.402M236.002 120.853C234.426 121.424 232.98 122.306 231.751 123.445C230.521 124.584 229.532 125.957 228.843 127.484C228.227 128.874 228.208 130.485 227.088 131.593C225.967 132.699 224.277 133.15 222.913 133.935C220.404 135.379 216.821 140.071 216.294 142.833" stroke="white" stroke-width="0.126909" stroke-miterlimit="10"/>
</g>
</g>
<mask id="mask2_1_2731" style="mask-type:luminance" maskUnits="userSpaceOnUse" x="0" y="99" width="39" height="41">
<path d="M1.52588e-05 99.7639H38.4862V139.65H1.52588e-05V99.7639Z" fill="white"/>
</mask>
<g mask="url(#mask2_1_2731)">
<path fill-rule="evenodd" clip-rule="evenodd" d="M32.9073 125.558C28.2265 128.385 38.816 141.26 38.816 141.26L29.1785 141.326C28.8553 141.173 28.554 141.016 28.2722 140.854L21.4261 142.276C18.7952 142.166 16.0162 141.293 14.744 138.8C14.3402 138.011 14.3076 136.983 14.2749 135.971C14.2328 134.649 14.1914 133.354 13.3265 132.654C12.6258 132.086 11.6092 131.847 10.7414 131.694C10.2868 131.614 7.68649 131.167 7.34665 131.614C9.09668 129.333 6.00109 130.781 6.00109 130.781C4.96705 130.431 4.527 128.428 4.18861 126.894C4.055 126.284 3.93663 125.749 3.80447 125.421C3.51256 124.695 0.830875 119.79 -0.0172729 120.1C3.66578 118.759 7.62913 119.692 10.7705 121.895C12.108 122.836 12.978 124.131 13.7259 125.565C13.8022 125.712 13.9416 126.062 14.1151 126.495C14.5879 127.675 15.3097 129.476 15.6822 129.524C16.1106 129.58 20.5895 132.834 24.5456 135.76C24.4483 134.65 24.725 133.877 24.725 133.877C25.1273 132.772 23.7403 130.96 23.7403 130.96C19.7624 127.363 23.118 123.932 23.118 123.932C24.5623 122.458 23.7221 119.834 22.6445 118.461C22.2393 117.945 21.5916 117.557 20.9359 117.164C19.8459 116.51 18.7357 115.844 18.6928 114.562C18.6688 113.857 19.0508 113.244 19.4364 112.624C19.6412 112.296 19.8459 111.966 19.9933 111.62C20.6767 110.004 19.8895 108.25 18.6776 107.123C18.4263 106.889 18.1525 106.668 17.8788 106.447C17.1054 105.824 16.3299 105.198 16.0467 104.273C15.6633 103.021 16.4018 101.624 17.5034 100.912C18.6049 100.2 19.981 100.053 21.2917 100.107C23.6321 100.202 26.0081 100.917 27.7668 102.473C30.2721 104.702 31.1275 108.305 30.9815 111.652C30.8711 114.155 30.7927 115.944 32.6408 117.785C32.8586 118.003 33.0888 118.216 33.319 118.429C34.4656 119.493 35.6238 120.567 35.3973 122.309C35.2208 123.679 34.0473 124.87 32.9073 125.558Z" fill="#CDE5F9"/>
<mask id="mask3_1_2731" style="mask-type:alpha" maskUnits="userSpaceOnUse" x="-1" y="100" width="40" height="43">
<path fill-rule="evenodd" clip-rule="evenodd" d="M32.9073 125.558C28.2265 128.385 38.816 141.26 38.816 141.26L29.1785 141.326C28.8553 141.173 28.554 141.016 28.2722 140.854L21.4261 142.276C18.7952 142.166 16.0162 141.293 14.744 138.8C14.3402 138.011 14.3076 136.983 14.2749 135.971C14.2328 134.649 14.1914 133.354 13.3265 132.654C12.6258 132.086 11.6092 131.847 10.7414 131.694C10.2868 131.614 7.68649 131.167 7.34665 131.614C9.09668 129.333 6.00109 130.781 6.00109 130.781C4.96705 130.431 4.527 128.428 4.18861 126.894C4.055 126.284 3.93663 125.749 3.80447 125.421C3.51256 124.695 0.830875 119.79 -0.0172729 120.1C3.66578 118.759 7.62913 119.692 10.7705 121.895C12.108 122.836 12.978 124.131 13.7259 125.565C13.8022 125.712 13.9416 126.062 14.1151 126.495C14.5879 127.675 15.3097 129.476 15.6822 129.524C16.1106 129.58 20.5895 132.834 24.5456 135.76C24.4483 134.65 24.725 133.877 24.725 133.877C25.1273 132.772 23.7403 130.96 23.7403 130.96C19.7624 127.363 23.118 123.932 23.118 123.932C24.5623 122.458 23.7221 119.834 22.6445 118.461C22.2393 117.945 21.5916 117.557 20.9359 117.164C19.8459 116.51 18.7357 115.844 18.6928 114.562C18.6688 113.857 19.0508 113.244 19.4364 112.624C19.6412 112.296 19.8459 111.966 19.9933 111.62C20.6767 110.004 19.8895 108.25 18.6776 107.123C18.4263 106.889 18.1525 106.668 17.8788 106.447C17.1054 105.824 16.3299 105.198 16.0467 104.273C15.6633 103.021 16.4018 101.624 17.5034 100.912C18.6049 100.2 19.981 100.053 21.2917 100.107C23.6321 100.202 26.0081 100.917 27.7668 102.473C30.2721 104.702 31.1275 108.305 30.9815 111.652C30.8711 114.155 30.7927 115.944 32.6408 117.785C32.8586 118.003 33.0888 118.216 33.319 118.429C34.4656 119.493 35.6238 120.567 35.3973 122.309C35.2208 123.679 34.0473 124.87 32.9073 125.558Z" fill="#CDE5F9" stroke="white" stroke-width="0.126909" stroke-miterlimit="10"/>
</mask>
<g mask="url(#mask3_1_2731)">
<path d="M15.4629 98.5681C15.9727 100.554 17.308 101.818 18.9208 102.975C19.9389 103.704 21.1915 104.343 21.9402 105.377C23.0178 106.869 22.2793 108.249 22.4492 109.954C22.5371 110.902 22.8769 111.859 23.5697 112.513C26.3654 115.154 27.9368 117.275 27.5156 121.328C26.9202 127.047 26.9216 135.766 32.3518 139.507M-0.0172577 120.1C1.79803 120.47 3.52066 121.2 5.04896 122.246C6.57725 123.292 7.88025 124.633 8.88103 126.19C9.78146 127.611 10.0697 129.37 11.4661 130.398C12.8988 131.449 14.7912 131.646 16.4105 132.284C19.3856 133.457 21.4108 136.442 22.434 139.374" stroke="white" stroke-width="0.126909" stroke-miterlimit="10"/>
</g>
</g>
<path d="M161.702 71.4659C161.341 71.4662 160.99 71.3492 160.701 71.1328C160.412 70.9163 160.201 70.612 160.1 70.2656C159.999 69.9193 160.014 69.5496 160.142 69.2122C160.269 68.8748 160.503 68.5879 160.808 68.3947C162.412 67.3737 163.642 65.8607 164.312 64.0829C164.982 62.305 165.057 60.3581 164.525 58.5342C163.992 56.7105 162.882 55.1085 161.36 53.9685C159.838 52.8286 157.988 52.2122 156.085 52.212C154.664 52.2116 153.264 52.5556 152.005 53.2143C150.746 53.873 149.666 54.8269 148.857 55.994C148.048 57.1612 147.535 58.5069 147.361 59.9157C147.187 61.3245 147.358 62.7544 147.859 64.0827C148.529 65.8607 149.758 67.3737 151.363 68.3947C151.669 68.5873 151.904 68.8742 152.033 69.2122C152.161 69.5501 152.176 69.9207 152.076 70.2679C151.975 70.6151 151.764 70.9203 151.475 71.1375C151.186 71.3547 150.833 71.4723 150.472 71.4725H129.727V71.4899V18.821H150.495C150.838 18.781 151.154 18.6166 151.384 18.3591C151.613 18.1016 151.74 17.7689 151.739 17.4243C151.741 17.1871 151.681 16.9535 151.567 16.7458C151.452 16.5381 151.286 16.3632 151.084 16.2379C150.073 15.6152 149.199 14.7941 148.514 13.8242C147.83 12.8543 147.349 11.7557 147.102 10.5951C146.855 9.43439 146.847 8.23573 147.077 7.07163C147.307 5.90752 147.771 4.80217 148.442 3.82247C149.112 2.84277 149.975 2.0091 150.977 1.37191C151.979 0.734724 153.101 0.307266 154.273 0.115409C155.446 -0.0764471 156.645 -0.02871 157.798 0.255727C158.952 0.540164 160.036 1.05539 160.984 1.77022C162.51 2.9222 163.617 4.54018 164.138 6.37823C164.659 8.21628 164.564 10.1739 163.869 11.9534C163.174 13.7329 161.916 15.2372 160.287 16.2379C160.042 16.3935 159.85 16.6211 159.74 16.8895C159.629 17.1579 159.604 17.4539 159.668 17.737C159.733 18.0201 159.883 18.2764 160.099 18.4707C160.315 18.6651 160.586 18.7879 160.874 18.8225H182.448V71.4659H161.702Z" fill="#F4F7FC"/>
<path d="M77.0072 50.7442C76.9801 50.5154 76.8972 50.2967 76.7656 50.1073C76.6341 49.9179 76.4581 49.7637 76.253 49.6582C76.0478 49.5526 75.8199 49.499 75.5892 49.502C75.3584 49.505 75.132 49.5645 74.9296 49.6753C74.7219 49.7899 74.5468 49.9554 74.4206 50.1561C73.419 51.7835 71.9126 53.0396 70.1305 53.7335C68.3487 54.4258 66.3894 54.5188 64.5499 53.9984C62.7104 53.4779 61.0911 52.3724 59.9377 50.8495C58.7843 49.3267 58.1599 47.4697 58.159 45.5603C58.1582 43.6509 58.7811 41.7933 59.9331 40.2695C60.7954 39.1316 61.9227 38.221 63.2171 37.6166C64.5114 37.0121 65.9339 36.7321 67.3612 36.8009C68.7884 36.8696 70.1773 37.285 71.4075 38.011C72.6377 38.737 73.6719 39.7517 74.4206 40.9671C74.5465 41.1682 74.7217 41.3338 74.9296 41.4482C75.1375 41.5627 75.3712 41.6223 75.6086 41.6213C75.9535 41.621 76.2864 41.4944 76.5442 41.2655C76.8019 41.0365 76.9667 40.7211 77.0072 40.379V18.8262H129.738V39.569C129.765 39.7978 129.849 40.0166 129.98 40.2059C130.112 40.3953 130.288 40.5495 130.493 40.655C130.698 40.7605 130.926 40.8142 131.157 40.8112C131.388 40.8082 131.614 40.7487 131.817 40.6379C132.024 40.524 132.199 40.358 132.325 40.1571C133.074 38.9417 134.108 37.9271 135.338 37.2013C136.568 36.4754 137.957 36.0602 139.385 35.9916C140.812 35.923 142.234 36.2031 143.529 36.8077C144.823 37.4122 145.95 38.323 146.812 39.4609C147.966 40.9843 148.591 42.8422 148.591 44.7524C148.591 46.6626 147.967 48.5206 146.813 50.0441C145.659 51.5676 144.039 52.6733 142.198 53.1931C140.358 53.7129 138.398 53.6185 136.616 52.9242C134.834 52.2301 133.327 50.9744 132.325 49.3475C132.209 49.1639 132.051 49.0097 131.865 48.8969C131.679 48.7841 131.47 48.7159 131.253 48.6975C131.036 48.6791 130.818 48.711 130.616 48.7908C130.414 48.8706 130.232 48.9961 130.087 49.1575C129.892 49.3739 129.769 49.6452 129.735 49.9342V71.4776H77.0072V50.7442Z" fill="#CCDBF7"/>
<path d="M177.823 109.367L180.878 87.5942L160.341 84.7123C160.123 84.6826 159.914 84.6101 159.725 84.4991C159.536 84.3881 159.371 84.2406 159.239 84.0654C158.973 83.7121 158.857 83.2677 158.919 82.8297C158.959 82.5511 159.068 82.287 159.237 82.0618C159.406 81.8366 159.629 81.6575 159.886 81.541C161.178 80.9516 162.307 80.0582 163.177 78.9374C164.047 77.8165 164.632 76.5016 164.881 75.1054C165.131 73.7093 165.037 72.2736 164.609 70.9214C164.181 69.5691 163.431 68.3408 162.423 67.3417C161.416 66.3417 160.181 65.6005 158.824 65.1818C157.468 64.763 156.029 64.6791 154.633 64.9373C153.237 65.1955 151.924 65.7881 150.807 66.6642C149.69 67.5403 148.803 68.6738 148.221 69.9676C147.443 71.6989 147.247 73.6356 147.664 75.4872C148.08 77.3389 149.087 79.0057 150.532 80.2378C150.746 80.4202 150.91 80.653 151.009 80.915C151.109 81.177 151.142 81.4598 151.104 81.7375C151.042 82.175 150.809 82.5701 150.456 82.8362C150.103 83.1022 149.658 83.2175 149.22 83.1567L128.674 80.2748L125.808 100.664C125.782 100.848 125.721 101.024 125.627 101.183C125.533 101.343 125.409 101.482 125.261 101.594C125.113 101.705 124.945 101.786 124.765 101.832C124.586 101.879 124.399 101.889 124.216 101.863C123.981 101.831 123.757 101.74 123.567 101.598C123.377 101.456 123.226 101.267 123.13 101.051C122.557 99.7433 121.674 98.5949 120.556 97.7054C119.439 96.8159 118.12 96.2123 116.716 95.9468C115.312 95.6814 113.864 95.7622 112.499 96.1821C111.133 96.6021 109.89 97.3486 108.879 98.3568C107.524 99.7057 106.648 101.459 106.383 103.351C106.118 105.243 106.479 107.17 107.411 108.838C108.107 110.084 109.097 111.142 110.295 111.92C111.493 112.697 112.863 113.172 114.286 113.301C115.709 113.43 117.142 113.211 118.461 112.662C119.78 112.113 120.945 111.252 121.855 110.151C122.008 109.97 122.205 109.83 122.427 109.745C122.649 109.66 122.889 109.633 123.124 109.667C123.495 109.719 123.829 109.916 124.054 110.214C124.279 110.512 124.376 110.887 124.325 111.257L121.349 132.429L173.561 139.734L176.726 117.171L177.823 109.367Z" fill="#58BFCA"/>
<path d="M78.6359 106.692C78.6362 106.944 78.5617 107.19 78.4218 107.399C78.282 107.608 78.083 107.771 77.8502 107.867C77.6762 107.939 77.4885 107.971 77.3006 107.961C77.1127 107.952 76.9292 107.901 76.7633 107.813C76.5973 107.724 76.4531 107.6 76.3408 107.449C76.2286 107.298 76.1511 107.125 76.1139 106.94C76.0776 106.756 76.0826 106.566 76.1285 106.384C76.1744 106.201 76.2602 106.032 76.3795 105.886C76.4989 105.741 76.649 105.624 76.819 105.544C76.989 105.463 77.1748 105.421 77.3629 105.421C77.7004 105.421 78.024 105.556 78.2626 105.794C78.5013 106.032 78.6355 106.355 78.6359 106.692ZM86.6606 106.692C86.6604 106.944 86.5857 107.189 86.4458 107.399C86.306 107.608 86.1074 107.771 85.8749 107.867C85.701 107.939 85.5133 107.971 85.3255 107.961C85.1376 107.952 84.9541 107.901 84.7883 107.813C84.6224 107.724 84.4782 107.6 84.366 107.449C84.2538 107.298 84.1764 107.125 84.1394 106.94C84.1045 106.766 84.1066 106.587 84.1454 106.414C84.1843 106.24 84.259 106.077 84.3649 105.934C84.4707 105.792 84.6053 105.673 84.7599 105.585C84.9146 105.498 85.0859 105.443 85.2629 105.426C85.4398 105.409 85.6184 105.428 85.7872 105.484C85.956 105.54 86.1112 105.63 86.2429 105.75C86.3746 105.869 86.4798 106.014 86.5517 106.177C86.6237 106.339 86.6608 106.515 86.6606 106.692ZM94.6853 106.692C94.6857 106.944 94.6112 107.19 94.4713 107.399C94.3314 107.608 94.1324 107.771 93.8996 107.867C93.7256 107.939 93.538 107.971 93.35 107.961C93.1621 107.952 92.9786 107.901 92.8127 107.813C92.6468 107.724 92.5025 107.6 92.3903 107.449C92.278 107.298 92.2005 107.125 92.1634 106.94C92.1271 106.756 92.132 106.566 92.178 106.384C92.2239 106.201 92.3096 106.032 92.429 105.886C92.5484 105.741 92.6985 105.624 92.8685 105.544C93.0385 105.463 93.2242 105.421 93.4124 105.421C93.75 105.421 94.0738 105.555 94.3125 105.793C94.5512 106.032 94.6853 106.355 94.6853 106.692ZM102.709 106.692C102.709 106.944 102.634 107.19 102.495 107.399C102.355 107.608 102.156 107.771 101.923 107.867C101.749 107.939 101.561 107.971 101.373 107.961C101.185 107.952 101.002 107.901 100.836 107.813C100.67 107.724 100.526 107.6 100.414 107.449C100.301 107.298 100.224 107.125 100.187 106.94C100.138 106.694 100.163 106.438 100.259 106.206C100.34 106.013 100.467 105.843 100.628 105.711C100.79 105.578 100.982 105.488 101.187 105.447C101.392 105.406 101.604 105.416 101.805 105.477C102.005 105.537 102.187 105.646 102.335 105.793C102.574 106.032 102.709 106.355 102.709 106.692ZM78.6359 114.5C78.6362 114.751 78.5617 114.997 78.4219 115.207C78.282 115.416 78.0831 115.579 77.8503 115.675C77.6175 115.772 77.3613 115.797 77.1142 115.747C76.8672 115.698 76.6403 115.577 76.4625 115.398C76.2847 115.22 76.1636 114.994 76.1145 114.747C76.0654 114.501 76.0905 114.245 76.1866 114.013C76.2832 113.781 76.4464 113.583 76.6558 113.443C76.8651 113.303 77.1112 113.229 77.3629 113.229C77.5302 113.228 77.6958 113.261 77.8504 113.325C78.005 113.389 78.1454 113.482 78.2637 113.6C78.3819 113.718 78.4757 113.859 78.5396 114.013C78.6034 114.167 78.6362 114.333 78.6359 114.5ZM86.6606 114.5C86.6662 114.67 86.6374 114.84 86.576 114.999C86.5145 115.158 86.4216 115.304 86.3028 115.426C86.1839 115.549 86.0417 115.646 85.8844 115.712C85.7271 115.779 85.558 115.813 85.3873 115.813C85.2165 115.813 85.0475 115.778 84.8903 115.712C84.7331 115.645 84.591 115.547 84.4724 115.424C84.3538 115.302 84.2611 115.156 84.1999 114.997C84.1387 114.838 84.1102 114.668 84.1162 114.498C84.1276 114.168 84.2668 113.856 84.5043 113.627C84.7419 113.398 85.0593 113.27 85.3894 113.27C85.7196 113.271 86.0367 113.399 86.2739 113.628C86.5111 113.858 86.6497 114.17 86.6606 114.5ZM94.6853 114.5C94.6857 114.751 94.6112 114.997 94.4713 115.207C94.3314 115.416 94.1325 115.579 93.8997 115.675C93.6669 115.772 93.4108 115.797 93.1637 115.747C92.9166 115.698 92.6898 115.577 92.5119 115.398C92.3341 115.22 92.2131 114.994 92.164 114.747C92.1148 114.501 92.1399 114.245 92.236 114.013C92.3165 113.82 92.4433 113.65 92.6051 113.518C92.7669 113.386 92.9588 113.295 93.164 113.254C93.3691 113.214 93.5811 113.224 93.7813 113.284C93.9815 113.345 94.1638 113.453 94.3121 113.601C94.551 113.839 94.6853 114.163 94.6853 114.5ZM102.709 114.5C102.709 114.751 102.634 114.997 102.495 115.207C102.355 115.416 102.156 115.579 101.923 115.675C101.69 115.772 101.434 115.797 101.187 115.747C100.94 115.698 100.713 115.577 100.535 115.398C100.357 115.22 100.236 114.994 100.187 114.747C100.138 114.501 100.163 114.245 100.259 114.013C100.34 113.82 100.467 113.65 100.628 113.518C100.79 113.386 100.982 113.295 101.187 113.254C101.392 113.214 101.604 113.224 101.805 113.284C102.005 113.345 102.187 113.453 102.335 113.601C102.574 113.839 102.709 114.163 102.709 114.5ZM110.733 114.5C110.733 114.752 110.659 114.998 110.52 115.208C110.38 115.417 110.181 115.58 109.948 115.677C109.715 115.773 109.459 115.798 109.212 115.748C108.964 115.699 108.738 115.577 108.56 115.398C108.427 115.265 108.325 115.105 108.262 114.928C108.199 114.751 108.176 114.562 108.194 114.375C108.212 114.188 108.272 114.007 108.368 113.846C108.465 113.685 108.596 113.547 108.752 113.442C108.944 113.315 109.167 113.241 109.397 113.23C109.627 113.218 109.857 113.27 110.06 113.378C110.263 113.487 110.433 113.649 110.552 113.846C110.67 114.044 110.733 114.27 110.733 114.5ZM78.6359 122.305C78.6362 122.557 78.5617 122.803 78.4218 123.012C78.282 123.221 78.083 123.384 77.8502 123.48C77.6762 123.551 77.4885 123.583 77.3007 123.574C77.1128 123.564 76.9293 123.514 76.7635 123.425C76.5976 123.336 76.4533 123.212 76.341 123.062C76.2287 122.911 76.1512 122.737 76.1139 122.553C76.0653 122.307 76.0908 122.051 76.1872 121.819C76.2836 121.587 76.4466 121.388 76.6556 121.248C76.9003 121.085 77.1944 121.011 77.4875 121.04C77.7806 121.069 78.0546 121.198 78.2626 121.407C78.5015 121.644 78.6359 121.968 78.6359 122.305ZM86.6606 122.305C86.6604 122.556 86.5857 122.802 86.4458 123.011C86.306 123.22 86.1074 123.383 85.8749 123.48C85.5835 123.597 85.2593 123.602 84.9642 123.495C84.6692 123.388 84.4242 123.175 84.2762 122.899C84.1282 122.622 84.0875 122.301 84.1621 121.996C84.2367 121.692 84.4213 121.426 84.6804 121.248C84.872 121.12 85.0948 121.047 85.3251 121.035C85.5554 121.024 85.7845 121.075 85.9879 121.183C86.1913 121.292 86.3613 121.454 86.4798 121.651C86.5983 121.849 86.6608 122.075 86.6606 122.305ZM94.6853 122.305C94.6857 122.557 94.6112 122.803 94.4713 123.012C94.3314 123.221 94.1324 123.384 93.8996 123.48C93.7256 123.551 93.538 123.583 93.3501 123.574C93.1622 123.564 92.9788 123.514 92.8129 123.425C92.647 123.336 92.5028 123.212 92.3905 123.062C92.2782 122.911 92.2006 122.737 92.1634 122.553C92.1148 122.307 92.1403 122.051 92.2367 121.819C92.3331 121.587 92.496 121.388 92.7051 121.248C92.9498 121.085 93.2438 121.011 93.537 121.04C93.8301 121.069 94.1041 121.198 94.3121 121.407C94.551 121.644 94.6853 121.968 94.6853 122.305ZM102.709 122.305C102.709 122.557 102.634 122.803 102.495 123.012C102.355 123.221 102.156 123.384 101.923 123.48C101.749 123.551 101.561 123.583 101.373 123.574C101.186 123.564 101.002 123.514 100.836 123.425C100.67 123.336 100.526 123.212 100.414 123.062C100.301 122.911 100.224 122.737 100.187 122.553C100.151 122.379 100.153 122.199 100.191 122.025C100.23 121.851 100.305 121.688 100.411 121.544C100.516 121.401 100.651 121.282 100.806 121.194C100.961 121.106 101.133 121.052 101.31 121.034C101.487 121.017 101.666 121.037 101.836 121.093C102.005 121.149 102.16 121.24 102.292 121.359C102.424 121.479 102.529 121.625 102.601 121.788C102.673 121.951 102.709 122.127 102.709 122.305ZM110.733 122.305C110.733 122.557 110.659 122.803 110.519 123.012C110.379 123.221 110.18 123.384 109.947 123.48C109.656 123.597 109.331 123.602 109.036 123.495C108.741 123.388 108.496 123.175 108.348 122.899C108.2 122.622 108.16 122.301 108.234 121.996C108.309 121.692 108.493 121.426 108.752 121.248C108.944 121.121 109.167 121.048 109.397 121.036C109.627 121.025 109.856 121.076 110.059 121.185C110.262 121.293 110.432 121.455 110.551 121.652C110.669 121.849 110.732 122.075 110.733 122.305ZM118.757 122.305C118.757 122.556 118.682 122.802 118.543 123.011C118.403 123.22 118.204 123.383 117.972 123.48C117.68 123.597 117.356 123.602 117.061 123.495C116.766 123.388 116.521 123.175 116.373 122.899C116.225 122.622 116.184 122.301 116.259 121.996C116.333 121.692 116.518 121.426 116.777 121.248C117.022 121.085 117.316 121.011 117.609 121.04C117.903 121.068 118.177 121.198 118.385 121.407C118.623 121.644 118.757 121.968 118.757 122.305ZM78.6359 130.113C78.6362 130.364 78.5617 130.61 78.4218 130.819C78.282 131.028 78.083 131.191 77.8502 131.287C77.6762 131.359 77.4885 131.391 77.3006 131.382C77.1127 131.372 76.9292 131.321 76.7633 131.233C76.5973 131.144 76.4531 131.02 76.3408 130.869C76.2286 130.718 76.1511 130.545 76.1139 130.361C76.0776 130.176 76.0826 129.986 76.1285 129.804C76.1744 129.622 76.2602 129.452 76.3795 129.307C76.4989 129.161 76.649 129.044 76.819 128.964C76.989 128.883 77.1748 128.842 77.3629 128.841C77.7004 128.842 78.024 128.976 78.2626 129.214C78.5013 129.452 78.6355 129.776 78.6359 130.113ZM86.6606 130.113C86.6604 130.364 86.5857 130.61 86.4458 130.819C86.306 131.028 86.1074 131.191 85.8749 131.287C85.701 131.359 85.5133 131.391 85.3255 131.382C85.1376 131.372 84.9541 131.321 84.7883 131.233C84.6224 131.144 84.4782 131.02 84.366 130.869C84.2538 130.718 84.1764 130.545 84.1394 130.361C84.1045 130.186 84.1066 130.007 84.1454 129.834C84.1843 129.66 84.259 129.497 84.3649 129.355C84.4707 129.212 84.6053 129.093 84.7599 129.005C84.9146 128.918 85.0859 128.864 85.2629 128.846C85.4398 128.829 85.6184 128.849 85.7872 128.904C85.956 128.96 86.1112 129.051 86.2429 129.17C86.3746 129.289 86.4798 129.435 86.5517 129.597C86.6237 129.759 86.6608 129.935 86.6606 130.113ZM94.6853 130.113C94.6857 130.364 94.6112 130.61 94.4713 130.819C94.3314 131.028 94.1324 131.191 93.8996 131.287C93.7256 131.359 93.538 131.391 93.35 131.382C93.1621 131.372 92.9786 131.321 92.8127 131.233C92.6468 131.144 92.5025 131.02 92.3903 130.869C92.278 130.718 92.2005 130.545 92.1634 130.361C92.1271 130.176 92.132 129.986 92.178 129.804C92.2239 129.622 92.3096 129.452 92.429 129.307C92.5484 129.161 92.6985 129.044 92.8685 128.964C93.0385 128.883 93.2242 128.842 93.4124 128.841C93.75 128.841 94.0738 128.975 94.3125 129.214C94.5512 129.452 94.6853 129.775 94.6853 130.113ZM102.709 130.113C102.709 130.364 102.634 130.61 102.495 130.819C102.355 131.028 102.156 131.191 101.923 131.287C101.749 131.359 101.561 131.391 101.373 131.382C101.185 131.372 101.002 131.321 100.836 131.233C100.67 131.144 100.526 131.02 100.414 130.869C100.301 130.718 100.224 130.545 100.187 130.361C100.138 130.114 100.163 129.858 100.259 129.626C100.34 129.433 100.467 129.263 100.628 129.131C100.79 128.999 100.982 128.908 101.187 128.867C101.392 128.826 101.604 128.837 101.805 128.897C102.005 128.957 102.187 129.066 102.335 129.213C102.574 129.452 102.709 129.775 102.709 130.113ZM110.733 130.113C110.733 130.364 110.659 130.61 110.519 130.819C110.379 131.029 110.18 131.192 109.947 131.287C109.773 131.359 109.585 131.391 109.397 131.382C109.21 131.372 109.026 131.321 108.86 131.233C108.694 131.144 108.55 131.02 108.438 130.869C108.326 130.718 108.248 130.545 108.211 130.361C108.177 130.186 108.179 130.007 108.217 129.834C108.256 129.66 108.331 129.497 108.437 129.355C108.543 129.212 108.677 129.093 108.832 129.005C108.987 128.918 109.158 128.864 109.335 128.846C109.512 128.829 109.69 128.849 109.859 128.904C110.028 128.96 110.183 129.051 110.315 129.17C110.447 129.289 110.552 129.435 110.624 129.597C110.696 129.759 110.733 129.935 110.733 130.113ZM118.757 130.113C118.757 130.364 118.682 130.61 118.543 130.819C118.403 131.028 118.204 131.191 117.972 131.287C117.798 131.359 117.61 131.391 117.422 131.382C117.234 131.372 117.051 131.321 116.885 131.233C116.719 131.144 116.575 131.02 116.463 130.869C116.351 130.718 116.273 130.545 116.236 130.361C116.201 130.186 116.203 130.007 116.242 129.834C116.281 129.66 116.356 129.497 116.462 129.355C116.567 129.212 116.702 129.093 116.857 129.005C117.011 128.918 117.183 128.864 117.36 128.846C117.537 128.829 117.715 128.849 117.884 128.904C118.053 128.96 118.208 129.051 118.34 129.17C118.471 129.289 118.577 129.435 118.648 129.597C118.72 129.759 118.757 129.935 118.757 130.113ZM78.6359 137.92C78.6362 138.172 78.5617 138.418 78.4218 138.627C78.282 138.836 78.083 138.999 77.8502 139.095C77.6762 139.166 77.4885 139.199 77.3006 139.189C77.1127 139.18 76.9292 139.129 76.7633 139.04C76.5973 138.952 76.4531 138.828 76.3408 138.677C76.2286 138.526 76.1511 138.352 76.1139 138.168C76.0652 137.921 76.0906 137.666 76.187 137.433C76.2834 137.201 76.4465 137.003 76.6556 136.863C76.9006 136.7 77.1945 136.627 77.4874 136.655C77.7803 136.684 78.0542 136.813 78.2626 137.021C78.5015 137.259 78.6359 137.583 78.6359 137.92ZM86.6606 137.92C86.6604 138.171 86.5857 138.417 86.4458 138.626C86.306 138.835 86.1074 138.998 85.8749 139.095C85.701 139.166 85.5133 139.199 85.3255 139.189C85.1376 139.18 84.9541 139.129 84.7883 139.04C84.6224 138.952 84.4782 138.827 84.366 138.677C84.2538 138.526 84.1764 138.352 84.1394 138.168C84.0898 137.921 84.1147 137.666 84.2111 137.433C84.3074 137.201 84.4708 137.002 84.6804 136.863C84.9256 136.7 85.2195 136.627 85.5124 136.656C85.8054 136.684 86.0794 136.813 86.2881 137.021C86.527 137.259 86.6606 137.583 86.6606 137.92ZM94.6853 137.92C94.6857 138.172 94.6112 138.418 94.4713 138.627C94.3314 138.836 94.1324 138.999 93.8996 139.095C93.7256 139.166 93.538 139.199 93.35 139.189C93.1621 139.18 92.9786 139.129 92.8127 139.04C92.6468 138.952 92.5025 138.828 92.3903 138.677C92.278 138.526 92.2005 138.352 92.1634 138.168C92.1146 137.921 92.1401 137.666 92.2365 137.433C92.3329 137.201 92.4959 137.003 92.7051 136.863C92.9501 136.7 93.2439 136.627 93.5368 136.655C93.8297 136.684 94.1036 136.813 94.3121 137.021C94.551 137.259 94.6853 137.583 94.6853 137.92ZM102.709 137.92C102.709 138.172 102.634 138.418 102.495 138.627C102.355 138.836 102.156 138.999 101.923 139.095C101.749 139.166 101.561 139.199 101.373 139.189C101.185 139.18 101.002 139.129 100.836 139.04C100.67 138.952 100.526 138.828 100.414 138.677C100.301 138.526 100.224 138.352 100.187 138.168C100.138 137.921 100.163 137.666 100.259 137.433C100.34 137.241 100.467 137.071 100.628 136.938C100.79 136.806 100.982 136.715 101.187 136.675C101.392 136.634 101.604 136.644 101.805 136.705C102.005 136.765 102.187 136.873 102.335 137.021C102.574 137.259 102.709 137.583 102.709 137.92ZM110.733 137.92C110.733 138.172 110.659 138.418 110.519 138.627C110.379 138.836 110.18 138.999 109.947 139.095C109.773 139.166 109.585 139.199 109.397 139.189C109.21 139.18 109.026 139.129 108.86 139.04C108.694 138.952 108.55 138.827 108.438 138.677C108.326 138.526 108.248 138.352 108.211 138.168C108.162 137.921 108.187 137.666 108.283 137.433C108.379 137.201 108.543 137.002 108.752 136.863C108.997 136.7 109.291 136.626 109.584 136.655C109.878 136.684 110.152 136.813 110.36 137.021C110.599 137.259 110.733 137.583 110.733 137.92ZM118.757 137.92C118.757 138.171 118.682 138.417 118.543 138.626C118.403 138.835 118.204 138.998 117.972 139.095C117.798 139.166 117.61 139.199 117.422 139.189C117.234 139.18 117.051 139.129 116.885 139.04C116.719 138.952 116.575 138.827 116.463 138.677C116.351 138.526 116.273 138.352 116.236 138.168C116.187 137.921 116.211 137.666 116.308 137.433C116.404 137.201 116.567 137.002 116.777 136.863C117.022 136.7 117.316 136.626 117.609 136.655C117.902 136.684 118.176 136.813 118.385 137.021C118.623 137.259 118.757 137.583 118.757 137.92ZM54.3947 128.494C54.3264 128.659 54.2697 128.829 54.2248 129.002C53.9176 130.136 53.5458 132.987 56.3146 135.882L48.1163 131.984L51.0021 125.576L54.7679 127.053L54.317 128.667" fill="white"/>
<path d="M48.1134 131.996L47.4461 133.271L58.3631 138.156C58.3631 138.156 59.3187 137.112 58.0341 136.339L48.1134 131.996Z" fill="#060000"/>
<path d="M54.0135 130.333C54.0135 130.333 53.8589 132.739 55.0824 134.313" stroke="#060000" stroke-width="0.169696" stroke-miterlimit="10"/>
<path d="M47.6988 132.75L47.1832 133.86L50.6883 135.485L51.2046 134.375L47.6988 132.75Z" fill="#060000"/>
<path d="M93.1031 131.469C93.0733 131.648 93.0559 131.828 93.0508 132.01C93.0051 133.182 93.2817 136.044 96.6271 138.247L87.7651 136.286L89.147 129.394L93.1488 129.992L93.0711 131.667" fill="white"/>
<path d="M87.7652 136.286L87.4022 137.678L99.1353 140C99.1353 140 99.8332 138.769 98.407 138.305L87.7652 136.286Z" fill="#060000"/>
<path d="M93.149 133.345C93.149 133.345 93.5375 135.718 95.082 136.986" stroke="#060000" stroke-width="0.169696" stroke-miterlimit="10"/>
<path d="M87.5173 137.089L87.2632 138.286L91.0442 139.087L91.2984 137.89L87.5173 137.089Z" fill="#060000"/>
<path d="M69.1931 75.2407L46.312 126.952L59.032 131.422L79.6555 86.6263L69.1931 75.2407Z" fill="#1AB7B7"/>
<path d="M123.271 88.2673C123.576 88.1244 126.9 88.4522 126.9 88.4522C128.211 89.152 129.585 89.7909 130.846 90.5777C131.124 90.7467 131.141 90.9896 131.085 91.2928C131.025 91.6471 130.893 91.9853 130.696 92.2863C130.133 93.0673 129.115 92.8824 128.337 92.564L125.452 91.3776L122.057 91.2246L123.271 88.2673Z" fill="#EFD1D8"/>
<path d="M78.432 67.2114C75.5462 68.1165 72.7287 69.8627 70.864 72.2631C65.0061 79.8008 70.5786 88.2965 76.1729 93.6898C79.0347 96.4477 81.932 99.1766 84.9441 101.77C86.7145 103.296 89.0549 105.65 91.4962 106.791C90.2385 107.688 85.0087 133.52 85.0087 133.52L96.808 134.706L103.211 111.376C103.211 111.376 106.88 99.3086 92.5026 88.3117" fill="#58C1CC"/>
<path d="M104.83 45.1638C104.265 45.2827 103.709 45.4442 103.168 45.6468C102.755 45.7894 102.36 45.9808 101.993 46.2168C101.366 46.6374 101.218 47.3706 100.577 47.7723C99.9978 48.1349 99.2767 48.2626 98.6653 48.5773C98.4133 48.7006 98.1795 48.8594 97.9733 49.0487C97.7627 49.2539 97.6334 49.5063 97.4265 49.7152C97.2575 49.8805 97.0783 50.035 96.8898 50.1778C96.595 50.407 96.0991 50.8153 95.651 50.737L108.177 57.4951L104.83 45.1638Z" fill="black"/>
<path d="M104.049 52.5616C102.281 52.9474 101.229 52.0764 101.023 50.8494C100.837 49.7101 101.747 48.3387 103.123 48.734C103.677 48.9099 104.181 49.2154 104.592 49.6252C104.744 49.9654 104.858 50.3214 104.932 50.6862C105.081 51.4339 105.035 52.3425 104.041 52.5616" fill="#EFD1D8"/>
<path d="M104.185 54.3237C106.892 56.3695 109.406 55.1207 110.439 52.5557C110.898 51.4186 111.288 50.1437 111.078 48.9167C110.886 47.7897 110.324 46.7657 109.358 46.1551C107.334 44.8744 104.531 45.6671 103.104 47.9231C103.104 47.9231 103.104 47.9376 103.09 47.9449C102.444 48.9533 102.198 50.1662 102.401 51.346C102.603 52.5259 103.24 53.5877 104.185 54.3237Z" fill="#EFD1D8"/>
<path d="M103.818 51.0372C103.765 50.6582 103.586 50.3083 103.308 50.0443C103.031 49.7803 102.672 49.6178 102.291 49.5832C102.079 49.5658 102.019 49.8936 102.233 49.9117C102.543 49.9319 102.836 50.0573 103.065 50.267C103.293 50.4768 103.443 50.7583 103.489 51.0648C103.521 51.2765 103.854 51.2511 103.829 51.0372" fill="black"/>
<path d="M104.441 52.4805L102.572 55.9266L105.097 57.2929L106.966 53.8467L104.441 52.4805Z" fill="#EFD1D8"/>
<path d="M108.541 51.1372C108.487 51.1707 108.424 51.1868 108.36 51.1832C108.297 51.1796 108.236 51.1566 108.185 51.1173C108.135 51.0779 108.099 51.0242 108.08 50.9633C108.062 50.9024 108.062 50.8373 108.082 50.7768C108.101 50.7162 108.138 50.6628 108.188 50.6239C108.238 50.585 108.299 50.5624 108.363 50.5593C108.426 50.5551 108.489 50.5706 108.543 50.6038C108.597 50.6369 108.64 50.6859 108.665 50.7442C108.684 50.7784 108.695 50.8158 108.699 50.8544C108.705 50.9125 108.693 50.9708 108.665 51.0222C108.638 51.0736 108.596 51.1159 108.545 51.1438M109.232 53.3288C109.576 52.7714 109.836 52.1667 110.003 51.5339C110.052 51.349 109.779 51.2359 109.73 51.4201C109.569 52.0295 109.319 52.612 108.988 53.1489C108.891 53.307 109.134 53.4883 109.232 53.3288ZM104.592 48.2945L111.542 51.1764C111.491 51.1387 111.801 50.1996 111.823 50.1169C112.296 48.3982 111.587 46.327 110.075 45.4234C108.207 44.3044 105.4 43.8352 103.742 45.4031C103.557 45.5721 101.347 48.1153 101.524 48.2045L104.144 49.4134L104.592 48.2945Z" fill="black"/>
<path d="M112.299 44.2334C112.3 44.6857 112.165 45.128 111.914 45.5041C111.662 45.8802 111.305 46.1732 110.886 46.3459C110.432 46.5339 109.93 46.5711 109.453 46.452C108.976 46.3328 108.55 46.0638 108.239 45.6845C107.927 45.3052 107.745 44.8358 107.721 44.3457C107.697 43.8555 107.831 43.3706 108.104 42.9625C108.377 42.5544 108.774 42.2449 109.237 42.0795C109.7 41.9142 110.203 41.9018 110.674 42.0443C111.144 42.1868 111.556 42.4765 111.848 42.8707C112.141 43.2649 112.299 43.7427 112.299 44.2334Z" fill="black"/>
<path d="M68.3711 77.1023C68.3711 77.1023 67.4032 85.6096 76.178 93.6897" stroke="black" stroke-width="0.169696" stroke-miterlimit="10"/>
<path d="M79.6555 78.2661C80.6039 85.3854 85.0864 91.3182 90.2632 96.0356C92.3276 97.9189 94.7646 99.3802 96.0339 101.95C98.9313 107.784 95.7391 115.751 94.4487 121.768L91.8636 133.821" stroke="white" stroke-width="0.169696" stroke-miterlimit="10"/>
<path d="M117.39 82.4904L110.702 81.8428C112.503 77.0971 112.691 74.0325 112.503 69.7422C112.123 61.0717 106.47 55.2477 98.466 54.2527C90.6591 53.2831 81.373 57.9686 75.68 62.7129C73.5974 64.4468 64.5255 71.983 64.3462 71.8663L91.8623 88.1926C93.266 93.108 93.8854 97.1546 100.846 97.1546L115.82 98.6035C117.948 98.8024 120.068 98.1525 121.719 96.7957C123.369 95.4388 124.415 93.4851 124.628 91.361V91.2892C124.829 89.1632 124.178 87.0443 122.82 85.3956C121.461 83.7468 119.503 82.7023 117.376 82.4904" fill="#3458DF"/>
<path d="M110.696 81.8429L108.362 69.0388M121.034 87.1332C121.034 87.1332 123.867 93.9138 118.775 96.1546M97.4244 56.1818C97.4244 56.1818 91.6537 54.9801 87.7651 58.1398" stroke="white" stroke-width="0.169696" stroke-miterlimit="10"/>
<g opacity="0.32">
<path opacity="0.32" d="M71.9648 51.1221H70.8799V51.3933H71.9648V51.1221ZM134.494 51.3933H132.257V51.1221H134.491L134.494 51.3933ZM130.027 51.3933H127.795V51.1221H130.027V51.3933ZM125.562 51.3933H123.328V51.1221H125.562V51.3933ZM121.094 51.3933H118.862V51.1221H121.094V51.3933ZM116.628 51.3933H114.395V51.1221H116.628V51.3933ZM112.161 51.3933H109.928V51.1221H112.161V51.3933ZM107.694 51.3933H105.462V51.1221H107.694V51.3933ZM103.229 51.3933H100.995V51.1221H103.234L103.229 51.3933ZM98.7613 51.3933H96.5292V51.1221H98.7613V51.3933ZM94.2955 51.3933H92.0626V51.1221H94.2955V51.3933ZM89.8289 51.3933H87.5967V51.1221H89.8253L89.8289 51.3933ZM85.3631 51.3933H83.1294V51.1221H85.3631V51.3933ZM80.8958 51.3933H78.6621V51.1221H80.8958V51.3933ZM76.4299 51.3933H74.1963V51.1221H76.4299V51.3933ZM137.81 51.1221H136.728V51.3933H137.81V51.1221ZM65.5049 57.0941H64.4223V57.3653H65.5049V57.0941ZM134.569 57.3631H132.412V57.0941H134.569V57.3631ZM130.252 57.3631H128.094V57.0941H130.252V57.3631ZM125.937 57.3631H123.771V57.0941H125.93L125.937 57.3631ZM121.621 57.3631H119.462V57.0941H121.621V57.3631ZM117.302 57.3631H115.146V57.0941H117.302V57.3631ZM112.987 57.3631H110.829V57.0941H112.987V57.3631ZM108.67 57.3631H106.512V57.0941H108.665L108.67 57.3631ZM104.354 57.3631H102.195V57.0941H104.354V57.3631ZM100.038 57.3631H97.8791V57.0941H100.038V57.3631ZM95.7217 57.3631H93.5592V57.0941H95.718L95.7217 57.3631ZM91.4039 57.3631H89.2465V57.0941H91.4039V57.3631ZM87.0877 57.3631H84.9303V57.0941H87.0877V57.3631ZM82.7714 57.3631H80.614V57.0941H82.7714V57.3631ZM78.4552 57.3631H76.2963V57.0941H78.4537L78.4552 57.3631ZM74.1389 57.3631H71.9801V57.0941H74.1389V57.3631ZM69.8227 57.3631H67.6638V57.0941H69.8227V57.3631ZM137.81 57.0941H136.728V57.3653H137.81V57.0941ZM65.5049 63.4178H64.4223V63.689H65.5049V63.4178ZM134.569 63.6875H132.412V63.4178H134.569V63.6875ZM130.252 63.6875H128.094V63.4178H130.252V63.6875ZM125.937 63.6875H123.771V63.4178H125.93L125.937 63.6875ZM121.621 63.6875H119.462V63.4178H121.621V63.6875ZM117.302 63.6875H115.146V63.4178H117.302V63.6875ZM112.987 63.6875H110.829V63.4178H112.987V63.6875ZM108.67 63.6875H106.512V63.4178H108.665L108.67 63.6875ZM104.354 63.6875H102.195V63.4178H104.354V63.6875ZM100.038 63.6875H97.8791V63.4178H100.038V63.6875ZM95.7217 63.6875H93.5592V63.4178H95.718L95.7217 63.6875ZM91.4039 63.6875H89.2465V63.4178H91.4039V63.6875ZM87.0877 63.6875H84.9303V63.4178H87.0877V63.6875ZM82.7714 63.6875H80.614V63.4178H82.7714V63.6875ZM78.4552 63.6875H76.2963V63.4178H78.4537L78.4552 63.6875ZM74.1389 63.6875H71.9801V63.4178H74.1389V63.6875ZM69.8227 63.6875H67.6638V63.4178H69.8227V63.6875ZM137.81 63.4178H136.728V63.689H137.81V63.4178ZM65.5049 69.7422H64.4223V70.0134H65.5049V69.7422ZM134.569 70.012H132.412V69.7422H134.569V70.012ZM130.252 70.012H128.094V69.7422H130.252V70.012ZM125.937 70.012H123.771V69.7422H125.93L125.937 70.012ZM121.621 70.012H119.462V69.7422H121.621V70.012ZM117.302 70.012H115.146V69.7422H117.302V70.012ZM112.987 70.012H110.829V69.7422H112.987V70.012ZM108.67 70.012H106.512V69.7422H108.665L108.67 70.012ZM104.354 70.012H102.195V69.7422H104.354V70.012ZM100.038 70.012H97.8791V69.7422H100.038V70.012ZM95.7217 70.012H93.5592V69.7422H95.718L95.7217 70.012ZM91.4039 70.012H89.2465V69.7422H91.4039V70.012ZM87.0877 70.012H84.9303V69.7422H87.0877V70.012ZM82.7714 70.012H80.614V69.7422H82.7714V70.012ZM78.4552 70.012H76.2963V69.7422H78.4537L78.4552 70.012ZM74.1389 70.012H71.9801V69.7422H74.1389V70.012ZM69.8227 70.012H67.6638V69.7422H69.8227V70.012ZM137.81 69.7422H136.728V70.0134H137.81V69.7422ZM65.5049 76.0666H64.4223V76.3379H65.5049V76.0666ZM134.569 76.3393H132.412V76.0681H134.569V76.3393ZM130.252 76.3393H128.094V76.0681H130.252V76.3393ZM125.937 76.3393H123.771V76.0681H125.93L125.937 76.3393ZM121.621 76.3393H119.462V76.0681H121.621V76.3393ZM117.302 76.3393H115.146V76.0681H117.302V76.3393ZM112.987 76.3393H110.829V76.0681H112.987V76.3393ZM108.665 76.3393H106.512V76.0681H108.665V76.3393ZM104.349 76.3393H102.195V76.0681H104.354L104.349 76.3393ZM100.033 76.3393H97.8791V76.0681H100.038L100.033 76.3393ZM95.7166 76.3393H93.5592V76.0681H95.718L95.7166 76.3393ZM91.3989 76.3393H89.2465V76.0681H91.4039L91.3989 76.3393ZM87.0826 76.3393H84.9303V76.0681H87.0877L87.0826 76.3393ZM82.7664 76.3393H80.614V76.0681H82.7714L82.7664 76.3393ZM78.4537 76.3393H76.2963V76.0681H78.4537V76.3393ZM74.1375 76.3393H71.9801V76.0681H74.1389L74.1375 76.3393ZM69.8212 76.3393H67.6638V76.0681H69.8227L69.8212 76.3393ZM137.81 76.0666H136.728V76.3379H137.81V76.0666ZM65.5049 82.3904H64.4223V82.6616H65.5049V82.3904ZM134.569 82.6616H132.412V82.3904H134.569V82.6616ZM130.252 82.6616H128.094V82.3904H130.252V82.6616ZM125.937 82.6616H123.771V82.3904H125.93L125.937 82.6616ZM121.621 82.6616H119.462V82.3904H121.621V82.6616ZM117.302 82.6616H115.146V82.3904H117.302V82.6616ZM112.987 82.6616H110.829V82.3904H112.987V82.6616ZM108.67 82.6616H106.512V82.3904H108.665L108.67 82.6616ZM104.354 82.6616H102.195V82.3904H104.354V82.6616ZM100.038 82.6616H97.8791V82.3904H100.038V82.6616ZM95.7217 82.6616H93.5592V82.3904H95.718L95.7217 82.6616ZM91.4039 82.6616H89.2465V82.3904H91.4039V82.6616ZM87.0877 82.6616H84.9303V82.3904H87.0877V82.6616ZM82.7714 82.6616H80.614V82.3904H82.7714V82.6616ZM78.4552 82.6616H76.2963V82.3904H78.4537L78.4552 82.6616ZM74.1389 82.6616H71.9801V82.3904H74.1389V82.6616ZM69.8227 82.6616H67.6638V82.3904H69.8227V82.6616ZM137.81 82.3904H136.728V82.6616H137.81V82.3904ZM71.9648 87.8656H70.8799V88.1368H71.9648V87.8656ZM134.494 88.1354H132.257V87.8656H134.491L134.494 88.1354ZM130.027 88.1354H127.795V87.8656H130.027V88.1354ZM125.562 88.1354H123.328V87.8656H125.562V88.1354ZM121.094 88.1354H118.862V87.8656H121.094V88.1354ZM116.628 88.1354H114.395V87.8656H116.628V88.1354ZM112.161 88.1354H109.928V87.8656H112.161V88.1354ZM107.694 88.1354H105.462V87.8656H107.694V88.1354ZM103.229 88.1354H100.995V87.8656H103.234L103.229 88.1354ZM98.7613 88.1354H96.5292V87.8656H98.7613V88.1354ZM94.2955 88.1354H92.0626V87.8656H94.2955V88.1354ZM89.8289 88.1354H87.5967V87.8656H89.8253L89.8289 88.1354ZM85.3631 88.1354H83.1294V87.8656H85.3631V88.1354ZM80.8958 88.1354H78.6621V87.8656H80.8958V88.1354ZM76.4299 88.1354H74.1963V87.8656H76.4299V88.1354ZM137.81 87.8656H136.728V88.1368H137.81V87.8656ZM65.5049 93.8354H64.4223V94.1066H65.5049V93.8354ZM134.569 94.1066H132.412V93.8354H134.569V94.1066ZM130.252 94.1066H128.094V93.8354H130.252V94.1066ZM125.937 94.1066H123.771V93.8354H125.93L125.937 94.1066ZM121.621 94.1066H119.462V93.8354H121.621V94.1066ZM117.302 94.1066H115.146V93.8354H117.302V94.1066ZM112.987 94.1066H110.829V93.8354H112.987V94.1066ZM108.67 94.1066H106.512V93.8354H108.665L108.67 94.1066ZM104.354 94.1066H102.195V93.8354H104.354V94.1066ZM100.038 94.1066H97.8791V93.8354H100.038V94.1066ZM95.7217 94.1066H93.5592V93.8354H95.718L95.7217 94.1066ZM91.4039 94.1066H89.2465V93.8354H91.4039V94.1066ZM87.0877 94.1066H84.9303V93.8354H87.0877V94.1066ZM82.7714 94.1066H80.614V93.8354H82.7714V94.1066ZM78.4552 94.1066H76.2963V93.8354H78.4537L78.4552 94.1066ZM74.1389 94.1066H71.9801V93.8354H74.1389V94.1066ZM69.8227 94.1066H67.6638V93.8354H69.8227V94.1066ZM137.81 93.8354H136.728V94.1066H137.81V93.8354ZM65.5049 100.16H64.4223V100.431H65.5049V100.16ZM134.569 100.431H132.412V100.16H134.569V100.431ZM130.252 100.431H128.094V100.16H130.252V100.431ZM125.937 100.431H123.771V100.16H125.93L125.937 100.431ZM121.621 100.431H119.462V100.16H121.621V100.431ZM117.302 100.431H115.146V100.16H117.302V100.431ZM112.987 100.431H110.829V100.16H112.987V100.431ZM108.67 100.431H106.512V100.16H108.665L108.67 100.431ZM104.354 100.431H102.195V100.16H104.354V100.431ZM100.038 100.431H97.8791V100.16H100.038V100.431ZM95.7217 100.431H93.5592V100.16H95.718L95.7217 100.431ZM91.4039 100.431H89.2465V100.16H91.4039V100.431ZM87.0877 100.431H84.9303V100.16H87.0877V100.431ZM82.7714 100.431H80.614V100.16H82.7714V100.431ZM78.4552 100.431H76.2963V100.16H78.4537L78.4552 100.431ZM74.1389 100.431H71.9801V100.16H74.1389V100.431ZM69.8227 100.431H67.6638V100.16H69.8227V100.431ZM137.81 100.16H136.728V100.431H137.81V100.16ZM65.5049 106.484H64.4223V106.755H65.5049V106.484ZM134.569 106.755H132.412V106.484H134.569V106.755ZM130.252 106.755H128.094V106.484H130.252V106.755ZM125.937 106.755H123.771V106.484H125.93L125.937 106.755ZM121.621 106.755H119.462V106.484H121.621V106.755ZM117.302 106.755H115.146V106.484H117.302V106.755ZM112.987 106.755H110.829V106.484H112.987V106.755ZM108.67 106.755H106.512V106.484H108.665L108.67 106.755ZM104.354 106.755H102.195V106.484H104.354V106.755ZM100.038 106.755H97.8791V106.484H100.038V106.755ZM95.7217 106.755H93.5592V106.484H95.718L95.7217 106.755ZM91.4039 106.755H89.2465V106.484H91.4039V106.755ZM87.0877 106.755H84.9303V106.484H87.0877V106.755ZM82.7714 106.755H80.614V106.484H82.7714V106.755ZM78.4552 106.755H76.2963V106.484H78.4537L78.4552 106.755ZM74.1389 106.755H71.9801V106.484H74.1389V106.755ZM69.8227 106.755H67.6638V106.484H69.8227V106.755ZM137.81 106.484H136.728V106.755H137.81V106.484ZM65.5049 112.81H64.4223V113.081H65.5049V112.81ZM134.569 113.079H132.412V112.81H134.569V113.079ZM130.252 113.079H128.094V112.81H130.252V113.079ZM125.937 113.079H123.771V112.81H125.93L125.937 113.079ZM121.621 113.079H119.462V112.81H121.621V113.079ZM117.302 113.079H115.146V112.81H117.302V113.079ZM112.987 113.079H110.829V112.81H112.987V113.079ZM108.67 113.079H106.512V112.81H108.665L108.67 113.079ZM104.354 113.079H102.195V112.81H104.354V113.079ZM100.038 113.079H97.8791V112.81H100.038V113.079ZM95.7217 113.079H93.5592V112.81H95.718L95.7217 113.079ZM91.4039 113.079H89.2465V112.81H91.4039V113.079ZM87.0877 113.079H84.9303V112.81H87.0877V113.079ZM82.7714 113.079H80.614V112.81H82.7714V113.079ZM78.4552 113.079H76.2963V112.81H78.4537L78.4552 113.079ZM74.1389 113.079H71.9801V112.81H74.1389V113.079ZM69.8227 113.079H67.6638V112.81H69.8227V113.079ZM137.81 112.81H136.728V113.081H137.81V112.81ZM65.5049 119.134H64.4223V119.405H65.5049V119.134ZM134.569 119.404H132.412V119.134H134.569V119.404ZM130.252 119.404H128.094V119.134H130.252V119.404ZM125.937 119.404H123.771V119.134H125.93L125.937 119.404ZM121.621 119.404H119.462V119.134H121.621V119.404ZM117.302 119.404H115.146V119.134H117.302V119.404ZM112.987 119.404H110.829V119.134H112.987V119.404ZM108.67 119.404H106.512V119.134H108.665L108.67 119.404ZM104.354 119.404H102.195V119.134H104.354V119.404ZM100.038 119.404H97.8791V119.134H100.038V119.404ZM95.7217 119.404H93.5592V119.134H95.718L95.7217 119.404ZM91.4039 119.404H89.2465V119.134H91.4039V119.404ZM87.0877 119.404H84.9303V119.134H87.0877V119.404ZM82.7714 119.404H80.614V119.134H82.7714V119.404ZM78.4552 119.404H76.2963V119.134H78.4537L78.4552 119.404ZM74.1389 119.404H71.9801V119.134H74.1389V119.404ZM69.8227 119.404H67.6638V119.134H69.8227V119.404ZM137.81 119.134H136.728V119.405H137.81V119.134Z" fill="white"/>
</g>
<path d="M88.3898 74.2166L91.8695 88.1925" stroke="black" stroke-width="0.169696" stroke-miterlimit="10"/>
<path d="M65.6415 112.249L57.3975 128.348" stroke="#221715" stroke-width="0.169696" stroke-miterlimit="10"/>
<path d="M118.126 80.4224C118.126 80.4224 125.635 81.9141 125.952 85.8127M104.601 103.331C104.601 103.331 107.826 106.457 106.194 112.249" stroke="black" stroke-width="0.169696" stroke-miterlimit="10"/>
<path d="M126.318 91.0674C126.318 91.0674 128.573 92.4728 127.477 93.1828C127.477 93.1828 126.649 93.8608 124.761 91.2639" fill="#EFD1D8"/>
</svg>
