<svg width="264" height="133" viewBox="0 0 264 133" fill="none" xmlns="http://www.w3.org/2000/svg">
<path d="M38.4415 75.8997C44.9031 71.778 56.5296 63.447 52.7813 53.2985C41.6843 23.2612 53.0527 2.51566 73.0008 0.253371C114.564 -4.45543 106.934 58.2582 167.865 39.8094C210.461 26.9104 240.173 63.3392 210.623 88.0379C189.343 105.81 167.553 131.916 167.553 131.916L85.2622 131.619C68.5023 107.692 39.4698 110.689 27.0947 103.625C11.6339 94.8008 32.2057 79.8761 38.4475 75.8997" fill="#ECF4FD"/>
<mask id="mask0_1_2788" style="mask-type:luminance" maskUnits="userSpaceOnUse" x="0" y="78" width="49" height="54">
<path d="M0 78.6299H48.6119V131.799H0V78.6299Z" fill="white"/>
</mask>
<g mask="url(#mask0_1_2788)">
<path fill-rule="evenodd" clip-rule="evenodd" d="M45.0268 115.823C38.619 119.698 47.3362 131.952 47.3362 131.952L39.9255 137.441C37.0424 136.075 35.4255 134.431 34.5438 132.865L29.3348 138.742C25.7286 138.58 21.9309 137.384 20.1853 133.966C19.6334 132.884 19.5878 131.475 19.5429 130.087C19.4846 128.275 19.427 126.5 18.2476 125.542C17.2873 124.762 15.8978 124.434 14.7101 124.226C14.0946 124.116 10.5445 123.501 10.0755 124.116C12.4672 120.987 8.23353 122.973 8.23353 122.973C6.82004 122.495 6.218 119.747 5.75656 117.643C5.57333 116.808 5.41254 116.074 5.2323 115.625C4.83369 114.629 1.16835 107.906 0.00390625 108.33C5.04159 106.492 10.4622 107.76 14.755 110.791C16.5873 112.081 17.7742 113.856 18.7958 115.821C18.902 116.025 19.0964 116.511 19.3372 117.111C19.9864 118.729 20.9713 121.185 21.4724 121.251C22.2076 121.346 29.2787 125.355 33.677 127.881C33.7518 127.468 33.8378 127.23 33.8378 127.23C34.3875 125.713 32.4901 123.229 32.4901 123.229C27.0508 118.299 31.6398 113.596 31.6398 113.596C33.6142 111.573 32.4699 107.983 30.9936 106.095C30.4394 105.386 29.5517 104.851 28.655 104.31C27.1645 103.411 25.6471 102.497 25.5887 100.739C25.5558 99.7686 26.0771 98.9306 26.6043 98.0851C26.8855 97.6343 27.1675 97.1813 27.3679 96.7042C28.3028 94.4869 27.2258 92.0801 25.5693 90.5389C25.226 90.2192 24.8536 89.9181 24.4804 89.6163C23.4221 88.7611 22.3609 87.9037 21.9727 86.6329C21.4477 84.9143 22.4559 82.9995 23.9621 82.0244C25.4691 81.0494 27.3507 80.8473 29.1449 80.9206C32.348 81.0517 35.602 82.0394 37.996 84.1744C41.4287 87.232 42.5924 92.1684 42.3905 96.7582V96.7597C42.2409 100.191 42.1332 102.643 44.661 105.165C44.9497 105.452 45.2541 105.733 45.5585 106.016C47.1365 107.477 48.7422 108.965 48.4303 111.367C48.188 113.245 46.5868 114.879 45.0268 115.823Z" fill="#CDE5F9"/>
<mask id="mask1_1_2788" style="mask-type:alpha" maskUnits="userSpaceOnUse" x="-1" y="80" width="50" height="59">
<path fill-rule="evenodd" clip-rule="evenodd" d="M45.0268 115.823C38.619 119.698 47.3362 131.952 47.3362 131.952L39.9255 137.441C37.0424 136.075 35.4255 134.431 34.5438 132.865L29.3348 138.742C25.7286 138.58 21.9309 137.384 20.1853 133.966C19.6334 132.884 19.5878 131.475 19.5429 130.087C19.4846 128.275 19.427 126.5 18.2476 125.542C17.2873 124.762 15.8978 124.434 14.7101 124.226C14.0946 124.116 10.5445 123.501 10.0755 124.116C12.4672 120.987 8.23353 122.973 8.23353 122.973C6.82004 122.495 6.218 119.747 5.75656 117.643C5.57333 116.808 5.41254 116.074 5.2323 115.625C4.83369 114.629 1.16835 107.906 0.00390625 108.33C5.04159 106.492 10.4622 107.76 14.755 110.791C16.5873 112.081 17.7742 113.856 18.7958 115.821C18.902 116.025 19.0964 116.511 19.3372 117.111C19.9864 118.729 20.9713 121.185 21.4724 121.251C22.2076 121.346 29.2787 125.355 33.677 127.881C33.7518 127.468 33.8378 127.23 33.8378 127.23C34.3875 125.713 32.4901 123.229 32.4901 123.229C27.0508 118.299 31.6398 113.596 31.6398 113.596C33.6142 111.573 32.4699 107.983 30.9936 106.095C30.4394 105.386 29.5517 104.851 28.655 104.31C27.1645 103.411 25.6471 102.497 25.5887 100.739C25.5558 99.7686 26.0771 98.9306 26.6043 98.0851C26.8855 97.6343 27.1675 97.1813 27.3679 96.7042C28.3028 94.4869 27.2258 92.0801 25.5693 90.5389C25.226 90.2192 24.8536 89.9181 24.4804 89.6163C23.4221 88.7611 22.3609 87.9037 21.9727 86.6329C21.4477 84.9143 22.4559 82.9995 23.9621 82.0244C25.4691 81.0494 27.3507 80.8473 29.1449 80.9206C32.348 81.0517 35.602 82.0394 37.996 84.1744C41.4287 87.232 42.5924 92.1684 42.3905 96.7582V96.7597C42.2409 100.191 42.1332 102.643 44.661 105.165C44.9497 105.452 45.2541 105.733 45.5585 106.016C47.1365 107.477 48.7422 108.965 48.4303 111.367C48.188 113.245 46.5868 114.879 45.0268 115.823Z" fill="#CDE5F9" stroke="white" stroke-width="0.145002" stroke-miterlimit="10"/>
</mask>
<g mask="url(#mask1_1_2788)">
<path d="M21.1664 78.8103C21.8671 81.5346 23.689 83.2652 25.8929 84.8491C27.2817 85.8488 28.9981 86.7235 30.0212 88.1418C31.496 90.1877 30.4954 92.0778 30.7108 94.4097C30.8319 95.7097 31.2978 97.0217 32.2499 97.9181C36.0715 101.54 38.2149 104.447 37.6376 110.008C36.8261 117.85 36.3512 126.823 43.7739 131.952M0 108.33C4.97636 109.363 9.45015 112.376 12.1709 116.681C13.3982 118.627 13.7833 121.039 15.7039 122.448C17.6626 123.888 20.251 124.16 22.4632 125.035C26.5331 126.642 29.3018 130.734 30.6988 134.756" stroke="white" stroke-width="0.145002" stroke-miterlimit="10"/>
</g>
</g>
<mask id="mask2_1_2788" style="mask-type:luminance" maskUnits="userSpaceOnUse" x="221" y="101" width="43" height="31">
<path d="M221.371 101.096H264V131.799H221.371V101.096Z" fill="white"/>
</mask>
<g mask="url(#mask2_1_2788)">
<path d="M221.198 132.184C221.198 132.184 231.67 125.958 228.01 122.422C227.119 121.561 226.301 120.239 226.422 118.954C226.615 116.997 228.406 116.321 229.853 115.412C231.909 114.12 232.207 112.479 232.622 110.182C233.181 107.109 234.697 104.016 237.433 102.504C239.339 101.448 241.647 101.284 243.783 101.679C244.981 101.901 246.197 102.319 247.054 103.194C247.91 104.069 248.288 105.486 247.681 106.548C247.075 107.61 245.757 107.981 244.71 108.595C243.379 109.365 242.305 110.799 242.593 112.409C242.771 113.405 243.423 114.373 243.171 115.352C242.686 117.203 240.046 117.054 238.784 118.087C237.521 119.12 236.222 121.322 237.227 122.962C237.227 122.962 239.563 126.771 235.216 129.218C235.216 129.218 233.586 130.579 233.721 131.667C233.721 131.667 234.264 136.156 228.15 137.517L221.198 132.184Z" fill="#CDE5F9"/>
<mask id="mask3_1_2788" style="mask-type:alpha" maskUnits="userSpaceOnUse" x="221" y="101" width="27" height="37">
<path d="M221.198 132.184C221.198 132.184 231.67 125.958 228.01 122.422C227.119 121.561 226.301 120.239 226.422 118.954C226.615 116.997 228.406 116.321 229.853 115.412C231.909 114.12 232.207 112.479 232.622 110.182C233.181 107.109 234.697 104.016 237.433 102.504C239.339 101.448 241.647 101.284 243.783 101.679C244.981 101.901 246.197 102.319 247.054 103.194C247.91 104.069 248.288 105.486 247.681 106.548C247.075 107.61 245.757 107.981 244.71 108.595C243.379 109.365 242.305 110.799 242.593 112.409C242.771 113.405 243.423 114.373 243.171 115.352C242.686 117.203 240.046 117.054 238.784 118.087C237.521 119.12 236.222 121.322 237.227 122.962C237.227 122.962 239.563 126.771 235.216 129.218C235.216 129.218 233.586 130.579 233.721 131.667C233.721 131.667 234.264 136.156 228.15 137.517L221.198 132.184Z" fill="#CDE5F9"/>
</mask>
<g mask="url(#mask3_1_2788)">
<path d="M249.378 101.485C248.505 103.184 247.036 104.057 245.337 104.776C244.267 105.229 242.997 105.546 242.106 106.336C240.821 107.469 241.2 108.874 240.707 110.382C240.433 111.226 239.926 112.026 239.168 112.477C236.089 114.302 234.231 115.904 233.78 119.679C233.139 124.998 230.509 132.685 224.825 134.963" stroke="white" stroke-width="0.145002" stroke-miterlimit="10"/>
</g>
<path d="M234.586 133.899C234.586 133.899 244.161 122.841 248.945 122.296C249.468 122.236 250.14 118.538 250.352 117.929C250.898 116.342 251.593 114.88 252.823 113.708C255.709 110.96 259.627 109.406 263.598 110.224C262.68 110.032 260.678 115.483 260.488 116.273C260.188 117.531 260.46 121.396 259.053 122.116C259.053 122.116 255.659 121.099 257.8 123.178C257.379 122.77 254.787 123.625 254.337 123.776C253.471 124.062 252.464 124.463 251.835 125.155C250.459 126.656 251.991 129.675 251.316 131.684C250.387 134.442 243.933 138.224 241.246 138.746L234.586 133.899Z" fill="#CDE5F9"/>
<mask id="mask4_1_2788" style="mask-type:alpha" maskUnits="userSpaceOnUse" x="234" y="110" width="30" height="29">
<path d="M234.586 133.899C234.586 133.899 244.161 122.841 248.945 122.296C249.468 122.236 250.14 118.538 250.352 117.929C250.898 116.342 251.593 114.88 252.823 113.708C255.709 110.96 259.627 109.406 263.598 110.224C262.68 110.032 260.678 115.483 260.488 116.273C260.188 117.531 260.46 121.396 259.053 122.116C259.053 122.116 255.659 121.099 257.8 123.178C257.379 122.77 254.787 123.625 254.337 123.776C253.471 124.062 252.464 124.463 251.835 125.155C250.459 126.656 251.991 129.675 251.316 131.684C250.387 134.442 243.933 138.224 241.246 138.746L234.586 133.899Z" fill="#CDE5F9"/>
</mask>
<g mask="url(#mask4_1_2788)">
<path d="M263.605 110.224C261.802 110.881 260.147 111.893 258.74 113.2C257.332 114.506 256.2 116.082 255.41 117.833C254.704 119.429 254.683 121.28 253.401 122.55C252.091 123.847 250.183 124.338 248.619 125.247C245.747 126.904 241.645 132.292 241.042 135.459" stroke="white" stroke-width="0.145002" stroke-miterlimit="10"/>
</g>
</g>
<path opacity="0.33" d="M192.149 107.361L60.1934 123.931C59.8925 123.969 59.587 123.947 59.2945 123.867C59.0021 123.786 58.7283 123.649 58.4888 123.462C58.2494 123.276 58.0491 123.044 57.8992 122.78C57.7493 122.516 57.6529 122.225 57.6155 121.923L49.8226 59.7026C49.7465 59.0944 49.9147 58.4808 50.2902 57.9967C50.6658 57.5126 51.218 57.1978 51.8254 57.1213L183.783 40.5514C184.39 40.4758 185.002 40.6444 185.485 41.0204C185.968 41.3964 186.283 41.949 186.359 42.5568L194.154 104.79C194.23 105.399 194.061 106.012 193.685 106.496C193.309 106.98 192.757 107.294 192.149 107.37" fill="#79A4E2"/>
<path d="M170.032 121.914L170.464 127.087L174.151 127.222L174.604 120.579L170.032 121.914Z" fill="#EFD1D8"/>
<path d="M169.988 127.082C169.189 129.376 166.445 128.623 166.332 131.164L172.377 131.301L175.283 131.367L174.875 126.617L169.988 127.082Z" fill="black"/>
<path d="M169.211 130.075C168.839 129.63 168.429 129.218 167.984 128.846C167.886 128.763 167.792 128.931 167.893 129.014C168.323 129.375 168.72 129.775 169.079 130.208C169.163 130.308 169.294 130.176 169.211 130.075ZM169.617 129.619L168.532 128.617C168.436 128.53 168.34 128.694 168.434 128.781L169.523 129.779C169.617 129.867 169.715 129.703 169.621 129.616" fill="white"/>
<path d="M171.607 131.915L172.386 131.299L166.34 131.162L166.346 131.808L171.607 131.915Z" fill="black"/>
<path d="M222.903 126.168L228.062 126.696L228.872 123.091L222.436 121.423L222.903 126.168Z" fill="#EFD1D8"/>
<path d="M227.966 127.164C230.071 128.372 228.826 130.935 231.301 131.505L232.55 125.583L233.149 122.732L228.405 122.264L227.966 127.164Z" fill="black"/>
<path d="M230.764 128.48C230.258 128.764 229.779 129.092 229.331 129.461C229.23 129.544 229.378 129.653 229.476 129.582C229.912 129.226 230.378 128.909 230.87 128.634C230.983 128.57 230.87 128.417 230.764 128.48ZM230.39 127.996L229.207 128.879C229.103 128.958 229.245 129.083 229.349 129.006L230.531 128.123C230.635 128.045 230.492 127.92 230.39 127.996Z" fill="white"/>
<path d="M233.011 126.461L232.55 125.582L231.301 131.505L231.937 131.619L233.011 126.461Z" fill="black"/>
<path d="M203.378 99.9139L188.765 99.2205C188.765 99.2205 172.002 102.452 168.369 109.091C168.369 109.091 165.076 116.288 169.331 126.332L175.411 125.345L176.32 114.54C176.32 114.54 190.018 116.359 196.764 109.989C196.764 109.989 202.326 104.881 203.372 99.9124" fill="#1AB7B7"/>
<path d="M209.667 98.7217C209.667 98.7217 212.655 102.382 211.248 118.11L226.094 119.584L225.738 127.372C225.738 127.372 208.245 129.796 204.379 126.794C205.195 127.268 197.019 125.191 193.732 108.702L192.79 103.978L192.186 99.3904H197.367" fill="#58C1CC"/>
<mask id="mask5_1_2788" style="mask-type:alpha" maskUnits="userSpaceOnUse" x="167" y="98" width="60" height="31">
<path d="M203.378 99.9139L188.765 99.2205C188.765 99.2205 172.002 102.452 168.369 109.091C168.369 109.091 165.076 116.288 169.331 126.332L175.411 125.345L176.32 114.54C176.32 114.54 190.018 116.359 196.764 109.989C196.764 109.989 202.326 104.881 203.372 99.9124" fill="#1AB7B7"/>
<path d="M203.378 99.9139L188.765 99.2205C188.765 99.2205 172.002 102.452 168.369 109.091C168.369 109.091 165.076 116.288 169.331 126.332L175.411 125.345L176.32 114.54C176.32 114.54 190.018 116.359 196.764 109.989C196.764 109.989 202.326 104.881 203.372 99.9124" stroke="white" stroke-width="0.0969185" stroke-miterlimit="10"/>
<path d="M209.667 98.7217C209.667 98.7217 212.655 102.382 211.248 118.11L226.094 119.584L225.738 127.372C225.738 127.372 208.245 129.796 204.379 126.794C205.195 127.268 197.019 125.191 193.732 108.702L192.79 103.978L192.185 99.3904H197.367" fill="#58C1CC"/>
<path d="M209.667 98.7217C209.667 98.7217 212.655 102.382 211.248 118.11L226.094 119.584L225.738 127.372C225.738 127.372 208.245 129.796 204.379 126.794C205.195 127.268 197.019 125.191 193.732 108.702L192.79 103.978L192.185 99.3904H197.367" stroke="white" stroke-width="0.0969185" stroke-miterlimit="10"/>
</mask>
<g mask="url(#mask5_1_2788)">
<path d="M184.414 61.3621L243.547 101.201M182.53 64.1635L241.663 104.005M180.646 66.9672L239.781 106.808M178.762 69.7702L237.897 109.612M176.878 72.5739L236.013 112.413M174.996 75.3754L234.129 115.216M173.113 78.1784L232.246 118.02M171.229 80.9821L230.362 120.823M169.345 83.7858L228.48 123.625M167.462 86.5872L226.596 126.428M165.579 89.3902L224.713 129.232M163.695 92.1939L222.829 132.034M161.812 94.9969L220.945 134.836M159.928 97.7983L219.063 137.64M158.044 100.602L217.18 140.443M156.16 103.406L215.296 143.246M154.279 106.209L213.412 146.048M152.394 109.01L211.527 148.852M150.51 111.814L209.644 151.654M148.626 114.617L207.76 154.458M146.743 117.421L205.878 157.26" stroke="white" stroke-width="0.0969185" stroke-miterlimit="10"/>
</g>
<path d="M182.724 84.4425L178.354 83.2114C177.635 81.4185 176.93 79.6202 176.238 77.8167C175.66 76.3152 175.083 74.8205 174.527 73.31C173.874 71.5143 173.334 69.7245 172.445 68.0269C172.133 67.4293 171.706 66.8707 171.025 66.7149C170.143 66.5322 169.253 66.3937 168.358 66.3C167.892 66.2409 167.28 66.0769 166.841 66.2888C166.495 66.4565 166.072 66.8302 166.141 67.2653C166.257 67.9879 167.349 68.4215 167.903 68.6552C168.225 68.7952 168.556 68.921 168.887 69.0401C169.018 69.0843 170.082 69.3546 170.092 69.4257C170.397 71.8663 170.703 74.3068 171.012 76.7473C171.562 81.1154 171.221 85.4775 173.786 89.2711C176.288 92.9817 180.219 95.1938 184.675 93.7238C193.297 90.8782 182.718 84.4485 182.718 84.4485M200.991 69.7125C202.005 70.6336 203.017 70.4502 203.608 69.7125C204.154 69.0266 204.065 67.7745 203.018 67.5177C202.59 67.426 202.147 67.4394 201.725 67.5566C201.497 67.7256 201.289 67.9195 201.104 68.1347C200.719 68.5758 200.419 69.1958 200.991 69.7163" fill="#EFD1D8"/>
<path d="M200.246 70.8298C197.714 71.1728 196.532 69.3987 196.809 67.3057C196.932 66.3793 197.148 65.3796 197.742 64.6487C197.996 64.3095 198.32 64.0282 198.691 63.8235C199.062 63.6189 199.472 63.4956 199.894 63.4618C201.697 63.3734 203.236 64.9513 203.333 66.9859V67.0076C203.383 67.9134 203.096 68.8057 202.527 69.5117C201.959 70.2178 201.148 70.6875 200.254 70.8298" fill="#EFD1D8"/>
<path d="M201.707 68.7878C201.882 68.5585 202.129 68.3955 202.409 68.3255C202.689 68.2554 202.984 68.2824 203.246 68.4021C203.392 68.4695 203.31 68.7107 203.163 68.641C202.952 68.5388 202.712 68.5123 202.484 68.566C202.256 68.6197 202.054 68.7504 201.91 68.9361C201.812 69.0634 201.604 68.9226 201.702 68.7938" fill="black"/>
<path d="M198.588 69.4685L198.53 72.4602L200.691 72.5021L200.748 69.5104L198.588 69.4685Z" fill="#EFD1D8"/>
<path d="M198.58 67.0773C198.617 67.1239 198.67 67.1547 198.728 67.1634C198.758 67.1672 198.787 67.1649 198.816 67.1574C198.844 67.1493 198.871 67.1358 198.894 67.1177C198.944 67.0851 198.98 67.0339 198.993 66.9753C199.005 66.9168 198.995 66.8555 198.963 66.8047C198.945 66.7814 198.923 66.7619 198.897 66.7475C198.872 66.7331 198.843 66.724 198.814 66.7209C198.785 66.7172 198.756 66.7193 198.727 66.7268C198.699 66.735 198.673 66.7485 198.65 66.7665C198.625 66.7823 198.603 66.8029 198.586 66.8271C198.569 66.8513 198.557 66.8786 198.55 66.9075C198.544 66.9363 198.543 66.9662 198.548 66.9953C198.553 67.0245 198.564 67.0523 198.58 67.0773ZM197.312 68.2732C197.295 67.774 197.349 67.275 197.473 66.7912C197.51 66.6512 197.731 66.6782 197.695 66.8182C197.574 67.2835 197.522 67.7637 197.538 68.244C197.538 68.3871 197.317 68.4155 197.312 68.2732Z" fill="#010344"/>
<path d="M197.463 65.7084C198.279 65.7975 201.281 65.0382 201.383 66.78C201.41 67.2233 201.269 67.743 201.705 67.8434C201.826 67.856 201.948 67.8251 202.049 67.7563C202.149 67.6875 202.223 67.5852 202.255 67.4675C202.624 67.4552 202.992 67.5142 203.338 67.6412C204.029 64.8263 202.834 63.7591 202.063 63.7973C202.063 63.7973 200.365 60.5121 198.984 62.1484C198.984 62.1484 196.375 60.0845 195.236 62.8111C194.097 65.5369 197.458 65.7009 197.458 65.7009" fill="black"/>
<path d="M197.97 70.5042C198.417 70.7538 198.911 70.9063 199.421 70.9519C199.931 70.9974 200.445 70.9349 200.929 70.7685" stroke="black" stroke-width="0.193086" stroke-miterlimit="10"/>
<path d="M192.533 74.8437C192.501 76.462 195.441 77.8354 199.102 77.911C202.764 77.9859 205.756 76.7376 205.789 75.1193C205.822 73.5003 202.881 72.1269 199.222 72.0498C195.562 71.9726 192.566 73.2255 192.533 74.8437Z" fill="#EFD1D8"/>
<path d="M188.792 99.382L186.628 86.9023" stroke="black" stroke-width="0.193086" stroke-miterlimit="10"/>
<path d="M210.606 76.0225C210.606 76.0225 215.032 78.9437 215.782 81.1439M180.929 93.795C180.929 93.795 184.161 93.8819 185.901 92.3595" stroke="white" stroke-width="0.193086" stroke-miterlimit="10"/>
<path d="M178.056 86.8396C178.056 86.8396 182.013 88.055 183.899 86.7063M178.096 89.8006C178.096 89.8006 182.054 91.0167 183.94 89.6695" stroke="black" stroke-width="0.193086" stroke-miterlimit="10"/>
<path d="M168.947 68.5466C168.947 68.5466 166.768 68.6762 167.278 69.6317C167.278 69.6317 167.611 70.4525 169.997 69.3135" fill="#EFD1D8"/>
<path d="M168.947 68.5466C168.947 68.5466 166.768 68.6762 167.278 69.6317C167.278 69.6317 167.611 70.4525 169.997 69.3135M218.847 100.735C218.847 100.735 218.158 104.51 215.166 106.988" stroke="black" stroke-width="0.193086" stroke-miterlimit="10"/>
<path d="M218.566 88.589C218.475 84.8618 217.06 81.2893 214.574 78.5139C212.095 75.7626 208.743 73.9324 205.185 72.9956C204.981 72.9416 201.624 72.389 201.624 72.3867C201.624 72.4197 201.624 72.4504 201.637 72.4833C201.795 73.674 201.818 74.9688 200.627 75.9011C199.938 76.4425 198.933 76.4291 198.111 76.298C197.596 76.2365 197.107 76.0368 196.696 75.7199C195.649 74.8452 195.786 73.1438 196.056 72.019C196.056 72.019 188.168 72.9536 182.291 81.0263C181.371 82.2866 180.467 82.2941 177.932 82.2229C177.582 82.2132 177.449 83.9842 177.327 85.1787C177.134 87.0838 177.575 93.4752 177.68 94.481C177.68 94.481 183.603 96.0393 186.892 92.51L187.96 99.1613C189.706 100.481 191.712 101.414 193.846 101.897C194.788 102.114 195.747 102.247 196.713 102.292C199.107 102.405 201.614 102.232 203.969 101.496C205.389 101.051 207.163 100.663 208.63 99.9798L210.225 102.724C210.292 102.841 212.919 100.918 213.056 100.797C215.022 99.186 216.107 97.5056 217.192 95.1939C218.156 93.1263 218.626 90.8625 218.566 88.5815" fill="#467EF6"/>
<path d="M224.557 119.432L224.256 127.557" stroke="white" stroke-width="0.0969185" stroke-miterlimit="10" stroke-linecap="round"/>
<path d="M192.432 101.262C192.432 101.262 193.009 109.74 196.695 118.118" stroke="black" stroke-width="0.193086" stroke-miterlimit="10"/>
<path d="M53.6161 127.698L29.4051 128.045C29.0499 128.031 28.708 127.906 28.4276 127.687C28.1473 127.468 27.9427 127.166 27.8428 126.825L22.6473 106.939C22.4708 106.257 22.8822 105.692 23.5635 105.683L47.776 105.33C48.1311 105.343 48.4731 105.468 48.7534 105.687C49.0336 105.906 49.2377 106.208 49.3368 106.549L54.5323 126.435C54.7088 127.116 54.2974 127.681 53.6161 127.69" fill="white"/>
<path d="M53.6161 127.698L29.4051 128.045C29.0499 128.031 28.708 127.906 28.4276 127.687C28.1473 127.468 27.9427 127.166 27.8428 126.825L22.6473 106.939C22.4708 106.257 22.8822 105.692 23.5635 105.683L47.776 105.33C48.1311 105.343 48.4731 105.468 48.7534 105.687C49.0336 105.906 49.2377 106.208 49.3368 106.549L54.5323 126.435C54.7088 127.123 54.2974 127.688 53.6161 127.698Z" stroke="black" stroke-width="0.193086" stroke-miterlimit="10"/>
<path d="M55.769 127.698L31.5573 128.045C31.2019 128.031 30.8599 127.906 30.5794 127.687C30.2989 127.468 30.0942 127.166 29.9942 126.825L24.7987 106.939C24.6222 106.257 25.0335 105.692 25.7149 105.683L49.9258 105.33C50.2812 105.343 50.6233 105.468 50.9038 105.687C51.1843 105.906 51.3887 106.208 51.4881 106.549L56.6836 126.435C56.8601 127.116 56.4488 127.681 55.7675 127.69" fill="white"/>
<path d="M55.769 127.698L31.5573 128.045C31.2019 128.031 30.8599 127.906 30.5794 127.687C30.2989 127.468 30.0942 127.166 29.9942 126.825L24.7987 106.939C24.6222 106.257 25.0335 105.692 25.7149 105.683L49.9258 105.33C50.2812 105.343 50.6234 105.468 50.9039 105.687C51.1844 105.906 51.3888 106.208 51.4881 106.549L56.6836 126.435C56.8624 127.123 56.4503 127.688 55.769 127.698Z" stroke="black" stroke-width="0.193086" stroke-miterlimit="10"/>
<path d="M53.9705 125.335L32.8423 125.627C32.5397 125.621 32.2461 125.523 32.0018 125.344C31.7576 125.165 31.5747 124.914 31.4782 124.627L26.9386 108.324C26.783 107.766 27.1428 107.304 27.7373 107.294L48.8753 107.005C49.1754 107.013 49.4657 107.113 49.7066 107.293C49.9475 107.472 50.1273 107.721 50.2214 108.007L54.7611 124.309C54.9174 124.867 54.5569 125.33 53.9623 125.338" fill="#467EF6"/>
<path d="M185.97 103.982L56.6873 120.216C55.7255 120.335 54.7559 120.067 53.9906 119.472C53.2254 118.877 52.7268 118.002 52.6039 117.039L45.1454 57.5025C45.0276 56.5396 45.2953 55.5691 45.8898 54.8031C46.4844 54.0372 47.3576 53.5379 48.3186 53.4145L177.605 37.1696C178.567 37.0522 179.536 37.3204 180.3 37.9157C181.065 38.511 181.563 39.385 181.686 40.347L189.15 99.8952C189.268 100.858 189 101.828 188.406 102.594C187.811 103.36 186.938 103.858 185.978 103.982" fill="white"/>
<path d="M176.035 37.1912L49.8981 53.031C47.0368 53.3912 44.8948 55.2618 45.1357 57.1901L45.9501 63.6917L182.489 46.5437L181.675 40.0466C181.434 38.1198 179.65 36.4746 176.035 37.1912Z" fill="#CDE5F9"/>
<path d="M111.615 105.153L64.9965 111.051C64.9155 111.061 64.8331 111.056 64.7543 111.034C64.6754 111.013 64.6017 110.975 64.5373 110.925C64.4729 110.875 64.4189 110.813 64.3785 110.742C64.338 110.671 64.312 110.593 64.3017 110.512L64.2591 110.186C64.2388 110.022 64.2841 109.857 64.3852 109.726C64.4863 109.596 64.6348 109.511 64.7983 109.49L111.413 103.592C111.576 103.572 111.742 103.617 111.873 103.717C112.003 103.819 112.088 103.968 112.109 104.132L112.149 104.456C112.169 104.619 112.124 104.785 112.024 104.915C111.922 105.046 111.774 105.131 111.611 105.153M110.559 101.897L65.2074 107.635C64.8759 107.676 64.5414 107.585 64.2771 107.38C64.0136 107.174 63.8419 106.872 63.7992 106.54L63.7162 105.883C63.6855 105.635 63.7286 105.384 63.8401 105.161C63.9516 104.938 64.1265 104.753 64.3429 104.629C64.4865 104.546 64.645 104.494 64.8096 104.473L110.159 98.7352C110.323 98.7137 110.49 98.7251 110.65 98.7686C110.81 98.8122 110.96 98.8871 111.09 98.989C111.221 99.0906 111.331 99.2171 111.413 99.3613C111.495 99.5055 111.548 99.6645 111.568 99.8292L111.653 100.487C111.685 100.735 111.642 100.986 111.531 101.21C111.419 101.433 111.243 101.618 111.026 101.741C110.882 101.823 110.724 101.876 110.559 101.897Z" fill="#E1E4E8"/>
<path d="M229.346 117.041C229.346 117.041 235.522 116.381 236.369 122.544" stroke="black" stroke-width="0.145002" stroke-miterlimit="10"/>
<path d="M51.9979 37.9542C51.9916 37.9758 51.9826 37.9964 51.9709 38.0156C51.7922 38.2987 51.3554 38.1541 51.069 37.9811L37.3627 29.6546C37.2846 29.6182 37.2203 29.5575 37.1795 29.4816C37.068 29.2098 37.6132 29.1866 37.7568 29.1574L38.7672 28.9402L40.7939 28.5081L44.834 27.641L52.9162 25.9074L56.1097 25.2229L53.083 29.3057C53.032 29.3513 52.9907 29.4066 52.9614 29.4685C52.9321 29.5303 52.9154 29.5974 52.9124 29.6658C52.9094 29.7342 52.9201 29.8025 52.9439 29.8667C52.9677 29.9309 53.0041 29.9896 53.0509 30.0395L55.6445 34.2384L51.7825 33.7411V37.8823C51.7152 37.8074 51.852 37.6891 51.9365 37.7415C51.9675 37.765 51.9899 37.798 52.0003 37.8355C52.0107 37.873 52.0086 37.9128 51.9941 37.9489" fill="#CAE1F7"/>
<path d="M51.9979 37.9542C51.9916 37.9758 51.9826 37.9964 51.9709 38.0156C51.7922 38.2987 51.3554 38.1541 51.069 37.9811L37.3627 29.6546C37.2846 29.6182 37.2203 29.5575 37.1795 29.4816C37.068 29.2098 37.6132 29.1866 37.7568 29.1574L38.7672 28.9402L40.7939 28.5081L44.834 27.641L52.9162 25.9074L56.1097 25.2229L53.083 29.3057C53.032 29.3513 52.9907 29.4066 52.9614 29.4685C52.9321 29.5303 52.9154 29.5974 52.9124 29.6658C52.9094 29.7342 52.9201 29.8025 52.9439 29.8667C52.9677 29.9309 53.0041 29.9896 53.0509 30.0395L55.6445 34.2384L51.7825 33.7411V37.8823C51.7152 37.8074 51.852 37.6891 51.9365 37.7415C51.9692 37.7646 51.9931 37.7982 52.0043 37.8367C52.0154 37.8752 52.0132 37.9171 51.9979 37.9542Z" stroke="black" stroke-width="0.0969185" stroke-miterlimit="10"/>
<path d="M36.2718 29.3493L52.0109 38.7534C52.0759 38.6673 52.0453 38.5819 52.0475 38.501C52.0475 36.6573 52.0475 34.8152 52.0722 32.9715C52.0722 32.7917 52.0146 32.7288 51.8471 32.6869C48.5385 31.8235 45.2314 30.9571 41.9258 30.0869L41.6969 30.0232C41.7777 29.9079 41.8891 29.9506 41.9699 29.9424C45.6106 29.6653 49.2512 29.3919 52.8919 29.1216C52.9966 29.1192 53.0991 29.0913 53.1907 29.0405C53.2823 28.9896 53.3602 28.9172 53.4176 28.8296C54.3181 27.6404 55.2335 26.4609 56.1436 25.2762C56.1788 25.2313 56.2132 25.1834 56.2783 25.0928L36.2666 29.3493" fill="#467EF6"/>
<path d="M36.2715 29.3493L52.012 38.7534C52.0771 38.6673 52.0464 38.5819 52.0479 38.501C52.0479 36.6573 52.0479 34.8152 52.0733 32.9715C52.0733 32.7917 52.0158 32.7288 51.8482 32.6869C48.5396 31.8235 45.2325 30.9571 41.9269 30.0869L41.6981 30.0232C41.7788 29.9079 41.8903 29.9506 41.971 29.9424C45.6117 29.6653 49.2524 29.3919 52.893 29.1216C52.9976 29.1191 53.1 29.0912 53.1914 29.0403C53.2829 28.9894 53.3606 28.9171 53.418 28.8296C54.3185 27.6404 55.2354 26.4609 56.1448 25.2762C56.1792 25.2313 56.2143 25.1834 56.2794 25.0928L36.2715 29.3493Z" stroke="black" stroke-width="0.0969185" stroke-miterlimit="10"/>
<path d="M111.364 59.323L54.2656 66.8303L58.5652 99.6121L115.663 92.1049L111.364 59.323Z" fill="#58C1CC"/>
<path d="M111.364 59.323L54.2656 66.8303L58.5652 99.6121L115.663 92.1049L111.364 59.323Z" stroke="#020202" stroke-width="0.0961672" stroke-miterlimit="10"/>
<path d="M108.471 63.8237L86.2168 66.6387L89.2487 90.6664L111.502 87.8515L108.471 63.8237Z" fill="white"/>
<path d="M105.295 70.6974L102.261 78.4944L98.327 74.6199C98.2276 74.5203 98.066 74.5966 98.0122 74.703L91.837 86.8936C91.7158 87.1325 92.0965 87.292 92.2221 87.0576L98.2642 75.1291L102.226 79.0246C102.264 79.0535 102.31 79.0685 102.358 79.067C102.406 79.0655 102.451 79.0476 102.487 79.0164C102.512 78.9961 102.531 78.9704 102.544 78.9415C103.591 76.2441 104.64 73.5505 105.688 70.8591C105.786 70.6105 105.405 70.4487 105.302 70.6974" fill="#467EF6"/>
<path d="M93.1054 86.5236C93.1289 86.7066 93.0975 86.8925 93.0152 87.0576C92.9329 87.2227 92.8034 87.3595 92.6432 87.4507C92.4696 87.55 92.2687 87.5908 92.0702 87.567C91.8716 87.5432 91.686 87.4561 91.5407 87.3186C91.3954 87.1811 91.2982 87.0004 91.2633 86.8032C91.2284 86.6061 91.2578 86.403 91.3471 86.2238C91.4364 86.0447 91.5809 85.8991 91.7592 85.8085C91.9375 85.7179 92.1402 85.6871 92.3373 85.7207C92.5344 85.7543 92.7155 85.8505 92.8538 85.9951C92.9921 86.1397 93.0803 86.325 93.1054 86.5236ZM99.1744 75.0107C99.1975 75.1939 99.1659 75.3798 99.0837 75.5451C99.0014 75.7103 98.8722 75.8475 98.7122 75.9393C98.5927 76.0066 98.4597 76.0465 98.323 76.0563C98.1862 76.0661 98.0489 76.0456 97.921 75.996C97.7931 75.9465 97.6777 75.8693 97.5831 75.7699C97.4885 75.6705 97.417 75.5514 97.3737 75.4212C97.3304 75.2909 97.3164 75.1526 97.3328 75.0163C97.3491 74.8799 97.3953 74.7489 97.4681 74.6326C97.5409 74.5162 97.6385 74.4174 97.7539 74.3432C97.8693 74.269 97.9996 74.2213 98.1356 74.2035C98.3181 74.1806 98.5033 74.2123 98.6678 74.2947C98.8323 74.377 98.9688 74.5063 99.06 74.6663C99.1205 74.7726 99.1594 74.8894 99.1744 75.0107ZM103.137 78.913C103.161 79.0958 103.13 79.2814 103.048 79.4464C102.966 79.6113 102.837 79.7481 102.677 79.8393C102.517 79.9305 102.333 79.9721 102.15 79.9586C101.966 79.9451 101.791 79.8773 101.646 79.7637C101.537 79.6797 101.448 79.5724 101.386 79.4497C101.323 79.327 101.289 79.1919 101.285 79.0542C101.281 78.9166 101.308 78.7798 101.364 78.6538C101.419 78.5278 101.502 78.4158 101.606 78.3259C101.769 78.1845 101.975 78.104 102.19 78.0981C102.405 78.0922 102.615 78.1614 102.785 78.2937C102.882 78.3686 102.963 78.4619 103.023 78.5682C103.083 78.6745 103.122 78.7916 103.137 78.913ZM106.217 70.5798C106.239 70.7622 106.207 70.9472 106.125 71.1116C106.043 71.276 105.914 71.4124 105.755 71.5038C105.595 71.5953 105.412 71.6371 105.229 71.6241C105.045 71.611 104.87 71.5436 104.725 71.4305C104.616 71.3464 104.527 71.2392 104.465 71.1164C104.402 70.9937 104.368 70.8586 104.364 70.721C104.36 70.5833 104.387 70.4465 104.443 70.3206C104.498 70.1946 104.581 70.0826 104.685 69.9927C104.848 69.8514 105.054 69.771 105.269 69.7652C105.484 69.7595 105.695 69.8288 105.864 69.9612C106.059 70.1125 106.186 70.3349 106.217 70.5798Z" fill="#467EF6"/>
<path d="M114.635 64.2212C114.608 64.2246 114.581 64.2225 114.554 64.2152C114.528 64.2079 114.503 64.1955 114.482 64.1786C114.46 64.1618 114.443 64.1409 114.429 64.1171C114.416 64.0933 114.407 64.0671 114.404 64.04L113.548 57.2636L107.054 58.0866C107.002 58.0882 106.951 58.0703 106.912 58.0366C106.873 58.0029 106.847 57.9556 106.841 57.9041C106.834 57.8526 106.847 57.8004 106.877 57.7579C106.906 57.7153 106.951 57.6854 107.002 57.674L113.702 56.8263C113.756 56.8201 113.811 56.8357 113.854 56.8695C113.898 56.9034 113.926 56.953 113.933 57.0075L114.814 63.9898C114.821 64.0442 114.806 64.0991 114.772 64.1424C114.739 64.1858 114.689 64.2141 114.635 64.2212ZM51.5847 72.0595C51.5442 72.0643 51.5031 72.0572 51.4666 72.039C51.43 72.0207 51.3996 71.9922 51.379 71.9569C51.3656 71.9331 51.357 71.9069 51.3536 71.8797L50.507 65.1708C50.5031 65.1439 50.5046 65.1165 50.5116 65.0902C50.5185 65.064 50.5307 65.0394 50.5474 65.018C50.5641 64.9964 50.5849 64.9784 50.6087 64.965C50.6324 64.9516 50.6587 64.9431 50.6858 64.9401L57.6589 64.0572C57.6995 64.0525 57.7405 64.0596 57.777 64.0779C57.8135 64.0961 57.844 64.1246 57.8646 64.1598C57.8781 64.1834 57.8868 64.2094 57.8902 64.2364C57.8937 64.2634 57.8917 64.2907 57.8846 64.317C57.8774 64.3432 57.8652 64.3677 57.8485 64.3892C57.8319 64.4107 57.8112 64.4287 57.7876 64.4421C57.7642 64.4558 57.7382 64.4645 57.7113 64.4676L50.943 65.3235L51.7612 71.8281C51.7681 71.8824 51.7533 71.9373 51.7201 71.9808C51.7035 72.0025 51.6829 72.0206 51.6592 72.0341C51.6356 72.0476 51.6095 72.0563 51.5825 72.0595M62.6181 102.804C62.6215 102.831 62.6195 102.859 62.6124 102.885C62.6052 102.911 62.5929 102.936 62.5762 102.957C62.5596 102.979 62.5389 102.997 62.5153 103.01C62.4917 103.024 62.4656 103.033 62.4386 103.036L55.7384 103.884C55.6841 103.89 55.6294 103.876 55.5858 103.842C55.5641 103.826 55.546 103.805 55.5326 103.781C55.5192 103.757 55.5109 103.731 55.5081 103.704L54.6263 96.7215C54.6229 96.6946 54.6249 96.6672 54.632 96.641C54.6392 96.6148 54.6515 96.5903 54.6681 96.5689C54.6847 96.5474 54.7054 96.5294 54.729 96.516C54.7525 96.5025 54.7785 96.4939 54.8054 96.4905C54.8323 96.4871 54.8597 96.489 54.8858 96.4962C54.912 96.5034 54.9365 96.5157 54.9579 96.5323C54.9793 96.549 54.9972 96.5697 55.0107 96.5933C55.0241 96.6169 55.0328 96.6429 55.0361 96.6698L55.8925 103.448L62.387 102.612C62.4413 102.606 62.4959 102.621 62.5391 102.654C62.5823 102.688 62.6106 102.737 62.6181 102.791M118.514 96.07L111.541 96.9529C111.488 96.9572 111.435 96.9408 111.393 96.9071C111.352 96.8733 111.325 96.8248 111.318 96.7716C111.311 96.7185 111.325 96.6648 111.357 96.6217C111.389 96.5786 111.436 96.5494 111.489 96.5403L118.259 95.6851L117.437 89.182C117.43 89.1277 117.445 89.073 117.478 89.0297C117.512 88.9865 117.561 88.9583 117.615 88.9514C117.642 88.9471 117.67 88.9484 117.696 88.9554C117.723 88.9624 117.747 88.9748 117.769 88.9918C117.79 89.0084 117.809 89.0292 117.822 89.053C117.835 89.0769 117.844 89.1032 117.846 89.1304L118.695 95.8394C118.701 95.8939 118.686 95.9487 118.652 95.9918C118.618 96.035 118.569 96.0631 118.514 96.07Z" fill="black"/>
<path d="M83.0008 89.0068L62.6444 91.5829C62.5361 91.5961 62.427 91.5658 62.3408 91.4988C62.2547 91.4317 62.1985 91.3333 62.1845 91.225L62.1576 91.0108C62.1446 90.9024 62.1746 90.7933 62.2412 90.7069C62.3078 90.6205 62.4056 90.5637 62.5135 90.5487L82.87 87.9682C82.9782 87.9544 83.0874 87.9842 83.1736 88.0511C83.2599 88.1179 83.3161 88.2163 83.3299 88.3246L83.3568 88.5411C83.3702 88.6492 83.3402 88.7583 83.2735 88.8445C83.2068 88.9306 83.1088 88.9868 83.0008 89.0009M82.2986 86.0668L62.5943 88.5598C62.3995 88.5839 62.2031 88.5298 62.048 88.4093C61.893 88.2887 61.792 88.1115 61.7672 87.9165L61.7171 87.5309C61.6929 87.3358 61.747 87.1391 61.8674 86.9839C61.9878 86.8286 62.1648 86.7275 62.3595 86.7026L82.0638 84.2097C82.1603 84.1972 82.2583 84.204 82.3523 84.2296C82.4462 84.2552 82.5341 84.2992 82.611 84.359C82.6879 84.4188 82.7522 84.4932 82.8002 84.578C82.8483 84.6628 82.8791 84.7562 82.8909 84.853L82.9395 85.2386C82.9519 85.3352 82.9451 85.4332 82.9196 85.5271C82.894 85.621 82.8502 85.709 82.7907 85.7859C82.7312 85.8628 82.657 85.9273 82.5726 85.9755C82.4881 86.0237 82.395 86.0547 82.2986 86.0668ZM83.3187 91.5814L62.9705 94.1575C62.8618 94.1706 62.7523 94.1404 62.6658 94.0732C62.5793 94.0061 62.5227 93.9074 62.5083 93.7988L62.4814 93.5831C62.4685 93.4746 62.4988 93.3653 62.5659 93.2791C62.633 93.1928 62.7314 93.1366 62.8396 93.1226L83.196 90.548C83.3042 90.5344 83.4133 90.5643 83.4995 90.6311C83.5857 90.6979 83.642 90.7962 83.656 90.9045L83.6829 91.1209C83.6965 91.2292 83.6666 91.3384 83.5999 91.4248C83.5332 91.5111 83.435 91.5674 83.3269 91.5814" fill="white"/>
<path d="M176.847 81.7645L128.284 87.9089C128.095 87.9323 127.903 87.8993 127.732 87.8139C127.561 87.7285 127.419 87.5946 127.324 87.4289C127.262 87.3181 127.222 87.1963 127.206 87.0702L123.433 57.1692C123.408 56.9795 123.44 56.7865 123.525 56.6153C123.611 56.4441 123.746 56.3026 123.913 56.2091C124.023 56.1462 124.144 56.1058 124.27 56.0908L172.832 49.9457C173.021 49.922 173.213 49.955 173.384 50.0404C173.555 50.1258 173.696 50.2599 173.791 50.4257C173.854 50.5365 173.894 50.6579 173.909 50.7844L177.683 80.6854C177.708 80.875 177.676 81.0678 177.591 81.2389C177.506 81.4101 177.371 81.5517 177.205 81.6455C177.095 81.7084 176.973 81.7488 176.847 81.7645Z" fill="#467EF6"/>
<path d="M176.847 81.7645L128.284 87.9089C128.095 87.9323 127.903 87.8993 127.732 87.8139C127.561 87.7285 127.419 87.5946 127.324 87.4289C127.262 87.3181 127.222 87.1963 127.206 87.0702L123.433 57.1692C123.408 56.9795 123.44 56.7865 123.525 56.6153C123.611 56.4441 123.746 56.3026 123.913 56.2091C124.023 56.1462 124.144 56.1058 124.27 56.0908L172.832 49.9457C173.021 49.922 173.213 49.955 173.384 50.0404C173.555 50.1258 173.696 50.2599 173.791 50.4257C173.854 50.5365 173.894 50.6579 173.909 50.7844L177.683 80.6854C177.708 80.875 177.676 81.0678 177.591 81.2389C177.506 81.4101 177.371 81.5517 177.205 81.6455C177.095 81.7084 176.973 81.7488 176.847 81.7645Z" stroke="#211816" stroke-width="0.0969185" stroke-miterlimit="10"/>
<path d="M132.963 84.5773L131.406 84.7697C131.306 84.7829 131.204 84.7759 131.106 84.7491C131.008 84.7224 130.917 84.6764 130.837 84.614C130.676 84.4883 130.571 84.3039 130.546 84.101L130.444 83.2885C130.431 83.1865 130.438 83.0828 130.465 82.9835C130.492 82.8843 130.539 82.7914 130.602 82.7104C130.665 82.6289 130.743 82.5607 130.832 82.5098C130.921 82.4589 131.02 82.4263 131.122 82.4138L132.661 82.2206C132.863 82.1952 133.067 82.2511 133.229 82.3762C133.39 82.5013 133.495 82.6853 133.521 82.8878L133.625 83.7138C133.637 83.8143 133.63 83.9163 133.604 84.0139C133.577 84.1116 133.531 84.203 133.469 84.283C133.407 84.363 133.33 84.43 133.242 84.4801C133.154 84.5302 133.057 84.5624 132.957 84.575" fill="#F4F7FC"/>
<path d="M132.963 84.5773L131.406 84.7697C131.306 84.7829 131.204 84.7759 131.106 84.7491C131.008 84.7224 130.917 84.6764 130.837 84.614C130.676 84.4883 130.571 84.3039 130.546 84.101L130.444 83.2885C130.431 83.1865 130.438 83.0828 130.465 82.9835C130.492 82.8843 130.539 82.7914 130.602 82.7104C130.665 82.6289 130.743 82.5607 130.832 82.5098C130.921 82.4589 131.02 82.4263 131.122 82.4138L132.661 82.2206C132.863 82.1952 133.067 82.2511 133.229 82.3762C133.39 82.5013 133.495 82.6853 133.521 82.8878L133.625 83.7138C133.651 83.9161 133.595 84.1203 133.471 84.282C133.347 84.4437 133.165 84.5499 132.963 84.5773Z" stroke="#211816" stroke-width="0.0969185" stroke-miterlimit="10"/>
<path d="M137.582 83.9915L136.004 84.184C135.906 84.1969 135.805 84.1902 135.709 84.1641C135.613 84.1381 135.523 84.0932 135.444 84.0322C135.365 83.9712 135.299 83.8952 135.249 83.8085C135.2 83.7219 135.168 83.6263 135.156 83.5273L135.049 82.6908C135.025 82.4879 135.081 82.2836 135.206 82.1217C135.267 82.0415 135.344 81.9743 135.432 81.9242C135.52 81.8741 135.617 81.8419 135.717 81.8296L137.286 81.6372C137.434 81.6183 137.585 81.6439 137.719 81.7108C137.853 81.7777 137.964 81.8829 138.039 82.0131C138.088 82.0999 138.12 82.195 138.132 82.2939L138.24 83.1416C138.262 83.3412 138.206 83.5416 138.083 83.7004C137.96 83.8591 137.78 83.9636 137.582 83.9915Z" fill="#F4F7FC"/>
<path d="M137.582 83.9915L136.004 84.184C135.906 84.1969 135.805 84.1902 135.709 84.1641C135.613 84.1381 135.523 84.0932 135.444 84.0322C135.365 83.9712 135.299 83.8952 135.249 83.8085C135.2 83.7219 135.168 83.6263 135.156 83.5273L135.049 82.6908C135.025 82.4879 135.081 82.2836 135.206 82.1217C135.267 82.0415 135.344 81.9743 135.432 81.9242C135.52 81.8741 135.617 81.8419 135.717 81.8296L137.286 81.6372C137.434 81.6183 137.585 81.6439 137.719 81.7108C137.853 81.7777 137.964 81.8829 138.039 82.0131C138.088 82.0999 138.12 82.195 138.132 82.2939L138.24 83.1416C138.262 83.3412 138.206 83.5416 138.083 83.7004C137.96 83.8591 137.78 83.9636 137.582 83.9915Z" stroke="#211816" stroke-width="0.0969185" stroke-miterlimit="10"/>
<path d="M142.138 83.4159L140.558 83.6083C140.459 83.6212 140.359 83.6144 140.262 83.5882C140.166 83.5619 140.076 83.5169 139.998 83.4555C139.839 83.3319 139.735 83.1505 139.71 82.9508L139.606 82.1151C139.593 82.0148 139.6 81.9129 139.627 81.8154C139.653 81.7178 139.699 81.6264 139.76 81.5464C139.822 81.4664 139.899 81.3995 139.987 81.3493C140.075 81.2991 140.171 81.2667 140.271 81.2539L141.84 81.0607C141.939 81.0479 142.039 81.0548 142.135 81.0809C142.231 81.107 142.322 81.1519 142.4 81.213C142.479 81.2741 142.545 81.3502 142.595 81.4369C142.644 81.5235 142.676 81.6192 142.689 81.7182L142.794 82.5659C142.816 82.765 142.76 82.9649 142.637 83.1234C142.515 83.282 142.336 83.3868 142.138 83.4159Z" fill="#EC706B"/>
<path d="M142.138 83.4159L140.558 83.6083C140.459 83.6212 140.359 83.6144 140.262 83.5882C140.166 83.5619 140.076 83.5169 139.998 83.4555C139.839 83.3319 139.735 83.1505 139.71 82.9508L139.606 82.1151C139.593 82.0148 139.6 81.9129 139.627 81.8154C139.653 81.7178 139.699 81.6264 139.76 81.5464C139.822 81.4664 139.899 81.3995 139.987 81.3493C140.075 81.2991 140.171 81.2667 140.271 81.2539L141.84 81.0607C141.939 81.0479 142.039 81.0548 142.135 81.0809C142.231 81.107 142.322 81.1519 142.4 81.213C142.479 81.2741 142.545 81.3502 142.595 81.4369C142.644 81.5235 142.676 81.6192 142.689 81.7182L142.794 82.5659C142.816 82.765 142.76 82.9649 142.637 83.1234C142.515 83.282 142.336 83.3868 142.138 83.4159Z" stroke="#211816" stroke-width="0.0969185" stroke-miterlimit="10"/>
<path d="M81.3401 68.8755L59.2471 71.6702L60.6867 83.0805L82.7797 80.2858L81.3401 68.8755Z" fill="#467EF6"/>
<path d="M81.3401 68.8755L59.2471 71.6702L60.6867 83.0805L82.7797 80.2858L81.3401 68.8755Z" stroke="#211816" stroke-width="0.0969185" stroke-miterlimit="10"/>
<path d="M81.6559 79.9261C81.5912 79.934 81.5256 79.9274 81.4637 79.9067L60.2973 72.8719C60.1936 72.8306 60.1097 72.7511 60.0628 72.6497C60.0159 72.5482 60.0097 72.4327 60.0453 72.3268C60.0798 72.2205 60.1537 72.1315 60.2518 72.0781C60.3499 72.0247 60.4647 72.0111 60.5726 72.04L81.7389 79.0747C81.8095 79.0979 81.8729 79.1389 81.9233 79.1936C81.9736 79.2483 82.0092 79.3149 82.0265 79.3872C82.0439 79.4596 82.0426 79.5351 82.0226 79.6068C82.0026 79.6784 81.9647 79.7437 81.9124 79.7966C81.8433 79.8679 81.7521 79.9135 81.6537 79.9261" fill="white"/>
<path d="M61.6903 82.452C61.5916 82.4649 61.4915 82.4438 61.4064 82.3921C61.3214 82.3404 61.2565 82.2612 61.2224 82.1676C61.1883 82.074 61.1871 81.9716 61.219 81.8772C61.251 81.7828 61.314 81.7021 61.3979 81.6485L80.1591 69.5605C80.2567 69.5062 80.3713 69.491 80.4797 69.5179C80.5881 69.5449 80.6823 69.612 80.7432 69.7057C80.8041 69.7998 80.8266 69.9138 80.806 70.024C80.7854 70.1343 80.7233 70.2324 80.6325 70.2981L61.8713 82.3809C61.8168 82.4162 61.7548 82.4385 61.6903 82.446M69.0023 127.971H31.0282C30.474 131.297 33.7968 131.945 33.7968 131.945H69.0098C69.3869 131.943 69.7482 131.792 70.0149 131.525C70.2816 131.258 70.4321 130.896 70.4337 130.519V129.393C70.4329 129.015 70.2826 128.653 70.0158 128.386C69.7489 128.119 69.3872 127.968 69.0098 127.967" fill="white"/>
<path d="M69.0023 127.971H31.0282C30.474 131.297 33.7968 131.945 33.7968 131.945H69.0098C69.3872 131.944 69.7489 131.793 70.0158 131.526C70.2826 131.259 70.4329 130.897 70.4337 130.519V129.393C70.4331 129.206 70.3956 129.02 70.3233 128.847C70.2511 128.674 70.1454 128.517 70.0125 128.385C69.8795 128.253 69.7219 128.148 69.5485 128.077C69.3752 128.006 69.1896 127.97 69.0023 127.971Z" stroke="black" stroke-width="0.193086" stroke-miterlimit="10"/>
<path d="M43.9449 125.016C43.9453 125.126 43.9128 125.233 43.8518 125.324C43.7908 125.416 43.704 125.487 43.6024 125.529C43.4749 125.584 43.3313 125.589 43.2003 125.542C43.0693 125.496 42.9603 125.403 42.8951 125.28C42.8298 125.157 42.8131 125.014 42.8481 124.88C42.8831 124.745 42.9674 124.629 43.0841 124.554C43.1602 124.503 43.2474 124.472 43.3382 124.464C43.4289 124.455 43.5204 124.469 43.6046 124.503C43.6719 124.531 43.733 124.572 43.7844 124.623C43.8357 124.675 43.8763 124.736 43.9038 124.804C43.9315 124.871 43.9457 124.943 43.9449 125.016ZM39.1406 121.238C39.1409 121.394 39.0947 121.548 39.0077 121.678C38.9207 121.808 38.797 121.91 38.6522 121.969C38.5442 122.014 38.4275 122.035 38.3106 122.029C38.1937 122.023 38.0795 121.992 37.9763 121.937C37.8731 121.881 37.7834 121.804 37.7138 121.71C37.6442 121.615 37.5964 121.507 37.5738 121.392C37.5507 121.283 37.5509 121.17 37.5744 121.061C37.5978 120.952 37.6439 120.849 37.7097 120.759C37.7755 120.669 37.8595 120.594 37.9563 120.539C38.053 120.484 38.1603 120.45 38.2711 120.439C38.382 120.428 38.4939 120.44 38.5995 120.476C38.7051 120.511 38.8021 120.568 38.8842 120.644C38.9662 120.719 39.0315 120.811 39.0757 120.913C39.1198 121.016 39.142 121.126 39.1406 121.238Z" stroke="white" stroke-width="0.193086" stroke-miterlimit="10"/>
<path d="M23.3906 127.347C23.3906 127.451 23.3701 127.554 23.3304 127.65C23.2907 127.746 23.2325 127.834 23.159 127.907C23.0856 127.981 22.9985 128.039 22.9026 128.079C22.8067 128.119 22.7039 128.139 22.6001 128.139C22.4963 128.139 22.3935 128.119 22.2976 128.079C22.2017 128.039 22.1145 127.981 22.0411 127.907C21.9677 127.834 21.9095 127.746 21.8697 127.65C21.83 127.554 21.8096 127.451 21.8096 127.347C21.8096 127.138 21.8929 126.936 22.0411 126.788C22.1894 126.639 22.3904 126.556 22.6001 126.556C22.8097 126.556 23.0108 126.639 23.159 126.788C23.3073 126.936 23.3906 127.138 23.3906 127.347Z" stroke="black" stroke-width="0.0969185" stroke-miterlimit="10"/>
<path d="M49.4694 119.043C49.7183 119.043 49.957 118.944 50.133 118.767C50.309 118.591 50.4079 118.352 50.4079 118.103C50.4079 117.854 50.309 117.615 50.133 117.438C49.957 117.262 49.7183 117.163 49.4694 117.163C49.2204 117.163 48.9817 117.262 48.8057 117.438C48.6297 117.615 48.5308 117.854 48.5308 118.103C48.5308 118.352 48.6297 118.591 48.8057 118.767C48.9817 118.944 49.2204 119.043 49.4694 119.043ZM48.53 111.995C48.6556 111.999 48.7805 111.977 48.8975 111.931C49.0146 111.886 49.1212 111.817 49.2113 111.729C49.3013 111.642 49.3729 111.537 49.4218 111.421C49.4707 111.305 49.4959 111.181 49.4959 111.055C49.4959 110.929 49.4707 110.805 49.4218 110.689C49.3729 110.573 49.3013 110.468 49.2113 110.381C49.1212 110.293 49.0146 110.224 48.8975 110.179C48.7805 110.133 48.6556 110.111 48.53 110.115C48.2856 110.122 48.0535 110.224 47.883 110.399C47.7126 110.575 47.6172 110.81 47.6172 111.055C47.6172 111.3 47.7126 111.535 47.883 111.711C48.0535 111.886 48.2856 111.988 48.53 111.995Z" stroke="white" stroke-width="0.193086" stroke-miterlimit="10"/>
<path d="M33.9697 129.956H40.6909M43.212 129.956H44.8431" stroke="black" stroke-width="0.193086" stroke-miterlimit="10"/>
<path d="M85.2929 118.817L54.9628 122.913C54.4226 122.983 53.8766 122.836 53.4441 122.505C53.0116 122.173 52.7277 121.684 52.6542 121.143L52.1905 117.706C52.1193 117.163 52.2653 116.615 52.5964 116.179C52.9276 115.744 53.4172 115.458 53.9585 115.382L84.2803 111.282C84.8203 111.213 85.3658 111.36 85.7983 111.691C86.2307 112.022 86.5151 112.511 86.5897 113.051L87.0534 116.49C87.1243 117.032 86.9782 117.581 86.6469 118.016C86.3155 118.451 85.8259 118.737 85.2847 118.812" fill="#58C1CC"/>
<path d="M85.2929 118.817L54.9628 122.913C54.4226 122.983 53.8766 122.836 53.4441 122.505C53.0116 122.173 52.7277 121.684 52.6542 121.143L52.1905 117.706C52.1193 117.163 52.2653 116.615 52.5964 116.179C52.9276 115.744 53.4172 115.458 53.9585 115.382L84.2803 111.282C84.8203 111.213 85.3658 111.36 85.7983 111.691C86.2307 112.022 86.5151 112.511 86.5897 113.051L87.0534 116.49C87.1264 117.032 86.9822 117.581 86.6523 118.017C86.3225 118.453 85.8338 118.741 85.2929 118.817Z" stroke="#020202" stroke-width="0.0969185" stroke-miterlimit="10"/>
<path d="M85.7914 117.299L55.462 121.395C54.9202 121.467 54.3721 121.321 53.9376 120.989C53.5031 120.657 53.2176 120.167 53.1436 119.624L52.6799 116.187C52.6082 115.644 52.7548 115.094 53.0878 114.658C53.4207 114.223 53.9126 113.938 54.4554 113.866L84.7847 109.769C85.325 109.7 85.8707 109.847 86.3032 110.179C86.7357 110.51 87.0199 110.999 87.0942 111.54L87.5519 114.978C87.6235 115.519 87.4787 116.067 87.1489 116.501C86.8192 116.936 86.3313 117.223 85.7914 117.299Z" stroke="black" stroke-width="0.0969185" stroke-miterlimit="10"/>
<path d="M39.0713 113.756L38.2861 114.135M37.42 114.552L36.6348 114.932M38.4401 115.564L38.061 114.777M37.6459 113.91L37.2667 113.124" stroke="white" stroke-width="0.193086" stroke-miterlimit="10"/>
<path d="M50.9767 111.66L50.1914 112.039M27.1868 130.195L26.4015 130.573M25.5377 130.991L24.7524 131.368M26.5556 132L26.1786 131.214M25.7613 130.349L25.3844 129.563" stroke="#3458DF" stroke-width="0.193086" stroke-miterlimit="10"/>
<path d="M24.8818 121.908L24.0121 121.985M23.057 122.072L22.188 122.149M23.6546 123.376L23.5775 122.507M23.493 121.55L23.416 120.68" stroke="black" stroke-width="0.0969185" stroke-miterlimit="10"/>
<path d="M168.915 125.364L175.538 124.311" stroke="white" stroke-width="0.0969185" stroke-miterlimit="10" stroke-linecap="round"/>
<path d="M188.686 102.29C202.43 108.529 211.37 101.772 211.37 101.772L207.312 92.51L202.236 97.0548L188.138 100.444L185.848 100.66L183.967 99.6968C183.775 99.5979 183.353 99.8563 183.248 99.9956C182.732 100.679 183.213 101.392 183.75 101.874C184.042 102.127 184.356 102.354 184.687 102.554C184.941 102.712 185.401 103.132 185.709 103.045L188.682 102.284" fill="#EFD1D8"/>
<path d="M186.002 100.695C186.002 100.695 184.397 99.2107 185.403 98.8048C185.403 98.8048 186.184 98.3847 187.304 100.776" fill="#EFD1D8"/>
<path d="M186.002 100.695C186.002 100.695 184.397 99.2107 185.403 98.8048C185.403 98.8048 186.184 98.3847 187.304 100.776" stroke="black" stroke-width="0.193086" stroke-miterlimit="10"/>
<path d="M204.284 91.6983L211.036 102.783C211.036 102.783 217.915 93.8221 217.286 90.8835C217.299 91.6983 204.284 91.6983 204.284 91.6983Z" fill="#467EF6"/>
<path d="M207.045 84.2869C207.045 84.2869 208.885 90.5368 205.562 93.7951L211.036 102.784" stroke="black" stroke-width="0.193086" stroke-miterlimit="10"/>
<path d="M193.409 74.98C193.409 74.98 188.57 76.6754 187.636 79.3001M211.974 99.7753C211.974 99.7753 217.043 96.6923 217.286 90.8834M199.647 103.189C199.647 103.189 201.735 104.12 204.285 102.789" stroke="white" stroke-width="0.0969185" stroke-miterlimit="10"/>
<path d="M172.025 79.1557L151.436 81.6449C150.774 81.7238 150.109 81.537 149.584 81.1253C149.06 80.7137 148.72 80.1107 148.638 79.4485L146.152 58.8326C146.075 58.1705 146.262 57.5048 146.673 56.9804C147.084 56.4561 147.685 56.1154 148.346 56.0326L168.935 53.5434C169.596 53.4656 170.261 53.6528 170.785 54.0644C171.309 54.4759 171.649 55.0782 171.73 55.7398L174.216 76.3558C174.294 77.0181 174.107 77.6845 173.696 78.2094C173.286 78.7342 172.684 79.075 172.023 79.1572" fill="white"/>
<path d="M169.158 59.2391L164.844 59.7588C164.568 59.792 164.29 59.7143 164.072 59.5428C163.853 59.3712 163.711 59.1198 163.677 58.8437L163.62 58.3659C163.588 58.0901 163.666 57.8129 163.837 57.5944C164.008 57.3759 164.259 57.2337 164.534 57.1985L168.848 56.6765C169.124 56.6437 169.402 56.7218 169.62 56.8936C169.839 57.0654 169.98 57.317 170.014 57.5931L170.072 58.0709C170.105 58.3471 170.027 58.6252 169.856 58.8442C169.684 59.0632 169.433 59.2052 169.158 59.2391ZM170.309 70.5296L166.411 71.0014C166.08 71.0403 165.748 70.9467 165.486 70.741C165.224 70.5353 165.054 70.2342 165.014 69.9035L164.821 68.304C164.782 67.9731 164.876 67.6404 165.082 67.3785C165.287 67.1165 165.588 66.9464 165.918 66.9051L169.817 66.4333C170.147 66.3938 170.48 66.4871 170.742 66.6929C171.004 66.8987 171.174 67.2001 171.215 67.5312L171.407 69.1285C171.447 69.4597 171.353 69.793 171.148 70.0556C170.942 70.3181 170.641 70.4886 170.311 70.5296" fill="#CADFF7"/>
<path d="M170.371 61.4296L164.698 62.1155C164.67 62.1186 164.642 62.1108 164.62 62.0938C164.609 62.0855 164.6 62.0751 164.594 62.0633C164.587 62.0515 164.582 62.0384 164.581 62.0249V61.977C164.578 61.9492 164.586 61.9214 164.603 61.8995C164.62 61.8775 164.645 61.8631 164.673 61.8594L170.345 61.1734C170.359 61.1717 170.373 61.1727 170.386 61.1764C170.4 61.1802 170.412 61.1865 170.423 61.1952C170.445 61.2124 170.46 61.2378 170.463 61.2656V61.312C170.466 61.3398 170.458 61.3677 170.441 61.3899C170.423 61.4117 170.398 61.4259 170.371 61.4296ZM170.588 63.2216L164.905 63.9075C164.885 63.9099 164.864 63.9062 164.846 63.8971C164.828 63.8879 164.812 63.8736 164.802 63.8558C164.796 63.8437 164.792 63.8305 164.79 63.8169V63.769C164.788 63.7552 164.789 63.7413 164.792 63.7278C164.796 63.7143 164.802 63.7018 164.811 63.6911C164.819 63.6802 164.83 63.671 164.842 63.6642C164.854 63.6574 164.867 63.6531 164.88 63.6514L170.555 62.9655C170.583 62.9625 170.61 62.9705 170.632 62.9878C170.653 63.005 170.667 63.0301 170.671 63.0576V63.1055C170.674 63.1329 170.666 63.1604 170.649 63.1821C170.632 63.2038 170.607 63.218 170.58 63.2216M170.803 65.0128L165.129 65.701C165.101 65.704 165.074 65.6959 165.052 65.6787C165.031 65.6614 165.017 65.6364 165.014 65.6089V65.5602C165.012 65.5467 165.013 65.5329 165.017 65.5198C165.021 65.5065 165.027 65.4941 165.035 65.4831C165.044 65.4723 165.055 65.4634 165.067 65.4569C165.079 65.4503 165.092 65.4462 165.106 65.4449L170.778 64.759C170.792 64.7567 170.806 64.7575 170.819 64.7612C170.833 64.7649 170.845 64.771 170.856 64.7792C170.867 64.788 170.876 64.7987 170.883 64.8106C170.89 64.8226 170.894 64.8359 170.896 64.8496V64.8975C170.897 64.9113 170.896 64.9253 170.893 64.9387C170.884 64.9649 170.866 64.987 170.843 65.0008C170.83 65.0077 170.817 65.0118 170.803 65.0128ZM164.571 73.5625L151.486 75.1463C151.458 75.1486 151.431 75.1402 151.409 75.123C151.387 75.1058 151.373 75.0809 151.369 75.0535V75.0055C151.366 74.9779 151.374 74.9503 151.391 74.9284C151.409 74.9072 151.434 74.8933 151.461 74.8895L164.545 73.3056C164.573 73.3034 164.601 73.3117 164.622 73.3289C164.644 73.3461 164.658 73.3711 164.661 73.3985V73.4449C164.665 73.4725 164.657 73.5002 164.64 73.5221C164.623 73.5441 164.598 73.5586 164.571 73.5625ZM161.686 75.4698L151.665 76.6815C151.651 76.6834 151.638 76.6826 151.624 76.6792C151.604 76.6737 151.587 76.6623 151.573 76.6466C151.56 76.6309 151.551 76.6115 151.549 76.5909V76.5429C151.546 76.5153 151.553 76.4874 151.57 76.4651C151.578 76.4541 151.589 76.445 151.601 76.4382C151.613 76.4314 151.626 76.427 151.639 76.4254L161.661 75.2137C161.689 75.2107 161.716 75.2187 161.738 75.2359C161.76 75.2531 161.775 75.2782 161.778 75.3058V75.3523C161.781 75.3799 161.773 75.4076 161.756 75.4294C161.739 75.4512 161.714 75.4657 161.686 75.4698Z" fill="#3458DD"/>
<path d="M127.589 65.8224L145.448 63.4814M127.847 67.7874L142.065 65.9265M128.113 69.8302L139.069 68.3947M128.381 71.8709L144.263 69.7898M128.646 73.913L139.604 72.4774M128.913 75.9536L136.854 74.9127M129.18 77.9935L143.399 76.1326" stroke="white" stroke-width="0.193086" stroke-miterlimit="10"/>
<path d="M109.823 113.667C112.516 118.163 120.181 127.665 131.855 116.365C141.891 106.645 141.008 91.1882 134.903 79.5967C127.304 65.1633 111.935 59.782 99.4338 50.6669C87.4648 41.9383 76.7605 28.8947 78.8448 13.1433C80.4669 0.922014 96.5799 6.3572 97.0032 16.1957C97.2882 22.7714 89.2104 26.8257 84.0665 28.8753C75.9655 32.1028 67.0628 32.7439 58.436 33.4687" stroke="black" stroke-width="0.193086" stroke-miterlimit="10" stroke-dasharray="1.55 1.55"/>
<path d="M197.425 15.679C197.425 15.9099 197.357 16.1356 197.229 16.3277C197.101 16.5198 196.919 16.6698 196.706 16.7588C196.475 16.8551 196.219 16.8743 195.977 16.8138C195.734 16.7532 195.517 16.616 195.358 16.4225C195.199 16.2289 195.106 15.9893 195.093 15.739C195.081 15.4886 195.149 15.2409 195.288 15.0323C195.426 14.8238 195.629 14.6654 195.864 14.5807C196.1 14.496 196.356 14.4894 196.596 14.5619C196.836 14.6344 197.046 14.7821 197.195 14.9833C197.344 15.1844 197.425 15.4284 197.425 15.679ZM204.774 15.679C204.774 15.852 204.736 16.0229 204.662 16.1793C204.588 16.3357 204.48 16.4738 204.346 16.5835C204.213 16.6931 204.056 16.7718 203.889 16.8136C203.721 16.8555 203.546 16.8595 203.377 16.8255C203.15 16.78 202.942 16.6679 202.779 16.5034C202.616 16.3389 202.506 16.1296 202.463 15.9022C202.434 15.7431 202.438 15.5797 202.475 15.4223C202.512 15.2649 202.581 15.117 202.678 14.9878C202.775 14.8587 202.898 14.7512 203.039 14.6722C203.18 14.5932 203.336 14.5444 203.497 14.5289C203.658 14.5133 203.82 14.5314 203.973 14.582C204.127 14.6326 204.268 14.7146 204.388 14.8228C204.508 14.9309 204.604 15.0629 204.671 15.2103C204.737 15.3577 204.772 15.5173 204.774 15.679ZM212.122 15.679C212.122 15.9099 212.054 16.1356 211.926 16.3277C211.798 16.5198 211.616 16.6698 211.404 16.7588C211.173 16.8551 210.917 16.8743 210.674 16.8138C210.431 16.7532 210.214 16.616 210.055 16.4225C209.896 16.2289 209.803 15.9893 209.791 15.739C209.778 15.4886 209.846 15.2409 209.985 15.0323C210.124 14.8238 210.326 14.6654 210.561 14.5807C210.797 14.496 211.054 14.4894 211.293 14.5619C211.533 14.6344 211.743 14.7821 211.892 14.9833C212.041 15.1844 212.122 15.4284 212.122 15.679ZM219.468 15.679C219.468 15.852 219.43 16.0229 219.356 16.1793C219.282 16.3357 219.175 16.4737 219.041 16.5834C218.908 16.6932 218.751 16.7718 218.584 16.8136C218.416 16.8555 218.241 16.8595 218.072 16.8255C217.845 16.7795 217.637 16.6672 217.474 16.5028C217.312 16.3385 217.201 16.1294 217.157 15.9022C217.114 15.6748 217.139 15.4397 217.229 15.2265C217.319 15.0133 217.47 14.8315 217.663 14.704C217.838 14.588 218.042 14.5219 218.252 14.5126C218.462 14.5033 218.671 14.5512 218.856 14.6512C219.042 14.7512 219.196 14.8996 219.304 15.0806C219.412 15.2615 219.468 15.4683 219.468 15.679ZM226.817 15.679C226.818 15.91 226.75 16.136 226.623 16.3283C226.495 16.5206 226.313 16.6705 226.099 16.7588C225.868 16.8553 225.612 16.8747 225.37 16.8143C225.127 16.7538 224.909 16.6168 224.75 16.4233C224.591 16.2298 224.498 15.9902 224.486 15.7399C224.473 15.4896 224.541 15.2418 224.68 15.0331C224.818 14.8245 225.02 14.666 225.256 14.5812C225.492 14.4964 225.748 14.4897 225.988 14.5621C226.227 14.6345 226.437 14.7822 226.587 14.9833C226.736 15.1844 226.817 15.4283 226.817 15.679ZM234.164 15.679C234.165 15.9101 234.097 16.1362 233.969 16.3285C233.841 16.5208 233.658 16.6706 233.445 16.7588C233.214 16.8549 232.958 16.8741 232.716 16.8135C232.473 16.7528 232.256 16.6157 232.097 16.4223C231.939 16.2289 231.846 15.9894 231.833 15.7393C231.821 15.4892 231.889 15.2416 232.028 15.0332C232.166 14.8248 232.368 14.6666 232.604 14.582C232.839 14.4973 233.095 14.4907 233.335 14.563C233.574 14.6354 233.784 14.783 233.933 14.9839C234.083 15.1849 234.163 15.4286 234.164 15.679ZM197.425 22.8448C197.427 23.0766 197.36 23.3038 197.233 23.4975C197.106 23.6911 196.924 23.8425 196.71 23.9323C196.497 24.022 196.261 24.0462 196.034 24.0016C195.807 23.9571 195.598 23.8458 195.434 23.682C195.271 23.5178 195.16 23.3087 195.116 23.0813C195.072 22.8539 195.096 22.6184 195.186 22.4048C195.275 22.1912 195.426 22.0091 195.619 21.8816C195.812 21.754 196.039 21.6869 196.27 21.6886C196.576 21.6911 196.868 21.8137 197.084 22.03C197.3 22.2463 197.423 22.5389 197.425 22.8448ZM204.774 22.8448C204.774 23.0761 204.705 23.3022 204.577 23.4944C204.448 23.6866 204.266 23.8363 204.052 23.9246C203.839 24.0128 203.604 24.0356 203.377 23.99C203.151 23.9444 202.943 23.8325 202.78 23.6685C202.645 23.5324 202.546 23.3651 202.491 23.1815C202.436 22.9978 202.427 22.8035 202.465 22.6155C202.503 22.4276 202.586 22.2519 202.708 22.104C202.83 21.956 202.986 21.8404 203.163 21.7673C203.34 21.6942 203.532 21.6658 203.723 21.6847C203.913 21.7036 204.096 21.7692 204.256 21.8757C204.415 21.9822 204.545 22.1264 204.636 22.2954C204.726 22.4644 204.774 22.6531 204.774 22.8448ZM212.122 22.8448C212.122 23.0757 212.054 23.3014 211.926 23.4935C211.798 23.6856 211.616 23.8356 211.404 23.9246C211.173 24.0207 210.917 24.0398 210.674 23.9792C210.432 23.9186 210.215 23.7815 210.056 23.5881C209.897 23.3947 209.805 23.1552 209.792 22.9051C209.779 22.655 209.848 22.4074 209.986 22.199C210.125 21.9906 210.327 21.8324 210.562 21.7478C210.798 21.6631 211.054 21.6565 211.293 21.7288C211.533 21.8012 211.743 21.9488 211.892 22.1497C212.041 22.3507 212.122 22.5943 212.122 22.8448ZM219.468 22.8448C219.468 22.9982 219.438 23.1502 219.38 23.292C219.322 23.4339 219.236 23.5628 219.128 23.6715C219.02 23.7802 218.891 23.8665 218.75 23.9255C218.608 23.9844 218.457 24.015 218.304 24.0152C218.15 24.0155 217.999 23.9856 217.857 23.9272C217.715 23.8687 217.587 23.7829 217.478 23.6747C217.369 23.5664 217.283 23.4378 217.224 23.2962C217.165 23.1545 217.135 23.0027 217.135 22.8493C217.134 22.5395 217.256 22.2421 217.475 22.0226C217.693 21.8031 217.99 21.6794 218.299 21.6788C218.609 21.6782 218.906 21.8007 219.125 22.0194C219.344 22.2381 219.467 22.535 219.468 22.8448ZM226.817 22.8448C226.818 23.0758 226.75 23.3018 226.623 23.4941C226.495 23.6864 226.313 23.8362 226.099 23.9246C225.869 24.0209 225.613 24.0402 225.37 23.9797C225.127 23.9193 224.91 23.7823 224.751 23.5889C224.592 23.3956 224.5 23.1562 224.487 22.906C224.474 22.6559 224.542 22.4083 224.681 22.1998C224.82 21.9913 225.021 21.833 225.257 21.7482C225.492 21.6635 225.749 21.6567 225.988 21.729C226.228 21.8013 226.437 21.9488 226.587 22.1497C226.736 22.3506 226.817 22.5943 226.817 22.8448ZM234.164 22.8448C234.165 23.0759 234.097 23.302 233.969 23.4943C233.841 23.6865 233.658 23.8364 233.445 23.9246C233.286 23.9912 233.114 24.0215 232.942 24.0133C232.769 24.0052 232.601 23.9588 232.449 23.8775C232.297 23.7962 232.164 23.6821 232.061 23.5434C231.959 23.4047 231.888 23.2449 231.854 23.0754C231.809 22.8488 231.833 22.6139 231.921 22.4004C232.009 22.1869 232.158 22.0043 232.35 21.8758C232.526 21.7582 232.73 21.6904 232.94 21.6799C233.151 21.6693 233.361 21.7163 233.547 21.8158C233.733 21.9153 233.889 22.0636 233.998 22.2448C234.106 22.4261 234.164 22.6334 234.164 22.8448ZM197.425 30.0143C197.427 30.2456 197.36 30.4723 197.234 30.6657C197.107 30.859 196.926 31.0105 196.713 31.1009C196.554 31.1686 196.382 31.1999 196.209 31.1926C196.037 31.1854 195.868 31.1398 195.715 31.059C195.562 30.9783 195.429 30.8645 195.325 30.7259C195.222 30.5873 195.151 30.4274 195.116 30.2577C195.067 30.0125 195.098 29.7579 195.204 29.5314C195.31 29.3049 195.486 29.1185 195.706 28.9996C195.926 28.8807 196.178 28.8356 196.425 28.8709C196.672 28.9063 196.902 29.0201 197.08 29.1958C197.298 29.4122 197.422 29.7065 197.425 30.0143ZM204.774 30.0143C204.776 30.1879 204.74 30.3598 204.667 30.5174C204.594 30.675 204.487 30.8143 204.354 30.9252C204.221 31.0361 204.064 31.1158 203.896 31.1584C203.728 31.2009 203.553 31.2054 203.383 31.1713C203.096 31.1164 202.841 30.956 202.667 30.7217C202.493 30.4875 202.413 30.1964 202.442 29.9059C202.472 29.6154 202.609 29.3466 202.827 29.1525C203.045 28.9584 203.327 28.8531 203.619 28.8573C203.925 28.8601 204.217 28.9829 204.433 29.1993C204.649 29.4157 204.771 29.7084 204.774 30.0143ZM212.122 30.0143C212.124 30.2456 212.058 30.4723 211.931 30.6657C211.804 30.859 211.623 31.0105 211.41 31.1009C211.251 31.1686 211.079 31.1999 210.907 31.1926C210.734 31.1854 210.565 31.1398 210.412 31.059C210.259 30.9783 210.126 30.8645 210.023 30.7259C209.919 30.5873 209.848 30.4274 209.814 30.2577C209.779 30.088 209.782 29.9126 209.823 29.7443C209.864 29.5759 209.942 29.4189 210.052 29.2847C210.161 29.1505 210.299 29.0425 210.456 28.9686C210.612 28.8946 210.783 28.8566 210.956 28.8573C211.264 28.8571 211.559 28.9785 211.777 29.1951C211.996 29.4116 212.12 29.7066 212.122 30.0143ZM219.469 30.0143C219.47 30.1876 219.433 30.359 219.361 30.5162C219.288 30.6734 219.181 30.8124 219.048 30.9232C218.915 31.0339 218.759 31.1137 218.591 31.1566C218.423 31.1995 218.248 31.2045 218.078 31.1713C217.862 31.1288 217.662 31.0257 217.502 30.8741C217.342 30.7224 217.228 30.5283 217.173 30.3143C217.119 30.1004 217.126 29.8754 217.194 29.6653C217.262 29.4553 217.388 29.2689 217.558 29.1278C217.727 28.9867 217.933 28.8966 218.152 28.868C218.371 28.8394 218.593 28.8735 218.793 28.9664C218.993 29.0592 219.163 29.2069 219.282 29.3924C219.402 29.5779 219.467 29.7935 219.469 30.0143ZM226.817 30.0143C226.82 30.2457 226.754 30.4726 226.627 30.6662C226.501 30.8597 226.319 31.011 226.106 31.1009C225.876 31.1985 225.621 31.2195 225.378 31.1606C225.135 31.1018 224.917 30.9663 224.757 30.7742C224.596 30.582 224.502 30.3434 224.488 30.0935C224.473 29.8436 224.539 29.5956 224.676 29.3862C224.813 29.1768 225.014 29.017 225.248 28.9304C225.483 28.8439 225.739 28.8351 225.979 28.9054C226.219 28.9757 226.43 29.1213 226.581 29.3209C226.732 29.5204 226.815 29.764 226.817 30.0143ZM234.164 30.0143C234.166 30.2456 234.099 30.4723 233.972 30.6657C233.846 30.859 233.664 31.0105 233.452 31.1009C233.293 31.1686 233.121 31.1999 232.948 31.1926C232.775 31.1854 232.606 31.1398 232.453 31.059C232.301 30.9783 232.168 30.8645 232.064 30.7259C231.961 30.5873 231.889 30.4274 231.855 30.2577C231.823 30.0983 231.824 29.934 231.859 29.7753C231.894 29.6165 231.962 29.4668 232.058 29.3357C232.154 29.2046 232.276 29.0951 232.417 29.0141C232.558 28.9331 232.714 28.8825 232.875 28.8654C233.037 28.8483 233.2 28.8652 233.355 28.9149C233.509 28.9647 233.652 29.0462 233.773 29.1543C233.894 29.2624 233.992 29.3947 234.059 29.5426C234.126 29.6906 234.162 29.8518 234.164 30.0143ZM197.425 37.1809C197.425 37.4119 197.357 37.6377 197.229 37.83C197.101 38.0223 196.919 38.1724 196.706 38.2615C196.475 38.3575 196.22 38.3767 195.977 38.3161C195.734 38.2555 195.518 38.1183 195.359 37.9249C195.2 37.7315 195.107 37.492 195.095 37.2419C195.082 36.9918 195.15 36.7443 195.289 36.5359C195.428 36.3275 195.63 36.1692 195.865 36.0846C196.1 35.9999 196.357 35.9933 196.596 36.0657C196.836 36.138 197.045 36.2856 197.195 36.4865C197.344 36.6875 197.425 36.9304 197.425 37.1809ZM204.774 37.1809C204.774 37.4122 204.705 37.6384 204.577 37.8308C204.449 38.0231 204.266 38.1729 204.052 38.2612C203.839 38.3496 203.604 38.3724 203.377 38.3268C203.151 38.2813 202.943 38.1694 202.78 38.0054C202.646 37.8692 202.547 37.702 202.492 37.5186C202.437 37.3351 202.429 37.1411 202.467 36.9534C202.505 36.7658 202.588 36.5904 202.71 36.4427C202.831 36.2951 202.987 36.1796 203.164 36.1066C203.341 36.0336 203.533 36.0052 203.723 36.0241C203.913 36.0429 204.096 36.1083 204.255 36.2145C204.414 36.3207 204.545 36.4645 204.635 36.6332C204.726 36.8018 204.773 36.9894 204.774 37.1809ZM212.122 37.1809C212.122 37.4119 212.054 37.6377 211.926 37.83C211.798 38.0223 211.617 38.1724 211.404 38.2615C211.173 38.3577 210.917 38.377 210.674 38.3164C210.431 38.2558 210.214 38.1186 210.055 37.9251C209.896 37.7315 209.803 37.4919 209.791 37.2416C209.778 36.9913 209.846 36.7435 209.985 36.5349C210.124 36.3264 210.326 36.168 210.561 36.0833C210.797 35.9986 211.054 35.992 211.293 36.0645C211.533 36.137 211.743 36.2847 211.892 36.4859C212.041 36.6871 212.122 36.9302 212.122 37.1809ZM219.468 37.1809C219.469 37.4907 219.346 37.7881 219.128 38.0077C219.02 38.1164 218.892 38.2027 218.75 38.2618C218.609 38.3208 218.457 38.3514 218.304 38.3517C217.995 38.3524 217.698 38.23 217.478 38.0114C217.259 37.7928 217.135 37.4959 217.135 37.1861C217.134 36.8763 217.256 36.5789 217.475 36.3594C217.693 36.1399 217.99 36.0162 218.299 36.0156C218.609 36.0151 218.906 36.1376 219.125 36.3562C219.344 36.5749 219.467 36.871 219.468 37.1809ZM226.817 37.1809C226.818 37.412 226.751 37.6382 226.623 37.8306C226.495 38.023 226.313 38.173 226.099 38.2615C225.868 38.3579 225.612 38.3773 225.37 38.3169C225.127 38.2565 224.909 38.1194 224.75 37.9259C224.591 37.7325 224.498 37.4929 224.486 37.2425C224.473 36.9922 224.541 36.7444 224.68 36.5357C224.818 36.3271 225.02 36.1686 225.256 36.0838C225.492 35.999 225.748 35.9923 225.988 36.0647C226.227 36.1371 226.437 36.2848 226.587 36.4859C226.736 36.687 226.817 36.9302 226.817 37.1809ZM234.164 37.1809C234.165 37.4121 234.097 37.6383 233.969 37.8308C233.841 38.0232 233.659 38.1731 233.445 38.2615C233.177 38.3748 232.877 38.3839 232.603 38.287C232.329 38.19 232.101 37.994 231.964 37.7374C231.827 37.4807 231.79 37.1821 231.862 36.9C231.933 36.6179 232.107 36.3727 232.35 36.2126C232.526 36.095 232.73 36.0273 232.94 36.0167C233.151 36.0062 233.361 36.0531 233.547 36.1526C233.733 36.2521 233.889 36.4004 233.998 36.5817C234.106 36.7629 234.164 36.9695 234.164 37.1809ZM197.425 44.3511C197.425 44.5819 197.356 44.8074 197.228 44.9993C197.1 45.1911 196.918 45.3408 196.705 45.4295C196.546 45.4955 196.374 45.5253 196.202 45.5168C196.029 45.5083 195.861 45.4617 195.709 45.3803C195.557 45.299 195.425 45.1849 195.322 45.0463C195.22 44.9077 195.149 44.7481 195.115 44.5788C195.059 44.2945 195.11 43.9995 195.259 43.7511C195.408 43.5026 195.644 43.3185 195.921 43.2344C196.198 43.1503 196.496 43.1723 196.758 43.296C197.019 43.4198 197.226 43.6365 197.337 43.9041C197.395 44.0456 197.425 44.1976 197.425 44.3511ZM204.774 44.3511C204.774 44.5825 204.706 44.8088 204.577 45.001C204.448 45.1932 204.265 45.3426 204.051 45.4303C203.82 45.5257 203.564 45.544 203.321 45.4827C203.079 45.4213 202.862 45.2835 202.704 45.0895C202.546 44.8956 202.454 44.6557 202.442 44.4054C202.43 44.1551 202.499 43.9077 202.638 43.6995C202.777 43.4914 202.98 43.3337 203.216 43.2496C203.451 43.1655 203.708 43.1595 203.947 43.2325C204.187 43.3056 204.396 43.4537 204.545 43.6552C204.694 43.8566 204.774 44.1006 204.774 44.3511ZM212.122 44.3511C212.122 44.5819 212.053 44.8074 211.925 44.9993C211.797 45.1911 211.615 45.3408 211.402 45.4295C211.243 45.4955 211.071 45.5253 210.899 45.5168C210.727 45.5083 210.559 45.4617 210.406 45.3803C210.254 45.299 210.122 45.1849 210.02 45.0463C209.917 44.9077 209.846 44.7481 209.812 44.5788C209.756 44.2945 209.808 43.9995 209.956 43.7511C210.105 43.5026 210.341 43.3185 210.618 43.2344C210.895 43.1503 211.193 43.1723 211.455 43.296C211.717 43.4198 211.923 43.6365 212.034 43.9041C212.093 44.0456 212.122 44.1976 212.122 44.3511ZM219.468 44.3511C219.468 44.5825 219.4 44.8088 219.271 45.001C219.142 45.1932 218.959 45.3426 218.746 45.4303C218.514 45.5257 218.258 45.544 218.016 45.4827C217.773 45.4213 217.557 45.2835 217.398 45.0895C217.24 44.8956 217.148 44.6557 217.136 44.4054C217.124 44.1551 217.193 43.9077 217.332 43.6995C217.472 43.4914 217.674 43.3337 217.91 43.2496C218.146 43.1655 218.402 43.1595 218.641 43.2325C218.881 43.3056 219.09 43.4537 219.239 43.6552C219.388 43.8566 219.468 44.1006 219.468 44.3511ZM226.817 44.3511C226.817 44.5819 226.748 44.8074 226.62 44.9992C226.492 45.1911 226.311 45.3408 226.098 45.4295C225.939 45.4955 225.767 45.5253 225.595 45.5168C225.422 45.5083 225.254 45.4617 225.102 45.3803C224.95 45.299 224.818 45.1849 224.715 45.0463C224.613 44.9077 224.542 44.7481 224.508 44.5788C224.459 44.333 224.49 44.0779 224.597 43.8513C224.704 43.6247 224.881 43.4385 225.102 43.3203C225.323 43.2021 225.576 43.1581 225.823 43.1949C226.071 43.2316 226.3 43.3472 226.477 43.5244C226.695 43.744 226.818 44.0413 226.817 44.3511ZM234.164 44.3511C234.164 44.582 234.096 44.8078 233.968 44.9998C233.84 45.1918 233.657 45.3414 233.444 45.4295C233.231 45.5176 232.997 45.5405 232.771 45.4955C232.545 45.4504 232.337 45.3394 232.174 45.1764C232.01 45.0135 231.899 44.8055 231.854 44.5788C231.809 44.3522 231.832 44.1173 231.921 43.9041C232.024 43.6539 232.21 43.4472 232.448 43.3194C232.686 43.1916 232.961 43.1506 233.226 43.2034C233.491 43.2562 233.729 43.3996 233.9 43.6089C234.072 43.8183 234.165 44.0807 234.164 44.3511ZM197.425 51.5184C197.425 51.691 197.387 51.8614 197.313 52.0174C197.239 52.1734 197.131 52.311 196.998 52.4205C196.865 52.53 196.709 52.6085 196.542 52.6505C196.375 52.6925 196.2 52.6969 196.031 52.6634C195.814 52.6203 195.614 52.5164 195.454 52.3638C195.294 52.2112 195.18 52.0162 195.127 51.8015C195.073 51.5868 195.081 51.3612 195.151 51.151C195.22 50.9409 195.348 50.7548 195.519 50.6144C195.689 50.474 195.897 50.3852 196.116 50.3581C196.335 50.3311 196.558 50.3671 196.758 50.4618C196.958 50.5565 197.126 50.7061 197.245 50.8932C197.363 51.0803 197.425 51.2971 197.425 51.5184ZM204.774 51.5184C204.773 51.7497 204.705 51.9757 204.576 52.1677C204.447 52.3598 204.265 52.5092 204.051 52.5972C203.837 52.6852 203.602 52.7077 203.376 52.6619C203.15 52.6161 202.942 52.504 202.779 52.3399C202.616 52.1757 202.506 51.9665 202.462 51.739C202.418 51.5116 202.443 51.2762 202.534 51.0631C202.623 50.8498 202.775 50.668 202.968 50.5412C203.161 50.4143 203.388 50.3481 203.619 50.351C203.927 50.353 204.221 50.4769 204.437 50.6958C204.654 50.9146 204.775 51.2104 204.774 51.5184ZM212.122 51.5184C212.122 51.691 212.084 51.8614 212.01 52.0174C211.936 52.1734 211.829 52.311 211.695 52.4205C211.562 52.53 211.406 52.6085 211.239 52.6505C211.072 52.6925 210.897 52.6969 210.728 52.6634C210.512 52.6203 210.311 52.5164 210.151 52.3638C209.991 52.2112 209.878 52.0162 209.824 51.8015C209.77 51.5868 209.779 51.3612 209.848 51.151C209.917 50.9409 210.045 50.7548 210.216 50.6144C210.387 50.474 210.594 50.3852 210.813 50.3581C211.033 50.3311 211.255 50.3671 211.455 50.4618C211.655 50.5565 211.824 50.7061 211.942 50.8932C212.06 51.0803 212.123 51.2971 212.122 51.5184ZM219.468 51.5184C219.468 51.7497 219.399 51.9757 219.27 52.1677C219.141 52.3598 218.959 52.5092 218.745 52.5972C218.532 52.6852 218.297 52.7077 218.07 52.6619C217.844 52.6161 217.636 52.504 217.473 52.3399C217.352 52.2168 217.26 52.0683 217.203 51.9051C217.146 51.7419 217.126 51.5681 217.144 51.3961C217.162 51.2242 217.218 51.0584 217.307 50.9107C217.397 50.763 217.518 50.6371 217.663 50.5419C217.888 50.3949 218.157 50.3299 218.424 50.358C218.692 50.3861 218.942 50.5055 219.132 50.6962C219.348 50.9149 219.469 51.2107 219.468 51.5184ZM226.817 51.5184C226.817 51.691 226.779 51.8614 226.705 52.0174C226.631 52.1733 226.524 52.311 226.391 52.4205C226.258 52.53 226.102 52.6085 225.935 52.6505C225.768 52.6926 225.593 52.697 225.424 52.6634C225.207 52.6204 225.007 52.5166 224.847 52.3641C224.687 52.2115 224.573 52.0166 224.519 51.8018C224.465 51.5871 224.474 51.3615 224.543 51.1513C224.612 50.9411 224.74 50.7549 224.911 50.6145C225.081 50.474 225.289 50.3851 225.508 50.358C225.728 50.331 225.95 50.3669 226.15 50.4616C226.35 50.5564 226.519 50.706 226.637 50.8931C226.755 51.0802 226.818 51.2971 226.817 51.5184ZM234.164 51.5184C234.164 51.7494 234.096 51.9753 233.968 52.1674C233.84 52.3594 233.658 52.5089 233.444 52.5968C233.231 52.6849 232.997 52.7078 232.771 52.6628C232.545 52.6177 232.337 52.5067 232.174 52.3437C232.01 52.1807 231.899 51.9727 231.854 51.7461C231.809 51.5195 231.832 51.2846 231.921 51.0714C232.024 50.8212 232.21 50.6145 232.448 50.4867C232.686 50.3589 232.961 50.3179 233.226 50.3707C233.491 50.4235 233.729 50.5668 233.9 50.7762C234.072 50.9856 234.165 51.2479 234.164 51.5184Z" fill="white"/>
<path d="M162.597 70.9458L151.244 72.3095C150.977 72.3384 150.709 72.2605 150.499 72.0928C150.289 71.925 150.153 71.6811 150.122 71.4139L148.741 59.8748C148.707 59.6075 148.78 59.3377 148.944 59.1245C149.109 58.9114 149.351 58.7723 149.618 58.738L160.971 57.3758C161.103 57.3608 161.237 57.3721 161.365 57.409C161.493 57.4459 161.613 57.5077 161.717 57.5909C161.821 57.674 161.908 57.777 161.972 57.8937C162.037 58.0105 162.078 58.1389 162.092 58.2715L163.474 69.8106C163.507 70.0777 163.434 70.3473 163.269 70.5601C163.104 70.7729 162.862 70.9116 162.595 70.9458" fill="#EA706A"/>
<path d="M155.818 64.5604C155.471 64.5614 155.129 64.4818 154.819 64.3279C154.508 64.174 154.238 63.9501 154.028 63.6738C153.688 63.2361 153.527 62.685 153.578 62.1326C153.603 61.8255 153.692 61.527 153.838 61.256C153.984 60.9849 154.185 60.7472 154.428 60.5578C154.671 60.3684 154.95 60.2316 155.248 60.1558C155.547 60.08 155.857 60.0671 156.161 60.1177C156.464 60.1683 156.754 60.2814 157.012 60.4498C157.269 60.6183 157.489 60.8384 157.658 61.0964C157.826 61.3543 157.939 61.6443 157.99 61.9483C158.041 62.2522 158.028 62.5633 157.952 62.862C157.852 63.2608 157.643 63.624 157.349 63.9115C157.055 64.1989 156.688 64.3994 156.287 64.4908C156.292 64.4996 156.299 64.5069 156.308 64.5117C156.316 64.5162 156.326 64.5177 156.335 64.5162C157.084 64.4817 157.823 64.6912 158.443 65.1133C159.063 65.5354 159.529 66.1473 159.772 66.8572C159.934 67.3547 160.016 67.8749 160.015 68.3983C160.012 68.6124 159.933 68.8184 159.791 68.9791C159.65 69.1399 159.456 69.2449 159.245 69.2752L159.135 69.2902L154.175 69.8863C153.961 69.9236 153.741 69.885 153.553 69.7773C153.365 69.6695 153.22 69.4994 153.143 69.2962C153.125 69.2536 153.11 69.2091 153.101 69.1636C153.001 68.4717 152.899 67.7797 153.101 67.09C153.249 66.515 153.544 65.9883 153.957 65.5615C154.369 65.1346 154.885 64.8222 155.454 64.6548C155.573 64.6203 155.693 64.5896 155.818 64.5604ZM156.587 68.9457L159.089 68.6454C159.135 68.6455 159.18 68.6352 159.222 68.6153C159.263 68.5953 159.299 68.5662 159.328 68.5302C159.356 68.4941 159.376 68.4521 159.386 68.4072C159.396 68.3623 159.396 68.3157 159.385 68.271C159.362 68.0785 159.337 67.8861 159.314 67.6801C159.261 67.2115 159.094 66.7632 158.827 66.375C158.559 65.9867 158.2 65.6705 157.782 65.4546C157.355 65.2345 156.879 65.1259 156.399 65.1388C155.919 65.1516 155.45 65.2855 155.035 65.5281C154.62 65.7707 154.273 66.114 154.026 66.5265C153.779 66.9389 153.64 67.407 153.622 67.8876C153.626 68.235 153.656 68.5818 153.711 68.9247C153.738 69.1808 153.861 69.273 154.119 69.2423L156.587 68.9457ZM157.369 62.1289C157.331 61.8166 157.202 61.5224 156.998 61.2836C156.794 61.0447 156.523 60.8718 156.221 60.7868C155.918 60.7019 155.598 60.7086 155.299 60.8061C155 60.9036 154.737 61.0877 154.543 61.3349C154.349 61.5821 154.232 61.8814 154.208 62.1949C154.184 62.5085 154.253 62.8223 154.406 63.0966C154.56 63.3709 154.792 63.5934 155.071 63.736C155.351 63.8786 155.667 63.9348 155.979 63.8977C156.187 63.8748 156.389 63.8107 156.572 63.7092C156.755 63.6076 156.916 63.4706 157.046 63.3061C157.175 63.1413 157.271 62.9523 157.326 62.7502C157.382 62.548 157.396 62.3368 157.369 62.1289Z" fill="white"/>
</svg>
