<svg width="268" height="24" viewBox="0 0 268 24" fill="none" xmlns="http://www.w3.org/2000/svg">
<path d="M4.51293 0.749192H8.25221L3.73928 12.3488L8.25221 24H4.51293L0 12.3488L4.51293 0.749192ZM10.96 0.749192H14.6993L10.1863 12.3488L14.6993 24H10.96L6.44704 12.3488L10.96 0.749192Z" fill="#131313"/>
<path d="M28.7538 21.2357C26.7939 21.2357 25.0489 20.8741 23.5188 20.1507C22.0059 19.4273 20.811 18.3767 19.9342 16.9989C19.0746 15.6211 18.6448 13.9849 18.6448 12.0904C18.6448 10.0926 19.066 8.3789 19.9085 6.94941C20.7509 5.50269 21.9285 4.40043 23.4414 3.64263C24.9543 2.8676 26.6821 2.48008 28.6249 2.48008C29.5876 2.48008 30.559 2.57481 31.5389 2.76426C32.5189 2.95371 33.3269 3.19483 33.963 3.48762V6.69107C32.2266 6.05382 30.6105 5.7352 29.1148 5.7352C27.3269 5.7352 25.8741 6.26049 24.7566 7.31109C23.6563 8.36168 23.1062 9.95479 23.1062 12.0904C23.1062 13.2271 23.3813 14.2347 23.9314 15.113C24.4816 15.9742 25.2036 16.6459 26.0976 17.1281C26.9916 17.6103 27.9544 17.8859 28.9859 17.9548L29.5532 17.9806C30.3441 17.9806 31.1263 17.8687 31.9 17.6448C32.6736 17.4209 33.3613 17.1195 33.963 16.7406V20.3057C33.2237 20.6502 32.4329 20.8913 31.5905 21.0291C30.7653 21.1668 29.8197 21.2357 28.7538 21.2357Z" fill="#131313"/>
<path d="M46.5372 2.11841L39.9354 21.5974H36.8408L43.4426 2.11841H46.5372Z" fill="#131313"/>
<path d="M59.3017 21.2357C57.3418 21.2357 55.5968 20.8741 54.0667 20.1507C52.5538 19.4273 51.3589 18.3767 50.4821 16.9989C49.6225 15.6211 49.1927 13.9849 49.1927 12.0904C49.1927 10.0926 49.6139 8.3789 50.4563 6.94941C51.2988 5.50269 52.4764 4.40043 53.9893 3.64263C55.5022 2.8676 57.23 2.48008 59.1727 2.48008C60.1355 2.48008 61.1069 2.57481 62.0868 2.76426C63.0668 2.95371 63.8748 3.19483 64.5109 3.48762V6.69107C62.7745 6.05382 61.1584 5.7352 59.6627 5.7352C57.8747 5.7352 56.422 6.26049 55.3045 7.31109C54.2042 8.36168 53.6541 9.95479 53.6541 12.0904C53.6541 13.2271 53.9292 14.2347 54.4793 15.113C55.0294 15.9742 55.7515 16.6459 56.6455 17.1281C57.5395 17.6103 58.5023 17.8859 59.5338 17.9548L60.1011 17.9806C60.892 17.9806 61.6742 17.8687 62.4478 17.6448C63.2215 17.4209 63.9092 17.1195 64.5109 16.7406V20.3057C63.7716 20.6502 62.9808 20.8913 62.1384 21.0291C61.3132 21.1668 60.3676 21.2357 59.3017 21.2357Z" fill="#131313"/>
<path d="M74.893 14.7772V19.8665H71.618V14.7772H66.5377V11.4962H71.618V6.43272H74.893V11.4962H79.9733V14.7772H74.893Z" fill="#131313"/>
<path d="M89.827 14.7772V19.8665H86.5519V14.7772H81.4716V11.4962H86.5519V6.43272H89.827V11.4962H94.9073V14.7772H89.827Z" fill="#131313"/>
<path d="M119.022 23.4833H115.747V9.89451H105.792V6.7944H119.048L119.022 23.4833ZM96.9472 3.48762C98.5804 2.76426 99.7667 1.72228 100.506 0.361679H108.474V3.28095C109.901 2.57481 110.95 1.60172 111.621 0.361679H120.157V3.46179H116.804L117.784 5.96771H114.303L113.348 3.51345C112.695 4.32293 111.913 5.02045 111.002 5.60603C110.108 6.17438 109.128 6.56189 108.062 6.76857V3.48762L108.113 3.46179H105.664L106.644 5.96771H103.162L102.208 3.53929C101.555 4.34876 100.772 5.03767 99.8612 5.60603C98.9672 6.17438 97.9959 6.56189 96.9472 6.76857V3.48762ZM101.357 11.3929V23.4833H98.0818L98.056 11.3929H101.357ZM102.698 6.22605L104.271 10.2562H100.841L99.2681 6.22605H102.698ZM103.472 11.3671L113.632 11.4446V22.1658H103.472V11.3671ZM110.46 19.6598V18.0065H106.644V19.6598H110.46ZM110.46 15.6039V13.9505H106.644V15.6039H110.46Z" fill="#131313"/>
<path d="M132.329 21.2616L123.122 21.2357V0.749192L132.329 0.775026V21.2616ZM129.079 18.084V12.4004L126.371 12.3746V18.0581L129.079 18.084ZM129.079 9.30032V3.95264L126.371 3.9268V9.27449L129.079 9.30032ZM132.612 23.4833C133.265 21.761 133.712 20.0388 133.953 18.3165C134.211 16.577 134.34 14.6566 134.34 12.5554V0.542518H145.274V23.4833H141.999V16.9731H137.46C137.237 19.2293 136.833 21.3994 136.248 23.4833H132.612ZM141.999 13.7955V10.4112H137.641V13.7955H141.999ZM141.999 7.23358V3.8493H137.641V7.23358H141.999Z" fill="#131313"/>
<path d="M172.197 23.8967C169.481 22.6738 167.306 21.0205 165.673 18.9365C163.971 20.9688 161.865 22.5274 159.354 23.6125V19.789C161.125 18.859 162.587 17.5587 163.738 15.8881C162.965 14.3897 162.329 12.7104 161.83 10.8504C161.332 8.99031 160.893 6.84607 160.515 4.41765L160.67 4.39182H160.025V1.00753H171.707L171.191 4.39182H171.037L171.191 4.41765C170.744 6.84607 170.246 9.00753 169.696 10.902C169.145 12.7966 168.441 14.5274 167.581 16.0947C168.698 17.7826 170.229 19.1087 172.171 20.0732L172.197 23.8967ZM148.42 19.9182C150.225 18.7987 151.67 17.4037 152.753 15.733C151.962 14.2691 151.343 12.6157 150.896 10.7729C150.449 8.93003 150.097 6.80301 149.839 4.39182H148.885V1.00753H159.612L159.458 4.39182C159.217 6.63079 158.873 8.68891 158.426 10.5662C157.979 12.4435 157.343 14.1916 156.518 15.8105C157.188 16.5856 158.022 17.3175 159.019 18.0065V21.9849C157.334 21.0205 155.916 19.901 154.764 18.6265C153.114 20.8138 150.999 22.5791 148.42 23.9225V19.9182ZM153.191 4.39182C153.346 6.30355 153.509 7.83638 153.681 8.99031C153.853 10.1442 154.12 11.2293 154.481 12.2454C154.91 11.0571 155.228 9.82562 155.435 8.55113C155.658 7.25942 155.822 5.87298 155.925 4.39182H153.191ZM164.357 6.04521C164.667 7.64693 164.908 8.83531 165.079 9.61033C165.251 10.3854 165.458 11.169 165.698 11.9612C166.094 10.859 166.42 9.70506 166.678 8.49946C166.936 7.27664 167.177 5.90743 167.4 4.39182H164.048L164.357 6.04521Z" fill="#131313"/>
<path d="M188.315 4.70183H186.664V1.49838H189.269L189.681 0.103336H192.982L192.57 1.49838H197.263V4.70183H191.383L190.455 7.95694H191.564V5.68353H194.401V7.95694H197.005V11.0571H194.297V13.5888H197.521V16.6889H194.297V19.4273H191.074V16.6889H186.664V13.5888H191.074V11.0571H186.432L188.315 4.70183ZM173.796 8.7578C174.621 5.93326 175.059 3.0915 175.111 0.232508H178.438L178.36 2.17007H181.378V5.37352H178.025C177.956 5.94187 177.853 6.51884 177.716 7.10441H181.017V10.2562H179.34V12.5296H181.378V15.6814H179.34V19.3757L181.352 18.8848V22.2174L176.168 23.4833V15.6814H174.312V12.5296H176.168V10.2562H175.085V8.7578H173.796ZM181.145 23.4833C181.85 21.2099 182.332 19.1776 182.59 17.3864C182.848 15.578 182.994 13.4338 183.028 10.9537H181.584V7.59526H186.226C186.209 10.1787 186.157 12.2713 186.071 13.873C186.002 15.4575 185.856 16.9989 185.633 18.4973C186.166 19.014 186.767 19.3929 187.438 19.634C188.108 19.8579 188.916 19.9699 189.862 19.9699H197.779V23.225H189.862C188.727 23.225 187.782 23.113 187.025 22.8891C186.269 22.6825 185.598 22.3208 185.014 21.8041L184.601 23.4833H181.145ZM185.117 0.232508L186.148 5.83854H183.08L182.048 0.232508H185.117Z" fill="#131313"/>
<path d="M211.988 23.4833C213.123 21.9333 214.051 20.5985 214.773 19.479C215.513 18.3423 216.149 17.197 216.682 16.0431L215.186 11.8579H212.298C213.535 8.31001 214.438 4.36598 215.005 0.0258339H218.332C218.229 0.938643 218.1 1.85145 217.945 2.76426H223.515V6.12271H222.561C222.114 9.87729 221.435 13.0291 220.524 15.578L223.773 23.4833H220.215L218.564 19.4273C217.98 20.564 217.163 21.916 216.114 23.4833H211.988ZM202.034 9.662H199.842V6.7169H204.149V5.03767H200.77V2.09257H204.149V0.232508H207.398V2.09257H208.945V4.676L210.106 1.39505H213.406L211.524 6.7169H212.659V9.662H205.438L204.974 10.8504H211.782L209.358 15.4489L213.819 14.648V17.6448L208.919 18.5231V23.4833H203.014V20.564H205.67V18.6006L200.1 19.6082V16.6114L205.954 15.5522L206.959 13.7696H203.839L203.246 15.2939H199.842L202.034 9.662ZM208.223 6.7169L208.816 5.03767H207.398V6.7169H208.223ZM218.409 11.7804C218.908 10.0065 219.278 8.12056 219.518 6.12271H217.352L217.043 7.54359L218.409 11.7804Z" fill="#131313"/>
<path d="M248.092 9.17115H236.435V0.671689H248.092V9.17115ZM225.475 22.4758C226.18 18.5834 226.533 14.5619 226.533 10.4112H228.957C228.957 14.8547 228.647 18.8762 228.028 22.4758H225.475ZM225.759 6.07104H229.473V3.82347C228.372 3.87513 227.246 3.90097 226.094 3.90097V0.749192C228.845 0.749192 231.888 0.499461 235.223 0V3.17761C234.054 3.36706 233.238 3.48762 232.773 3.53929V6.07104H235.713V9.22282H232.773V11.2379L235.404 12.8654V16.5597L232.773 14.9322V23.4833H229.653V9.22282H225.759V6.07104ZM235.12 20.3574H240.587V18.2906H236.41V15.6039H240.587V13.5888H235.765V10.7212H248.762V13.5888H243.94V15.6039H248.117V18.2906H243.94V20.3574H249.407V23.225H235.12V20.3574ZM244.765 6.32939V3.51345H239.762V6.32939H244.765Z" fill="#131313"/>
<path d="M257.814 12.3488L253.301 0.749192H257.04L261.553 12.3488L257.04 24H253.301L257.814 12.3488ZM264.261 12.3488L259.748 0.749192H263.487L268 12.3488L263.487 24H259.748L264.261 12.3488Z" fill="#131313"/>
</svg>
