<svg width="16" height="16" viewBox="0 0 16 16" fill="none" xmlns="http://www.w3.org/2000/svg">
<path d="M0 8.80967H4.40408C4.54799 11.4562 5.39308 13.9147 6.75549 16C3.16626 15.4383 0.362413 12.4856 0 8.80967ZM0 7.19038C0.362413 3.51437 3.16626 0.56168 6.75549 0C5.39308 2.08526 4.54799 4.54378 4.40408 7.19038H0ZM16 7.19038H11.5959C11.452 4.54378 10.6069 2.08526 9.2445 0C12.8337 0.56168 15.6376 3.51437 16 7.19038ZM16 8.80967C15.6376 12.4856 12.8337 15.4383 9.2445 16C10.6069 13.9147 11.452 11.4562 11.5959 8.80967H16ZM6.01478 8.80967H9.98519C9.84723 11.0627 9.13733 13.16 7.99995 14.956C6.86258 13.16 6.15275 11.0627 6.01478 8.80967ZM6.01478 7.19038C6.15275 4.93725 6.86258 2.83998 7.99995 1.04394C9.13733 2.83998 9.84723 4.93725 9.98519 7.19038H6.01478Z" fill="white"/>
</svg>
